Monda-Extra-Bold-Italic.ufo
<glyph name="exclam" format="1">
  <advance width="576"/>
  <unicode hex="0021"/>
  <outline>
    <contour>
      <point x="21" y="0" type="line"/>
      <point x="299" y="0" type="line"/>
      <point x="341" y="268" type="line"/>
      <point x="64" y="268" type="line"/>
    </contour>
    <contour>
      <point x="187" y="433" type="curve"/>
      <point x="275" y="433" type="line"/>
      <point x="275" y="433"/>
      <point x="562" y="1538"/>
      <point x="555" y="1496" type="curve"/>
      <point x="262" y="1496" type="line"/>
      <point x="269" y="1538"/>
      <point x="187" y="433"/>
    </contour>
  </outline>
</glyph>
<glyph name="quotedbl" format="1">
  <advance width="1104"/>
  <unicode hex="0022"/>
  <outline>
    <contour>
      <point x="257" y="837" type="line"/>
      <point x="380" y="837" type="line"/>
      <point x="547" y="1522" type="line"/>
      <point x="265" y="1522" type="line"/>
    </contour>
    <contour>
      <point x="622" y="837" type="line"/>
      <point x="745" y="837" type="line"/>
      <point x="947" y="1522" type="line"/>
      <point x="664" y="1522" type="line"/>
    </contour>
  </outline>
</glyph>
<glyph name="numbersign" format="1">
  <advance width="1518"/>
  <unicode hex="0023"/>
  <outline>
    <contour>
      <point x="131" y="0" type="line"/>
      <point x="353" y="0" type="line"/>
      <point x="512" y="480" type="line"/>
      <point x="744" y="480" type="line"/>
      <point x="583" y="0" type="line"/>
      <point x="806" y="0" type="line"/>
      <point x="962" y="480" type="line"/>
      <point x="1244" y="480" type="line"/>
      <point x="1268" y="632" type="line"/>
      <point x="1014" y="632" type="line"/>
      <point x="1097" y="888" type="line"/>
      <point x="1332" y="888" type="line"/>
      <point x="1356" y="1040" type="line"/>
      <point x="1149" y="1040" type="line"/>
      <point x="1298" y="1496" type="line"/>
      <point x="1083" y="1496" type="line"/>
      <point x="931" y="1040" type="line"/>
      <point x="697" y="1040" type="line"/>
      <point x="846" y="1496" type="line"/>
      <point x="631" y="1496" type="line"/>
      <point x="478" y="1040" type="line"/>
      <point x="185" y="1040" type="line"/>
      <point x="161" y="888" type="line"/>
      <point x="429" y="888" type="line"/>
      <point x="343" y="632" type="line"/>
      <point x="96" y="632" type="line"/>
      <point x="73" y="480" type="line"/>
      <point x="292" y="480" type="line"/>
    </contour>
    <contour>
      <point x="561" y="632" type="line"/>
      <point x="645" y="888" type="line"/>
      <point x="879" y="888" type="line"/>
      <point x="793" y="632" type="line"/>
    </contour>
  </outline>
</glyph>
<glyph name="percent" format="1">
  <advance width="2154"/>
  <unicode hex="0025"/>
  <outline>
    <contour>
      <point x="523" y="794" type="curve" smooth="yes"/>
      <point x="403" y="794"/>
      <point x="408" y="891"/>
      <point x="428" y="1022" type="curve" smooth="yes"/>
      <point x="441" y="1108" type="line" smooth="yes"/>
      <point x="462" y="1234"/>
      <point x="483" y="1320"/>
      <point x="607" y="1320" type="curve" smooth="yes"/>
      <point x="733" y="1320"/>
      <point x="726" y="1234"/>
      <point x="705" y="1106" type="curve" smooth="yes"/>
      <point x="692" y="1022" type="line" smooth="yes"/>
      <point x="672" y="891"/>
      <point x="644" y="794"/>
    </contour>
    <contour>
      <point x="500" y="656" type="curve" smooth="yes"/>
      <point x="730" y="656"/>
      <point x="832" y="806"/>
      <point x="869" y="1035" type="curve" smooth="yes"/>
      <point x="877" y="1089" type="line" smooth="yes"/>
      <point x="912" y="1322"/>
      <point x="859" y="1459"/>
      <point x="629" y="1459" type="curve" smooth="yes"/>
      <point x="398" y="1459"/>
      <point x="306" y="1321"/>
      <point x="269" y="1088" type="curve" smooth="yes"/>
      <point x="261" y="1035" type="line" smooth="yes"/>
      <point x="223" y="807"/>
      <point x="270" y="656"/>
    </contour>
    <contour>
      <point x="1543" y="119" type="curve" smooth="yes"/>
      <point x="1421" y="119"/>
      <point x="1426" y="216"/>
      <point x="1446" y="348" type="curve" smooth="yes"/>
      <point x="1459" y="433" type="line" smooth="yes"/>
      <point x="1480" y="560"/>
      <point x="1501" y="646"/>
      <point x="1626" y="646" type="curve" smooth="yes"/>
      <point x="1751" y="646"/>
      <point x="1744" y="560"/>
      <point x="1724" y="431" type="curve" smooth="yes"/>
      <point x="1710" y="348" type="line" smooth="yes"/>
      <point x="1690" y="216"/>
      <point x="1662" y="119"/>
    </contour>
    <contour>
      <point x="1521" y="-19" type="curve" smooth="yes"/>
      <point x="1751" y="-19"/>
      <point x="1850" y="131"/>
      <point x="1886" y="360" type="curve" smooth="yes"/>
      <point x="1895" y="414" type="line" smooth="yes"/>
      <point x="1930" y="647"/>
      <point x="1879" y="784"/>
      <point x="1649" y="784" type="curve" smooth="yes"/>
      <point x="1418" y="784"/>
      <point x="1324" y="646"/>
      <point x="1287" y="413" type="curve" smooth="yes"/>
      <point x="1278" y="360" type="line" smooth="yes"/>
      <point x="1242" y="132"/>
      <point x="1291" y="-19"/>
    </contour>
    <contour>
      <point x="595" y="0" type="line"/>
      <point x="788" y="0" type="line"/>
      <point x="1555" y="1446" type="line"/>
      <point x="1367" y="1446" type="line"/>
    </contour>
  </outline>
</glyph>
<glyph name="ampersand" format="1">
  <advance width="1542"/>
  <unicode hex="0026"/>
  <outline>
    <contour>
      <point x="620" y="-29" type="curve" smooth="yes"/>
      <point x="873" y="-29"/>
      <point x="995" y="10"/>
      <point x="1083" y="96" type="curve"/>
      <point x="1183" y="-25" type="line"/>
      <point x="1411" y="184" type="line"/>
      <point x="1269" y="338" type="line"/>
      <point x="1296" y="388"/>
      <point x="1324" y="491"/>
      <point x="1338" y="578" type="curve" smooth="yes"/>
      <point x="1380" y="848" type="line"/>
      <point x="1109" y="848" type="line"/>
      <point x="1066" y="577" type="line" smooth="yes"/>
      <point x="1063" y="561"/>
      <point x="1064" y="568"/>
      <point x="1062" y="554" type="curve"/>
      <point x="710" y="977" type="line" smooth="yes"/>
      <point x="636" y="1072"/>
      <point x="616" y="1085"/>
      <point x="627" y="1163" type="curve" smooth="yes"/>
      <point x="641" y="1245"/>
      <point x="680" y="1289"/>
      <point x="879" y="1289" type="curve" smooth="yes"/>
      <point x="1067" y="1289"/>
      <point x="1110" y="1283"/>
      <point x="1088" y="1145" type="curve" smooth="yes"/>
      <point x="1084" y="1114" type="line"/>
      <point x="1365" y="1114" type="line"/>
      <point x="1377" y="1186" type="line" smooth="yes"/>
      <point x="1413" y="1422"/>
      <point x="1298" y="1520"/>
      <point x="910" y="1520" type="curve" smooth="yes"/>
      <point x="533" y="1520"/>
      <point x="363" y="1438"/>
      <point x="321" y="1179" type="curve" smooth="yes"/>
      <point x="297" y="1025"/>
      <point x="352" y="927"/>
      <point x="442" y="830" type="curve"/>
      <point x="236" y="772"/>
      <point x="120" y="674"/>
      <point x="88" y="473" type="curve" smooth="yes"/>
      <point x="22" y="54"/>
      <point x="177" y="-29"/>
    </contour>
    <contour>
      <point x="662" y="236" type="curve" smooth="yes"/>
      <point x="406" y="236"/>
      <point x="370" y="273"/>
      <point x="403" y="479" type="curve" smooth="yes"/>
      <point x="422" y="601"/>
      <point x="431" y="661"/>
      <point x="563" y="693" type="curve"/>
      <point x="882" y="308" type="line"/>
      <point x="843" y="235"/>
      <point x="725" y="236"/>
    </contour>
  </outline>
</glyph>
<glyph name="quotesingle" format="1">
  <advance width="693"/>
  <unicode hex="0027"/>
  <outline>
    <contour>
      <point x="351" y="837" type="line"/>
      <point x="475" y="837" type="line"/>
      <point x="641" y="1522" type="line"/>
      <point x="359" y="1522" type="line"/>
    </contour>
  </outline>
</glyph>
<glyph name="parenleft" format="1">
  <advance width="1053"/>
  <unicode hex="0028"/>
  <outline>
    <contour>
      <point x="727" y="-164" type="curve"/>
      <point x="767" y="90" type="line"/>
      <point x="601" y="90"/>
      <point x="465" y="102"/>
      <point x="509" y="379" type="curve" smooth="yes"/>
      <point x="612" y="1034" type="line" smooth="yes"/>
      <point x="656" y="1314"/>
      <point x="800" y="1325"/>
      <point x="962" y="1325" type="curve"/>
      <point x="1002" y="1580" type="line"/>
      <point x="584" y="1581"/>
      <point x="337" y="1388"/>
      <point x="276" y="1002" type="curve" smooth="yes"/>
      <point x="182" y="408" type="line" smooth="yes"/>
      <point x="120" y="24"/>
      <point x="310" y="-166"/>
    </contour>
  </outline>
</glyph>
<glyph name="parenright" format="1">
  <advance width="1053"/>
  <unicode hex="0029"/>
  <outline>
    <contour>
      <point x="78" y="-164" type="line"/>
      <point x="496" y="-166"/>
      <point x="742" y="27"/>
      <point x="802" y="413" type="curve" smooth="yes"/>
      <point x="897" y="1007" type="line" smooth="yes"/>
      <point x="958" y="1392"/>
      <point x="770" y="1581"/>
      <point x="353" y="1580" type="curve"/>
      <point x="313" y="1324" type="line"/>
      <point x="479" y="1324"/>
      <point x="615" y="1314"/>
      <point x="571" y="1035" type="curve" smooth="yes"/>
      <point x="467" y="379" type="line" smooth="yes"/>
      <point x="424" y="102"/>
      <point x="280" y="91"/>
      <point x="118" y="91" type="curve"/>
    </contour>
  </outline>
</glyph>
<glyph name="asterisk" format="1">
  <advance width="982"/>
  <unicode hex="002A"/>
  <outline>
    <contour>
      <point x="335" y="599" type="line"/>
      <point x="513" y="599" type="line"/>
      <point x="533" y="912" type="line"/>
      <point x="750" y="722" type="line"/>
      <point x="870" y="875" type="line"/>
      <point x="612" y="1017" type="line"/>
      <point x="922" y="1134" type="line"/>
      <point x="866" y="1295" type="line"/>
      <point x="566" y="1121" type="line"/>
      <point x="647" y="1446" type="line"/>
      <point x="469" y="1446" type="line"/>
      <point x="448" y="1133" type="line"/>
      <point x="231" y="1323" type="line"/>
      <point x="111" y="1170" type="line"/>
      <point x="369" y="1028" type="line"/>
      <point x="60" y="911" type="line"/>
      <point x="115" y="750" type="line"/>
      <point x="415" y="924" type="line"/>
    </contour>
  </outline>
</glyph>
<glyph name="plus" format="1">
  <advance width="931"/>
  <unicode hex="002B"/>
  <outline>
    <contour>
      <point x="315" y="156" type="line"/>
      <point x="487" y="156" type="line"/>
      <point x="539" y="483" type="line"/>
      <point x="805" y="483" type="line"/>
      <point x="832" y="653" type="line"/>
      <point x="566" y="653" type="line"/>
      <point x="615" y="968" type="line"/>
      <point x="443" y="968" type="line"/>
      <point x="394" y="653" type="line"/>
      <point x="129" y="653" type="line"/>
      <point x="101" y="483" type="line"/>
      <point x="367" y="483" type="line"/>
    </contour>
  </outline>
</glyph>
<glyph name="comma" format="1">
  <advance width="844"/>
  <unicode hex="002C"/>
  <outline>
    <contour>
      <point x="334" y="-420" type="line"/>
      <point x="408" y="-362"/>
      <point x="589" y="-152"/>
      <point x="620" y="55" type="curve" smooth="yes"/>
      <point x="660" y="302" type="line"/>
      <point x="299" y="302" type="line"/>
      <point x="251" y="0" type="line"/>
      <point x="431" y="0" type="line"/>
      <point x="408" y="-142"/>
      <point x="283" y="-313"/>
      <point x="220" y="-372" type="curve"/>
    </contour>
  </outline>
</glyph>
<glyph name="period" format="1">
  <advance width="638"/>
  <unicode hex="002E"/>
  <outline>
    <contour>
      <point x="127" y="0" type="line"/>
      <point x="450" y="0" type="line"/>
      <point x="498" y="309" type="line"/>
      <point x="175" y="309" type="line"/>
    </contour>
  </outline>
</glyph>
<glyph name="slash" format="1">
  <advance width="1178"/>
  <unicode hex="002F"/>
  <outline>
    <contour>
      <point x="11" y="0" type="line"/>
      <point x="287" y="0" type="line"/>
      <point x="1167" y="1522" type="line"/>
      <point x="888" y="1522" type="line"/>
    </contour>
  </outline>
</glyph>
<glyph name="zero" format="1">
  <advance width="1522"/>
  <unicode hex="0030"/>
  <outline>
    <contour>
      <point x="691" y="244" type="curve" smooth="yes"/>
      <point x="525" y="244"/>
      <point x="461" y="376"/>
      <point x="468" y="429" type="curve" smooth="yes"/>
      <point x="570" y="1066" type="line" smooth="yes"/>
      <point x="579" y="1119"/>
      <point x="668" y="1248"/>
      <point x="849" y="1248" type="curve" smooth="yes"/>
      <point x="1028" y="1248"/>
      <point x="1071" y="1119"/>
      <point x="1061" y="1066" type="curve" smooth="yes"/>
      <point x="960" y="429" type="line" smooth="yes"/>
      <point x="952" y="376"/>
      <point x="858" y="244"/>
    </contour>
    <contour>
      <point x="649" y="-19" type="curve" smooth="yes"/>
      <point x="986" y="-19"/>
      <point x="1262" y="191"/>
      <point x="1301" y="433" type="curve" smooth="yes"/>
      <point x="1400" y="1062" type="line" smooth="yes"/>
      <point x="1440" y="1314"/>
      <point x="1240" y="1513"/>
      <point x="891" y="1513" type="curve" smooth="yes"/>
      <point x="531" y="1513"/>
      <point x="252" y="1320"/>
      <point x="212" y="1068" type="curve" smooth="yes"/>
      <point x="110" y="426" type="line" smooth="yes"/>
      <point x="71" y="180"/>
      <point x="297" y="-19"/>
    </contour>
  </outline>
</glyph>
<glyph name="one" format="1">
  <advance width="1456"/>
  <unicode hex="0031"/>
  <outline>
    <contour>
      <point x="157" y="0" type="line"/>
      <point x="1157" y="0" type="line"/>
      <point x="1195" y="241" type="line"/>
      <point x="886" y="241" type="line"/>
      <point x="1085" y="1494" type="line"/>
      <point x="855" y="1494" type="line"/>
      <point x="367" y="1409" type="line"/>
      <point x="359" y="1157" type="line"/>
      <point x="687" y="1219" type="line"/>
      <point x="531" y="241" type="line"/>
      <point x="194" y="241" type="line"/>
    </contour>
  </outline>
</glyph>
<glyph name="two" format="1">
  <advance width="1456"/>
  <unicode hex="0032"/>
  <outline>
    <contour>
      <point x="185" y="0" type="line"/>
      <point x="1093" y="0" type="line"/>
      <point x="1137" y="282" type="line"/>
      <point x="627" y="282" type="line"/>
      <point x="912" y="493" type="line" smooth="yes"/>
      <point x="1148" y="679"/>
      <point x="1244" y="848"/>
      <point x="1277" y="1061" type="curve" smooth="yes"/>
      <point x="1319" y="1327"/>
      <point x="1208" y="1513"/>
      <point x="870" y="1513" type="curve" smooth="yes"/>
      <point x="420" y="1513"/>
      <point x="316" y="1334"/>
      <point x="260" y="973" type="curve"/>
      <point x="619" y="973" type="line"/>
      <point x="650" y="1165"/>
      <point x="705" y="1244"/>
      <point x="831" y="1244" type="curve" smooth="yes"/>
      <point x="896" y="1244"/>
      <point x="950" y="1167"/>
      <point x="932" y="1059" type="curve" smooth="yes"/>
      <point x="919" y="968"/>
      <point x="890" y="874"/>
      <point x="762" y="766" type="curve" smooth="yes"/>
      <point x="180" y="267" type="line"/>
    </contour>
  </outline>
</glyph>
<glyph name="three" format="1">
  <advance width="1456"/>
  <unicode hex="0033"/>
  <outline>
    <contour>
      <point x="599" y="-19" type="curve" smooth="yes"/>
      <point x="954" y="-19"/>
      <point x="1175" y="149"/>
      <point x="1222" y="443" type="curve" smooth="yes"/>
      <point x="1246" y="592"/>
      <point x="1192" y="739"/>
      <point x="1058" y="787" type="curve"/>
      <point x="1191" y="821"/>
      <point x="1298" y="941"/>
      <point x="1323" y="1107" type="curve" smooth="yes"/>
      <point x="1363" y="1356"/>
      <point x="1208" y="1513"/>
      <point x="847" y="1513" type="curve" smooth="yes"/>
      <point x="506" y="1513"/>
      <point x="313" y="1294"/>
      <point x="269" y="1038" type="curve"/>
      <point x="600" y="1038" type="line"/>
      <point x="614" y="1135"/>
      <point x="700" y="1252"/>
      <point x="813" y="1252" type="curve" smooth="yes"/>
      <point x="921" y="1252"/>
      <point x="991" y="1195"/>
      <point x="973" y="1086" type="curve" smooth="yes"/>
      <point x="955" y="969"/>
      <point x="856" y="899"/>
      <point x="691" y="899" type="curve"/>
      <point x="654" y="670" type="line"/>
      <point x="832" y="670"/>
      <point x="889" y="576"/>
      <point x="871" y="463" type="curve" smooth="yes"/>
      <point x="846" y="304"/>
      <point x="755" y="238"/>
      <point x="638" y="238" type="curve" smooth="yes"/>
      <point x="524" y="238"/>
      <point x="480" y="343"/>
      <point x="501" y="439" type="curve"/>
      <point x="170" y="439" type="line"/>
      <point x="120" y="174"/>
      <point x="284" y="-19"/>
    </contour>
  </outline>
</glyph>
<glyph name="four" format="1">
  <advance width="1456"/>
  <unicode hex="0034"/>
  <outline>
    <contour>
      <point x="754" y="0" type="line"/>
      <point x="1033" y="0" type="line"/>
      <point x="1072" y="241" type="line"/>
      <point x="1297" y="241" type="line"/>
      <point x="1344" y="541" type="line"/>
      <point x="1119" y="541" type="line"/>
      <point x="1173" y="877" type="line"/>
      <point x="894" y="877" type="line"/>
      <point x="840" y="541" type="line"/>
      <point x="538" y="541" type="line"/>
      <point x="1068" y="1494" type="line"/>
      <point x="705" y="1494" type="line"/>
      <point x="154" y="545" type="line"/>
      <point x="106" y="241" type="line"/>
      <point x="793" y="241" type="line"/>
    </contour>
  </outline>
</glyph>
<glyph name="five" format="1">
  <advance width="1456"/>
  <unicode hex="0035"/>
  <outline>
    <contour>
      <point x="649" y="-19" type="curve" smooth="yes"/>
      <point x="1022" y="-19"/>
      <point x="1281" y="185"/>
      <point x="1329" y="489" type="curve" smooth="yes"/>
      <point x="1370" y="748"/>
      <point x="1206" y="985"/>
      <point x="909" y="985" type="curve" smooth="yes"/>
      <point x="811" y="985"/>
      <point x="663" y="970"/>
      <point x="585" y="896" type="curve"/>
      <point x="674" y="1199" type="line"/>
      <point x="1317" y="1199" type="line"/>
      <point x="1362" y="1494" type="line"/>
      <point x="457" y="1494" type="line"/>
      <point x="234" y="710" type="line"/>
      <point x="468" y="575" type="line"/>
      <point x="570" y="671"/>
      <point x="722" y="674"/>
      <point x="791" y="674" type="curve" smooth="yes"/>
      <point x="890" y="674"/>
      <point x="998" y="609"/>
      <point x="979" y="493" type="curve" smooth="yes"/>
      <point x="947" y="291"/>
      <point x="818" y="241"/>
      <point x="669" y="241" type="curve" smooth="yes"/>
      <point x="614" y="241"/>
      <point x="412" y="249"/>
      <point x="229" y="364" type="curve"/>
      <point x="99" y="137" type="line"/>
      <point x="162" y="75"/>
      <point x="420" y="-19"/>
    </contour>
  </outline>
</glyph>
<glyph name="six" format="1">
  <advance width="1456"/>
  <unicode hex="0036"/>
  <outline>
    <contour>
      <point x="629" y="-19" type="curve" smooth="yes"/>
      <point x="994" y="-19"/>
      <point x="1238" y="190"/>
      <point x="1280" y="460" type="curve" smooth="yes"/>
      <point x="1340" y="835"/>
      <point x="1195" y="961"/>
      <point x="870" y="961" type="curve" smooth="yes"/>
      <point x="858" y="961"/>
      <point x="758" y="948"/>
      <point x="725" y="942" type="curve"/>
      <point x="1114" y="1496" type="line"/>
      <point x="722" y="1496" type="line"/>
      <point x="367" y="1006" type="line" smooth="yes"/>
      <point x="278" y="869"/>
      <point x="189" y="699"/>
      <point x="152" y="479" type="curve" smooth="yes"/>
      <point x="108" y="197"/>
      <point x="281" y="-19"/>
    </contour>
    <contour>
      <point x="690" y="234" type="curve" smooth="yes"/>
      <point x="551" y="234"/>
      <point x="477" y="360"/>
      <point x="494" y="478" type="curve" smooth="yes"/>
      <point x="517" y="619"/>
      <point x="592" y="733"/>
      <point x="764" y="733" type="curve" smooth="yes"/>
      <point x="963" y="733"/>
      <point x="976" y="596"/>
      <point x="958" y="483" type="curve" smooth="yes"/>
      <point x="940" y="362"/>
      <point x="832" y="234"/>
    </contour>
  </outline>
</glyph>
<glyph name="seven" format="1">
  <advance width="1456"/>
  <unicode hex="0037"/>
  <outline>
    <contour>
      <point x="227" y="0" type="line"/>
      <point x="603" y="0" type="line"/>
      <point x="1394" y="1259" type="line"/>
      <point x="1431" y="1494" type="line"/>
      <point x="363" y="1494" type="line"/>
      <point x="319" y="1216" type="line"/>
      <point x="989" y="1216" type="line"/>
    </contour>
  </outline>
</glyph>
<glyph name="eight" format="1">
  <advance width="1456"/>
  <unicode hex="0038"/>
  <outline>
    <contour>
      <point x="605" y="-19" type="curve" smooth="yes"/>
      <point x="990" y="-19"/>
      <point x="1209" y="129"/>
      <point x="1248" y="378" type="curve" smooth="yes"/>
      <point x="1273" y="534"/>
      <point x="1235" y="693"/>
      <point x="966" y="789" type="curve"/>
      <point x="1215" y="852"/>
      <point x="1308" y="1018"/>
      <point x="1327" y="1140" type="curve" smooth="yes"/>
      <point x="1353" y="1308"/>
      <point x="1292" y="1513"/>
      <point x="848" y="1513" type="curve" smooth="yes"/>
      <point x="411" y="1513"/>
      <point x="268" y="1311"/>
      <point x="242" y="1150" type="curve" smooth="yes"/>
      <point x="219" y="1007"/>
      <point x="258" y="850"/>
      <point x="475" y="789" type="curve"/>
      <point x="242" y="693"/>
      <point x="123" y="566"/>
      <point x="92" y="375" type="curve" smooth="yes"/>
      <point x="55" y="140"/>
      <point x="235" y="-19"/>
    </contour>
    <contour>
      <point x="644" y="225" type="curve" smooth="yes"/>
      <point x="428" y="225"/>
      <point x="408" y="332"/>
      <point x="419" y="402" type="curve" smooth="yes"/>
      <point x="433" y="486"/>
      <point x="503" y="581"/>
      <point x="713" y="662" type="curve"/>
      <point x="899" y="581"/>
      <point x="938" y="486"/>
      <point x="924" y="402" type="curve" smooth="yes"/>
      <point x="913" y="333"/>
      <point x="861" y="225"/>
    </contour>
    <contour>
      <point x="748" y="883" type="curve"/>
      <point x="579" y="970"/>
      <point x="553" y="1030"/>
      <point x="568" y="1126" type="curve" smooth="yes"/>
      <point x="582" y="1209"/>
      <point x="637" y="1279"/>
      <point x="811" y="1279" type="curve" smooth="yes"/>
      <point x="987" y="1279"/>
      <point x="1013" y="1203"/>
      <point x="1001" y="1126" type="curve" smooth="yes"/>
      <point x="988" y="1038"/>
      <point x="933" y="970"/>
    </contour>
  </outline>
</glyph>
<glyph name="nine" format="1">
  <advance width="1456"/>
  <unicode hex="0039"/>
  <outline>
    <contour>
      <point x="388" y="0" type="line"/>
      <point x="780" y="0" type="line"/>
      <point x="1136" y="515" type="line" smooth="yes"/>
      <point x="1227" y="652"/>
      <point x="1313" y="806"/>
      <point x="1349" y="1026" type="curve" smooth="yes"/>
      <point x="1396" y="1319"/>
      <point x="1242" y="1513"/>
      <point x="870" y="1513" type="curve" smooth="yes"/>
      <point x="479" y="1513"/>
      <point x="266" y="1326"/>
      <point x="223" y="1045" type="curve" smooth="yes"/>
      <point x="163" y="670"/>
      <point x="318" y="570"/>
      <point x="642" y="570" type="curve" smooth="yes"/>
      <point x="654" y="570"/>
      <point x="747" y="573"/>
      <point x="780" y="579" type="curve"/>
    </contour>
    <contour>
      <point x="759" y="813" type="curve" smooth="yes"/>
      <point x="559" y="813"/>
      <point x="540" y="884"/>
      <point x="566" y="1045" type="curve" smooth="yes"/>
      <point x="585" y="1161"/>
      <point x="676" y="1268"/>
      <point x="827" y="1268" type="curve" smooth="yes"/>
      <point x="960" y="1268"/>
      <point x="1015" y="1163"/>
      <point x="998" y="1050" type="curve" smooth="yes"/>
      <point x="971" y="877"/>
      <point x="930" y="813"/>
    </contour>
  </outline>
</glyph>
<glyph name="less" format="1">
  <advance width="888"/>
  <unicode hex="003C"/>
  <outline>
    <contour>
      <point x="666" y="50" type="line"/>
      <point x="703" y="294" type="line"/>
      <point x="282" y="546" type="line"/>
      <point x="785" y="795" type="line"/>
      <point x="823" y="1043" type="line"/>
      <point x="103" y="659" type="line"/>
      <point x="66" y="429" type="line"/>
    </contour>
  </outline>
</glyph>
<glyph name="equal" format="1">
  <advance width="658"/>
  <unicode hex="003D"/>
  <outline>
    <contour>
      <point x="-1" y="313" type="line"/>
      <point x="567" y="313" type="line"/>
      <point x="597" y="501" type="line"/>
      <point x="28" y="501" type="line"/>
    </contour>
    <contour>
      <point x="61" y="701" type="line"/>
      <point x="630" y="701" type="line"/>
      <point x="659" y="889" type="line"/>
      <point x="91" y="889" type="line"/>
    </contour>
  </outline>
</glyph>
<glyph name="greater" format="1">
  <advance width="888"/>
  <unicode hex="003E"/>
  <outline>
    <contour>
      <point x="40" y="50" type="line"/>
      <point x="760" y="430" type="line"/>
      <point x="795" y="660" type="line"/>
      <point x="197" y="1043" type="line"/>
      <point x="158" y="796" type="line"/>
      <point x="581" y="547" type="line"/>
      <point x="78" y="294" type="line"/>
    </contour>
  </outline>
</glyph>
<glyph name="question" format="1">
  <advance width="1246"/>
  <unicode hex="003F"/>
  <outline>
    <contour>
      <point x="380" y="431" type="line"/>
      <point x="650" y="431" type="line"/>
      <point x="834" y="541" type="line" smooth="yes"/>
      <point x="1055" y="684"/>
      <point x="1141" y="821"/>
      <point x="1175" y="1039" type="curve" smooth="yes"/>
      <point x="1216" y="1296"/>
      <point x="1193" y="1521"/>
      <point x="717" y="1521" type="curve" smooth="yes"/>
      <point x="229" y="1521"/>
      <point x="181" y="1270"/>
      <point x="141" y="1015" type="curve" smooth="yes"/>
      <point x="125" y="916" type="line"/>
      <point x="445" y="916" type="line"/>
      <point x="462" y="1020" type="line" smooth="yes"/>
      <point x="484" y="1166"/>
      <point x="482" y="1263"/>
      <point x="676" y="1263" type="curve" smooth="yes"/>
      <point x="866" y="1263"/>
      <point x="851" y="1132"/>
      <point x="834" y="1028" type="curve" smooth="yes"/>
      <point x="814" y="906"/>
      <point x="778" y="831"/>
      <point x="656" y="707" type="curve" smooth="yes"/>
    </contour>
    <contour>
      <point x="302" y="0" type="line"/>
      <point x="578" y="0" type="line"/>
      <point x="621" y="268" type="line"/>
      <point x="345" y="268" type="line"/>
    </contour>
  </outline>
</glyph>
<glyph name="at" format="1">
  <advance width="2048"/>
  <unicode hex="0040"/>
  <outline>
    <contour>
      <point x="902" y="-608" type="curve" smooth="yes"/>
      <point x="1159" y="-608"/>
      <point x="1436" y="-553"/>
      <point x="1667" y="-505" type="curve"/>
      <point x="1643" y="-265" type="line"/>
      <point x="1440" y="-293"/>
      <point x="1198" y="-343"/>
      <point x="984" y="-343" type="curve" smooth="yes"/>
      <point x="635" y="-343"/>
      <point x="353" y="-208"/>
      <point x="451" y="402" type="curve" smooth="yes"/>
      <point x="486" y="624" type="line" smooth="yes"/>
      <point x="587" y="1260"/>
      <point x="795" y="1313"/>
      <point x="1192" y="1313" type="curve" smooth="yes"/>
      <point x="1546" y="1313"/>
      <point x="1601" y="1190"/>
      <point x="1549" y="859" type="curve"/>
      <point x="1550" y="859"/>
      <point x="1138" y="761"/>
      <point x="1154" y="765" type="curve" smooth="yes"/>
      <point x="788" y="667"/>
      <point x="729" y="519"/>
      <point x="704" y="365" type="curve" smooth="yes"/>
      <point x="658" y="85"/>
      <point x="863" y="-32"/>
      <point x="1066" y="-32" type="curve" smooth="yes"/>
      <point x="1189" y="-32"/>
      <point x="1370" y="13"/>
      <point x="1455" y="107" type="curve"/>
      <point x="1486" y="27"/>
      <point x="1515" y="-33"/>
      <point x="1669" y="-33" type="curve" smooth="yes"/>
      <point x="1815" y="-33" type="line"/>
      <point x="1870" y="198" type="line"/>
      <point x="1783" y="198"/>
      <point x="1775" y="237"/>
      <point x="1793" y="343" type="curve" smooth="yes"/>
      <point x="1791" y="336"/>
      <point x="1905" y="1079"/>
      <point x="1861" y="798" type="curve" smooth="yes"/>
      <point x="1958" y="1411"/>
      <point x="1718" y="1547"/>
      <point x="1155" y="1547" type="curve" smooth="yes"/>
      <point x="592" y="1547"/>
      <point x="295" y="1274"/>
      <point x="202" y="695" type="curve" smooth="yes"/>
      <point x="148" y="358" type="line" smooth="yes"/>
      <point x="23" y="-433"/>
      <point x="446" y="-608"/>
    </contour>
    <contour>
      <point x="1166" y="221" type="curve" smooth="yes"/>
      <point x="1068" y="221"/>
      <point x="974" y="255"/>
      <point x="992" y="377" type="curve" smooth="yes"/>
      <point x="1006" y="497"/>
      <point x="1058" y="570"/>
      <point x="1230" y="616" type="curve" smooth="yes"/>
      <point x="1214" y="612"/>
      <point x="1529" y="696"/>
      <point x="1525" y="695" type="curve"/>
      <point x="1461" y="290" type="line"/>
      <point x="1462" y="273"/>
      <point x="1286" y="221"/>
    </contour>
  </outline>
</glyph>
<glyph name="A" format="1">
  <advance width="1607"/>
  <unicode hex="0041"/>
  <outline>
    <contour>
      <point x="938" y="1494" type="move" name="top"/>
    </contour>
    <contour>
      <point x="1172" y="0" type="move" name="ogonek"/>
    </contour>
    <contour>
      <point x="-35" y="0" type="line"/>
      <point x="330" y="0" type="line"/>
      <point x="454" y="280" type="line"/>
      <point x="1001" y="280" type="line"/>
      <point x="1030" y="0" type="line"/>
      <point x="1406" y="0" type="line"/>
      <point x="1179" y="1494" type="line"/>
      <point x="655" y="1494" type="line"/>
    </contour>
    <contour>
      <point x="555" y="511" type="line"/>
      <point x="888" y="1262" type="line"/>
      <point x="973" y="511" type="line"/>
    </contour>
  </outline>
</glyph>
<glyph name="B" format="1">
  <advance width="1536"/>
  <unicode hex="0042"/>
  <outline>
    <contour>
      <point x="899" y="1494" type="move" name="top"/>
    </contour>
    <contour>
      <point x="90" y="0" type="line"/>
      <point x="773" y="0" type="line" smooth="yes"/>
      <point x="1148" y="0"/>
      <point x="1327" y="148"/>
      <point x="1366" y="470" type="curve" smooth="yes"/>
      <point x="1398" y="669"/>
      <point x="1393" y="801"/>
      <point x="1170" y="823" type="curve"/>
      <point x="1343" y="857"/>
      <point x="1384" y="948"/>
      <point x="1408" y="1111" type="curve" smooth="yes"/>
      <point x="1452" y="1384"/>
      <point x="1341" y="1494"/>
      <point x="921" y="1494" type="curve" smooth="yes"/>
      <point x="327" y="1494" type="line"/>
    </contour>
    <contour>
      <point x="483" y="243" type="line"/>
      <point x="555" y="707" type="line"/>
      <point x="824" y="707" type="line" smooth="yes"/>
      <point x="1047" y="707"/>
      <point x="1035" y="624"/>
      <point x="1011" y="468" type="curve" smooth="yes"/>
      <point x="982" y="282"/>
      <point x="968" y="243"/>
      <point x="733" y="243" type="curve" smooth="yes"/>
    </contour>
    <contour>
      <point x="589" y="911" type="line"/>
      <point x="644" y="1260" type="line"/>
      <point x="872" y="1260" type="line" smooth="yes"/>
      <point x="1048" y="1260"/>
      <point x="1065" y="1230"/>
      <point x="1045" y="1108" type="curve" smooth="yes"/>
      <point x="1023" y="973"/>
      <point x="1025" y="911"/>
      <point x="858" y="911" type="curve" smooth="yes"/>
    </contour>
  </outline>
</glyph>
<glyph name="C" format="1">
  <advance width="1541"/>
  <unicode hex="0043"/>
  <outline>
    <contour>
      <point x="920" y="1494" type="move" name="top"/>
    </contour>
    <contour>
      <point x="647" y="0" type="move" name="bot"/>
    </contour>
    <contour>
      <point x="681" y="-28" type="curve" smooth="yes"/>
      <point x="1225" y="-28"/>
      <point x="1329" y="216"/>
      <point x="1373" y="505" type="curve" smooth="yes"/>
      <point x="1373" y="503"/>
      <point x="1379" y="544"/>
      <point x="1379" y="542" type="curve"/>
      <point x="1028" y="542" type="line"/>
      <point x="1029" y="547"/>
      <point x="1018" y="477"/>
      <point x="1019" y="482" type="curve" smooth="yes"/>
      <point x="994" y="301"/>
      <point x="934" y="247"/>
      <point x="724" y="247" type="curve" smooth="yes"/>
      <point x="523" y="247"/>
      <point x="440" y="284"/>
      <point x="467" y="453" type="curve" smooth="yes"/>
      <point x="558" y="1033" type="line" smooth="yes"/>
      <point x="587" y="1204"/>
      <point x="685" y="1245"/>
      <point x="885" y="1245" type="curve" smooth="yes"/>
      <point x="1090" y="1245"/>
      <point x="1133" y="1179"/>
      <point x="1103" y="1005" type="curve" smooth="yes"/>
      <point x="1103" y="1011"/>
      <point x="1085" y="896"/>
      <point x="1086" y="902" type="curve"/>
      <point x="1444" y="946" type="line"/>
      <point x="1443" y="943"/>
      <point x="1447" y="969"/>
      <point x="1447" y="967" type="curve" smooth="yes"/>
      <point x="1496" y="1265"/>
      <point x="1472" y="1521"/>
      <point x="928" y="1521" type="curve" smooth="yes"/>
      <point x="373" y="1521"/>
      <point x="246" y="1292"/>
      <point x="200" y="999" type="curve" smooth="yes"/>
      <point x="118" y="483" type="line" smooth="yes"/>
      <point x="73" y="198"/>
      <point x="130" y="-28"/>
    </contour>
  </outline>
</glyph>
<glyph name="D" format="1">
  <advance width="1589"/>
  <unicode hex="0044"/>
  <outline>
    <contour>
      <point x="935" y="1494" type="move" name="top"/>
    </contour>
    <contour>
      <point x="393" y="792" type="move" name="mid"/>
    </contour>
    <contour>
      <point x="489" y="280" type="line"/>
      <point x="636" y="1215" type="line"/>
      <point x="932" y="1215" type="line" smooth="yes"/>
      <point x="1138" y="1215"/>
      <point x="1133" y="1113"/>
      <point x="1117" y="1017" type="curve" smooth="yes"/>
      <point x="1032" y="475" type="line" smooth="yes"/>
      <point x="1016" y="372"/>
      <point x="995" y="280"/>
      <point x="785" y="280" type="curve" smooth="yes"/>
    </contour>
    <contour>
      <point x="90" y="0" type="line"/>
      <point x="770" y="0" type="line" smooth="yes"/>
      <point x="1214" y="0"/>
      <point x="1350" y="239"/>
      <point x="1395" y="524" type="curve" smooth="yes"/>
      <point x="1463" y="962" type="line" smooth="yes"/>
      <point x="1511" y="1259"/>
      <point x="1450" y="1494"/>
      <point x="1006" y="1494" type="curve" smooth="yes"/>
      <point x="327" y="1494" type="line"/>
    </contour>
  </outline>
</glyph>
<glyph name="E" format="1">
  <advance width="1353"/>
  <unicode hex="0045"/>
  <outline>
    <contour>
      <point x="901" y="1494" type="move" name="top"/>
    </contour>
    <contour>
      <point x="803" y="0" type="move" name="ogonek"/>
    </contour>
    <contour>
      <point x="668" y="0" type="move" name="bot"/>
    </contour>
    <contour>
      <point x="90" y="0" type="line"/>
      <point x="1106" y="0" type="line"/>
      <point x="1149" y="268" type="line"/>
      <point x="486" y="268" type="line"/>
      <point x="542" y="632" type="line"/>
      <point x="1122" y="632" type="line"/>
      <point x="1163" y="884" type="line"/>
      <point x="583" y="884" type="line"/>
      <point x="636" y="1226" type="line"/>
      <point x="1289" y="1226" type="line"/>
      <point x="1332" y="1494" type="line"/>
      <point x="327" y="1494" type="line"/>
    </contour>
  </outline>
</glyph>
<glyph name="F" format="1">
  <advance width="1217"/>
  <unicode hex="0046"/>
  <outline>
    <contour>
      <point x="841" y="1494" type="move" name="top"/>
    </contour>
    <contour>
      <point x="90" y="0" type="line"/>
      <point x="445" y="0" type="line"/>
      <point x="543" y="616" type="line"/>
      <point x="1080" y="616" type="line"/>
      <point x="1119" y="867" type="line"/>
      <point x="582" y="867" type="line"/>
      <point x="638" y="1221" type="line"/>
      <point x="1220" y="1221" type="line"/>
      <point x="1263" y="1494" type="line"/>
      <point x="327" y="1494" type="line"/>
    </contour>
  </outline>
</glyph>
<glyph name="G" format="1">
  <advance width="1663"/>
  <unicode hex="0047"/>
  <outline>
    <contour>
      <point x="969" y="1494" type="move" name="top"/>
    </contour>
    <contour>
      <point x="644" y="0" type="move" name="bot"/>
    </contour>
    <contour>
      <point x="718" y="-28" type="curve" smooth="yes"/>
      <point x="1057" y="-28"/>
      <point x="1117" y="143"/>
      <point x="1123" y="124" type="curve"/>
      <point x="1164" y="0" type="line"/>
      <point x="1349" y="0" type="line"/>
      <point x="1471" y="770" type="line"/>
      <point x="892" y="770" type="line"/>
      <point x="856" y="546" type="line"/>
      <point x="1127" y="546" type="line"/>
      <point x="1113" y="453" type="line" smooth="yes"/>
      <point x="1086" y="284"/>
      <point x="967" y="247"/>
      <point x="762" y="247" type="curve" smooth="yes"/>
      <point x="560" y="247"/>
      <point x="439" y="284"/>
      <point x="466" y="453" type="curve" smooth="yes"/>
      <point x="558" y="1033" type="line" smooth="yes"/>
      <point x="586" y="1204"/>
      <point x="720" y="1245"/>
      <point x="920" y="1245" type="curve" smooth="yes"/>
      <point x="1114" y="1245"/>
      <point x="1193" y="1183"/>
      <point x="1161" y="1011" type="curve" smooth="yes"/>
      <point x="1162" y="1018"/>
      <point x="1148" y="931"/>
      <point x="1150" y="939" type="curve"/>
      <point x="1510" y="965" type="line"/>
      <point x="1509" y="959"/>
      <point x="1515" y="991"/>
      <point x="1514" y="985" type="curve" smooth="yes"/>
      <point x="1565" y="1285"/>
      <point x="1506" y="1521"/>
      <point x="964" y="1521" type="curve" smooth="yes"/>
      <point x="408" y="1521"/>
      <point x="243" y="1292"/>
      <point x="198" y="999" type="curve" smooth="yes"/>
      <point x="116" y="483" type="line" smooth="yes"/>
      <point x="71" y="198"/>
      <point x="166" y="-28"/>
    </contour>
  </outline>
</glyph>
<glyph name="H" format="1">
  <advance width="1752"/>
  <unicode hex="0048"/>
  <outline>
    <contour>
      <point x="1021" y="1494" type="move" name="top"/>
    </contour>
    <contour>
      <point x="94" y="0" type="line"/>
      <point x="450" y="0" type="line"/>
      <point x="544" y="589" type="line"/>
      <point x="1159" y="589" type="line"/>
      <point x="1066" y="0" type="line"/>
      <point x="1422" y="0" type="line"/>
      <point x="1658" y="1494" type="line"/>
      <point x="1302" y="1494" type="line"/>
      <point x="1203" y="873" type="line"/>
      <point x="588" y="873" type="line"/>
      <point x="686" y="1494" type="line"/>
      <point x="330" y="1494" type="line"/>
    </contour>
  </outline>
</glyph>
<glyph name="I" format="1">
  <advance width="1158"/>
  <unicode hex="0049"/>
  <outline>
    <contour>
      <point x="731" y="1494" type="move" name="top"/>
    </contour>
    <contour>
      <point x="430" y="0" type="move" name="ogonek"/>
    </contour>
    <contour>
      <point x="21" y="0" type="line"/>
      <point x="901" y="0" type="line"/>
      <point x="942" y="265" type="line"/>
      <point x="680" y="265" type="line"/>
      <point x="833" y="1230" type="line"/>
      <point x="1095" y="1230" type="line"/>
      <point x="1137" y="1494" type="line"/>
      <point x="257" y="1494" type="line"/>
      <point x="215" y="1230" type="line"/>
      <point x="480" y="1230" type="line"/>
      <point x="327" y="265" type="line"/>
      <point x="62" y="265" type="line"/>
    </contour>
  </outline>
</glyph>
<glyph name="J" format="1">
  <advance width="1232"/>
  <unicode hex="004A"/>
  <outline>
    <contour>
      <point x="753" y="1494" type="move" name="top"/>
    </contour>
    <contour>
      <point x="372" y="-30" type="curve" smooth="yes"/>
      <point x="707" y="-30"/>
      <point x="969" y="127"/>
      <point x="1015" y="417" type="curve" smooth="yes"/>
      <point x="1186" y="1494" type="line"/>
      <point x="350" y="1494" type="line"/>
      <point x="308" y="1231" type="line"/>
      <point x="789" y="1231" type="line"/>
      <point x="665" y="445" type="line" smooth="yes"/>
      <point x="651" y="352"/>
      <point x="572" y="246"/>
      <point x="389" y="246" type="curve" smooth="yes"/>
      <point x="310" y="246"/>
      <point x="181" y="265"/>
      <point x="65" y="324" type="curve"/>
      <point x="-54" y="65" type="line"/>
      <point x="102" y="-12"/>
      <point x="243" y="-30"/>
    </contour>
  </outline>
</glyph>
<glyph name="K" format="1">
  <advance width="1501"/>
  <unicode hex="004B"/>
  <outline>
    <contour>
      <point x="888" y="1494" type="move" name="top"/>
    </contour>
    <contour>
      <point x="708" y="0" type="move" name="bot"/>
    </contour>
    <contour>
      <point x="90" y="0" type="line"/>
      <point x="445" y="0" type="line"/>
      <point x="537" y="585" type="line"/>
      <point x="643" y="672" type="line"/>
      <point x="986" y="0" type="line"/>
      <point x="1389" y="0" type="line"/>
      <point x="972" y="808" type="line"/>
      <point x="1583" y="1494" type="line"/>
      <point x="1189" y="1494" type="line"/>
      <point x="1351" y="1652"/>
      <point x="415" y="660"/>
      <point x="574" y="822" type="curve"/>
      <point x="681" y="1494" type="line"/>
      <point x="327" y="1494" type="line"/>
    </contour>
  </outline>
</glyph>
<glyph name="L" format="1">
  <advance width="1223"/>
  <unicode hex="004C"/>
  <outline>
    <contour>
      <point x="472" y="1494" type="move" name="top"/>
    </contour>
    <contour>
      <point x="559" y="0" type="move" name="bot"/>
    </contour>
    <contour>
      <point x="515" y="863" type="move" name="mid"/>
    </contour>
    <contour>
      <point x="90" y="0" type="line"/>
      <point x="1043" y="0" type="line"/>
      <point x="1087" y="278" type="line"/>
      <point x="489" y="278" type="line"/>
      <point x="681" y="1494" type="line"/>
      <point x="327" y="1494" type="line"/>
    </contour>
  </outline>
</glyph>
<glyph name="M" format="1">
  <advance width="2002"/>
  <unicode hex="004D"/>
  <outline>
    <contour>
      <point x="1161" y="1494" type="move" name="top"/>
    </contour>
    <contour>
      <point x="90" y="0" type="line"/>
      <point x="420" y="0" type="line"/>
      <point x="589" y="1069" type="line"/>
      <point x="833" y="412" type="line"/>
      <point x="1062" y="412" type="line"/>
      <point x="1515" y="1073" type="line"/>
      <point x="1345" y="0" type="line"/>
      <point x="1675" y="0" type="line"/>
      <point x="1912" y="1494" type="line"/>
      <point x="1486" y="1494" type="line"/>
      <point x="1015" y="835" type="line"/>
      <point x="739" y="1494" type="line"/>
      <point x="327" y="1494" type="line"/>
    </contour>
  </outline>
</glyph>
<glyph name="N" format="1">
  <advance width="1728"/>
  <unicode hex="004E"/>
  <outline>
    <contour>
      <point x="1022" y="1494" type="move" name="top"/>
    </contour>
    <contour>
      <point x="847" y="0" type="move" name="bot"/>
    </contour>
    <contour>
      <point x="90" y="0" type="line"/>
      <point x="411" y="0" type="line"/>
      <point x="559" y="931" type="line"/>
      <point x="1152" y="0" type="line"/>
      <point x="1402" y="0" type="line"/>
      <point x="1638" y="1494" type="line"/>
      <point x="1322" y="1494" type="line"/>
      <point x="1176" y="568" type="line"/>
      <point x="592" y="1494" type="line"/>
      <point x="327" y="1494" type="line"/>
    </contour>
  </outline>
</glyph>
<glyph name="O" format="1">
  <advance width="1668"/>
  <unicode hex="004F"/>
  <outline>
    <contour>
      <point x="964" y="1494" type="move" name="top"/>
    </contour>
    <contour>
      <point x="804" y="0" type="move" name="ogonek"/>
    </contour>
    <contour>
      <point x="767" y="247" type="curve" smooth="yes"/>
      <point x="565" y="247"/>
      <point x="443" y="305"/>
      <point x="469" y="476" type="curve" smooth="yes"/>
      <point x="556" y="1018" type="line" smooth="yes"/>
      <point x="583" y="1187"/>
      <point x="726" y="1245"/>
      <point x="925" y="1245" type="curve" smooth="yes"/>
      <point x="1127" y="1245"/>
      <point x="1222" y="1181"/>
      <point x="1197" y="1018" type="curve" smooth="yes"/>
      <point x="1111" y="476" type="line" smooth="yes"/>
      <point x="1084" y="306"/>
      <point x="970" y="247"/>
    </contour>
    <contour>
      <point x="723" y="-28" type="curve" smooth="yes"/>
      <point x="1257" y="-28"/>
      <point x="1430" y="241"/>
      <point x="1475" y="527" type="curve" smooth="yes"/>
      <point x="1544" y="960" type="line" smooth="yes"/>
      <point x="1591" y="1255"/>
      <point x="1505" y="1521"/>
      <point x="969" y="1521" type="curve" smooth="yes"/>
      <point x="407" y="1521"/>
      <point x="240" y="1271"/>
      <point x="194" y="976" type="curve" smooth="yes"/>
      <point x="121" y="510" type="line" smooth="yes"/>
      <point x="74" y="223"/>
      <point x="163" y="-28"/>
    </contour>
  </outline>
</glyph>
<glyph name="P" format="1">
  <advance width="1457"/>
  <unicode hex="0050"/>
  <outline>
    <contour>
      <point x="853" y="1494" type="move" name="top"/>
    </contour>
    <contour>
      <point x="90" y="0" type="line"/>
      <point x="444" y="0" type="line"/>
      <point x="523" y="497" type="line"/>
      <point x="704" y="497" type="line" smooth="yes"/>
      <point x="1174" y="497"/>
      <point x="1304" y="674"/>
      <point x="1358" y="1013" type="curve" smooth="yes"/>
      <point x="1411" y="1347"/>
      <point x="1282" y="1494"/>
      <point x="906" y="1494" type="curve" smooth="yes"/>
      <point x="327" y="1494" type="line"/>
    </contour>
    <contour>
      <point x="563" y="752" type="line"/>
      <point x="641" y="1248" type="line"/>
      <point x="908" y="1248" type="line" smooth="yes"/>
      <point x="1023" y="1248"/>
      <point x="1057" y="1161"/>
      <point x="1033" y="998" type="curve" smooth="yes"/>
      <point x="1002" y="804"/>
      <point x="952" y="752"/>
      <point x="817" y="752" type="curve" smooth="yes"/>
    </contour>
  </outline>
</glyph>
<glyph name="Q" format="1">
  <advance width="1670"/>
  <unicode hex="0051"/>
  <outline>
    <contour>
      <point x="893" y="-624" type="line"/>
      <point x="1131" y="-497" type="line"/>
      <point x="927" y="-20" type="line"/>
      <point x="1338" y="29"/>
      <point x="1483" y="272"/>
      <point x="1523" y="527" type="curve" smooth="yes"/>
      <point x="1592" y="960" type="line" smooth="yes"/>
      <point x="1638" y="1255"/>
      <point x="1551" y="1521"/>
      <point x="1015" y="1521" type="curve" smooth="yes"/>
      <point x="454" y="1521"/>
      <point x="287" y="1271"/>
      <point x="241" y="976" type="curve" smooth="yes"/>
      <point x="167" y="510" type="line" smooth="yes"/>
      <point x="126" y="254"/>
      <point x="194" y="24"/>
      <point x="611" y="-21" type="curve"/>
    </contour>
    <contour>
      <point x="814" y="247" type="curve" smooth="yes"/>
      <point x="612" y="247"/>
      <point x="489" y="305"/>
      <point x="518" y="476" type="curve" smooth="yes"/>
      <point x="603" y="1018" type="line" smooth="yes"/>
      <point x="629" y="1187"/>
      <point x="772" y="1245"/>
      <point x="972" y="1245" type="curve" smooth="yes"/>
      <point x="1173" y="1245"/>
      <point x="1271" y="1181"/>
      <point x="1244" y="1018" type="curve" smooth="yes"/>
      <point x="1159" y="476" type="line" smooth="yes"/>
      <point x="1132" y="306"/>
      <point x="1018" y="247"/>
    </contour>
  </outline>
</glyph>
<glyph name="R" format="1">
  <advance width="1560"/>
  <unicode hex="0052"/>
  <outline>
    <contour>
      <point x="837" y="1494" type="move" name="top"/>
    </contour>
    <contour>
      <point x="727" y="0" type="move" name="bot"/>
    </contour>
    <contour>
      <point x="90" y="0" type="line"/>
      <point x="444" y="0" type="line"/>
      <point x="534" y="573" type="line"/>
      <point x="534" y="573"/>
      <point x="801" y="573"/>
      <point x="795" y="573" type="curve"/>
      <point x="947" y="0" type="line"/>
      <point x="1316" y="0" type="line"/>
      <point x="1142" y="620" type="line"/>
      <point x="1372" y="706"/>
      <point x="1410" y="894"/>
      <point x="1434" y="1045" type="curve" smooth="yes"/>
      <point x="1471" y="1277"/>
      <point x="1440" y="1494"/>
      <point x="959" y="1494" type="curve" smooth="yes"/>
      <point x="327" y="1494" type="line"/>
    </contour>
    <contour>
      <point x="574" y="821" type="line"/>
      <point x="641" y="1248" type="line"/>
      <point x="975" y="1248" type="line" smooth="yes"/>
      <point x="1102" y="1248"/>
      <point x="1117" y="1144"/>
      <point x="1099" y="1035" type="curve" smooth="yes"/>
      <point x="1081" y="917"/>
      <point x="1040" y="821"/>
      <point x="902" y="821" type="curve" smooth="yes"/>
    </contour>
  </outline>
</glyph>
<glyph name="S" format="1">
  <advance width="1267"/>
  <unicode hex="0053"/>
  <outline>
    <contour>
      <point x="785" y="1494" type="move" name="top"/>
    </contour>
    <contour>
      <point x="608" y="0" type="move" name="bot"/>
    </contour>
    <contour>
      <point x="563" y="-28" type="curve" smooth="yes"/>
      <point x="901" y="-28"/>
      <point x="1083" y="192"/>
      <point x="1122" y="432" type="curve" smooth="yes"/>
      <point x="1160" y="671"/>
      <point x="1075" y="812"/>
      <point x="884" y="869" type="curve" smooth="yes"/>
      <point x="709" y="915" type="line" smooth="yes"/>
      <point x="550" y="961"/>
      <point x="501" y="1002"/>
      <point x="522" y="1111" type="curve" smooth="yes"/>
      <point x="541" y="1207"/>
      <point x="621" y="1245"/>
      <point x="745" y="1245" type="curve" smooth="yes"/>
      <point x="862" y="1245"/>
      <point x="989" y="1212"/>
      <point x="1105" y="1157" type="curve"/>
      <point x="1248" y="1397" type="line"/>
      <point x="1100" y="1489"/>
      <point x="931" y="1521"/>
      <point x="768" y="1521" type="curve" smooth="yes"/>
      <point x="468" y="1521"/>
      <point x="214" y="1371"/>
      <point x="170" y="1097" type="curve" smooth="yes"/>
      <point x="142" y="913"/>
      <point x="165" y="722"/>
      <point x="420" y="648" type="curve" smooth="yes"/>
      <point x="605" y="599" type="line" smooth="yes"/>
      <point x="816" y="536"/>
      <point x="810" y="460"/>
      <point x="787" y="362" type="curve" smooth="yes"/>
      <point x="772" y="312"/>
      <point x="729" y="247"/>
      <point x="598" y="247" type="curve" smooth="yes"/>
      <point x="412" y="247"/>
      <point x="271" y="303"/>
      <point x="165" y="360" type="curve"/>
      <point x="4" y="105" type="line"/>
      <point x="137" y="25"/>
      <point x="371" y="-28"/>
    </contour>
  </outline>
</glyph>
<glyph name="T" format="1">
  <advance width="1188"/>
  <unicode hex="0054"/>
  <outline>
    <contour>
      <point x="711" y="1494" type="move" name="top"/>
    </contour>
    <contour>
      <point x="441" y="0" type="move" name="bot"/>
    </contour>
    <contour>
      <point x="606" y="767" type="move" name="mid"/>
    </contour>
    <contour>
      <point x="300" y="0" type="line"/>
      <point x="653" y="0" type="line"/>
      <point x="848" y="1231" type="line"/>
      <point x="1254" y="1231" type="line"/>
      <point x="1296" y="1494" type="line"/>
      <point x="129" y="1494" type="line"/>
      <point x="87" y="1231" type="line"/>
      <point x="495" y="1231" type="line"/>
    </contour>
  </outline>
</glyph>
<glyph name="U" format="1">
  <advance width="1647"/>
  <unicode hex="0055"/>
  <outline>
    <contour>
      <point x="973" y="1494" type="move" name="top"/>
    </contour>
    <contour>
      <point x="802" y="0" type="move" name="ogonek"/>
    </contour>
    <contour>
      <point x="711" y="-28" type="curve" smooth="yes"/>
      <point x="1236" y="-28"/>
      <point x="1375" y="195"/>
      <point x="1420" y="484" type="curve" smooth="yes"/>
      <point x="1580" y="1496" type="line"/>
      <point x="1226" y="1496" type="line"/>
      <point x="1061" y="457" type="line" smooth="yes"/>
      <point x="1039" y="309"/>
      <point x="966" y="247"/>
      <point x="755" y="247" type="curve" smooth="yes"/>
      <point x="548" y="247"/>
      <point x="473" y="304"/>
      <point x="497" y="457" type="curve" smooth="yes"/>
      <point x="662" y="1496" type="line"/>
      <point x="308" y="1496" type="line"/>
      <point x="144" y="465" type="line" smooth="yes"/>
      <point x="100" y="176"/>
      <point x="187" y="-28"/>
    </contour>
  </outline>
</glyph>
<glyph name="V" format="1">
  <advance width="1543"/>
  <unicode hex="0056"/>
  <outline>
    <contour>
      <point x="423" y="0" type="line"/>
      <point x="893" y="0" type="line"/>
      <point x="1649" y="1494" type="line"/>
      <point x="1270" y="1494" type="line"/>
      <point x="709" y="283" type="line"/>
      <point x="509" y="1494" type="line"/>
      <point x="131" y="1494" type="line"/>
    </contour>
  </outline>
</glyph>
<glyph name="W" format="1">
  <advance width="1994"/>
  <unicode hex="0057"/>
  <outline>
    <contour>
      <point x="1090" y="1494" type="move" name="top"/>
    </contour>
    <contour>
      <point x="284" y="0" type="line"/>
      <point x="618" y="0" type="line"/>
      <point x="1014" y="946" type="line"/>
      <point x="1158" y="0" type="line"/>
      <point x="1465" y="0" type="line"/>
      <point x="2067" y="1494" type="line"/>
      <point x="1726" y="1494" type="line"/>
      <point x="1384" y="538" type="line"/>
      <point x="1232" y="1494" type="line"/>
      <point x="963" y="1494" type="line"/>
      <point x="562" y="520" type="line"/>
      <point x="502" y="1494" type="line"/>
      <point x="163" y="1494" type="line"/>
    </contour>
  </outline>
</glyph>
<glyph name="X" format="1">
  <advance width="1362"/>
  <unicode hex="0058"/>
  <outline>
    <contour>
      <point x="-114" y="0" type="line"/>
      <point x="255" y="0" type="line"/>
      <point x="624" y="461" type="line"/>
      <point x="847" y="0" type="line"/>
      <point x="1239" y="0" type="line"/>
      <point x="866" y="758" type="line"/>
      <point x="1457" y="1494" type="line"/>
      <point x="1063" y="1494" type="line"/>
      <point x="718" y="1056" type="line"/>
      <point x="501" y="1494" type="line"/>
      <point x="129" y="1494" type="line"/>
      <point x="484" y="758" type="line"/>
    </contour>
  </outline>
</glyph>
<glyph name="Y" format="1">
  <advance width="1353"/>
  <unicode hex="0059"/>
  <outline>
    <contour>
      <point x="821" y="1494" type="move" name="top"/>
    </contour>
    <contour>
      <point x="389" y="0" type="line"/>
      <point x="742" y="0" type="line"/>
      <point x="832" y="566" type="line"/>
      <point x="1471" y="1494" type="line"/>
      <point x="1116" y="1494" type="line"/>
      <point x="715" y="928" type="line"/>
      <point x="491" y="1494" type="line"/>
      <point x="118" y="1494" type="line"/>
      <point x="479" y="566" type="line"/>
    </contour>
  </outline>
</glyph>
<glyph name="Z" format="1">
  <advance width="1210"/>
  <unicode hex="005A"/>
  <outline>
    <contour>
      <point x="831" y="1494" type="move" name="top"/>
    </contour>
    <contour>
      <point x="-31" y="0" type="line"/>
      <point x="1048" y="0" type="line"/>
      <point x="1085" y="237" type="line"/>
      <point x="426" y="237" type="line"/>
      <point x="1243" y="1298" type="line"/>
      <point x="1273" y="1494" type="line"/>
      <point x="227" y="1494" type="line"/>
      <point x="187" y="1244" type="line"/>
      <point x="816" y="1244" type="line"/>
      <point x="-1" y="193" type="line"/>
    </contour>
  </outline>
</glyph>
<glyph name="bracketleft" format="1">
  <advance width="886"/>
  <unicode hex="005B"/>
  <outline>
    <contour>
      <point x="49" y="-97" type="line"/>
      <point x="593" y="-97" type="line"/>
      <point x="621" y="80" type="line"/>
      <point x="400" y="80" type="line"/>
      <point x="619" y="1452" type="line"/>
      <point x="839" y="1452" type="line"/>
      <point x="867" y="1630" type="line"/>
      <point x="322" y="1630" type="line"/>
    </contour>
  </outline>
</glyph>
<glyph name="backslash" format="1">
  <advance width="1178"/>
  <unicode hex="005C"/>
  <outline>
    <contour>
      <point x="647" y="0" type="line"/>
      <point x="926" y="0" type="line"/>
      <point x="528" y="1522" type="line"/>
      <point x="252" y="1522" type="line"/>
    </contour>
  </outline>
</glyph>
<glyph name="bracketright" format="1">
  <advance width="886"/>
  <unicode hex="005D"/>
  <outline>
    <contour>
      <point x="-20" y="-97" type="line"/>
      <point x="524" y="-97" type="line"/>
      <point x="798" y="1630" type="line"/>
      <point x="253" y="1630" type="line"/>
      <point x="226" y="1453" type="line"/>
      <point x="448" y="1453" type="line"/>
      <point x="229" y="81" type="line"/>
      <point x="7" y="81" type="line"/>
    </contour>
  </outline>
</glyph>
<glyph name="asciicircum" format="1">
  <advance width="1257"/>
  <unicode hex="005E"/>
  <outline>
    <contour>
      <point x="-31" y="442" type="line"/>
      <point x="232" y="442" type="line"/>
      <point x="653" y="1083" type="line"/>
      <point x="869" y="442" type="line"/>
      <point x="1117" y="442" type="line"/>
      <point x="817" y="1283" type="line"/>
      <point x="536" y="1283" type="line"/>
    </contour>
  </outline>
</glyph>
<glyph name="underscore" format="1">
  <advance width="889"/>
  <unicode hex="005F"/>
  <outline>
    <contour>
      <point x="-11" y="11" type="line"/>
      <point x="861" y="11" type="line"/>
      <point x="892" y="201" type="line"/>
      <point x="20" y="201" type="line"/>
    </contour>
  </outline>
</glyph>
<glyph name="grave" format="1">
  <advance width="520"/>
  <unicode hex="0060"/>
  <outline>
    <contour>
      <point x="380" y="1082" type="move" name="_top"/>
    </contour>
    <contour>
      <point x="135" y="1582" type="line"/>
      <point x="310" y="1226" type="line"/>
      <point x="472" y="1226" type="line"/>
      <point x="429" y="1582" type="line"/>
    </contour>
  </outline>
</glyph>
<glyph name="a" format="1">
  <advance width="1176"/>
  <unicode hex="0061"/>
  <outline>
    <contour>
      <point x="686" y="1082" type="move" name="top"/>
    </contour>
    <contour>
      <point x="891" y="-6" type="move" name="ogonek"/>
    </contour>
    <contour>
      <point x="318" y="-24" type="curve" smooth="yes"/>
      <point x="452" y="-24"/>
      <point x="574" y="9"/>
      <point x="667" y="118" type="curve"/>
      <point x="686" y="39"/>
      <point x="752" y="-8"/>
      <point x="922" y="-8" type="curve" smooth="yes"/>
      <point x="1047" y="-8" type="line"/>
      <point x="1087" y="222" type="line"/>
      <point x="985" y="222"/>
      <point x="977" y="242"/>
      <point x="990" y="332" type="curve" smooth="yes"/>
      <point x="1055" y="741" type="line" smooth="yes"/>
      <point x="1092" y="965"/>
      <point x="996" y="1107"/>
      <point x="650" y="1107" type="curve" smooth="yes"/>
      <point x="347" y="1107"/>
      <point x="191" y="948"/>
      <point x="158" y="741" type="curve" smooth="yes"/>
      <point x="155" y="718" type="line"/>
      <point x="454" y="718" type="line"/>
      <point x="460" y="757" type="line" smooth="yes"/>
      <point x="474" y="839"/>
      <point x="520" y="890"/>
      <point x="610" y="890" type="curve" smooth="yes"/>
      <point x="704" y="890"/>
      <point x="762" y="883"/>
      <point x="748" y="797" type="curve"/>
      <point x="734" y="707"/>
      <point x="692" y="700"/>
      <point x="626" y="677" type="curve" smooth="yes"/>
      <point x="430" y="612" type="line" smooth="yes"/>
      <point x="190" y="532"/>
      <point x="77" y="420"/>
      <point x="54" y="293" type="curve" smooth="yes"/>
      <point x="19" y="96"/>
      <point x="148" y="-24"/>
    </contour>
    <contour>
      <point x="441" y="187" type="curve" smooth="yes"/>
      <point x="417" y="187"/>
      <point x="358" y="211"/>
      <point x="363" y="288" type="curve" smooth="yes"/>
      <point x="366" y="341"/>
      <point x="403" y="406"/>
      <point x="490" y="439" type="curve" smooth="yes"/>
      <point x="703" y="519" type="line"/>
      <point x="667" y="284" type="line"/>
      <point x="589" y="212"/>
      <point x="476" y="187"/>
    </contour>
  </outline>
</glyph>
<glyph name="b" format="1">
  <advance width="1249"/>
  <unicode hex="0062"/>
  <outline>
    <contour>
      <point x="778" y="1082" type="move" name="top"/>
    </contour>
    <contour>
      <point x="566" y="-24" type="curve" smooth="yes"/>
      <point x="818" y="-24"/>
      <point x="1013" y="109"/>
      <point x="1045" y="315" type="curve" smooth="yes"/>
      <point x="1116" y="763" type="line" smooth="yes"/>
      <point x="1143" y="930"/>
      <point x="1079" y="1107"/>
      <point x="758" y="1107" type="curve" smooth="yes"/>
      <point x="674" y="1107"/>
      <point x="600" y="1089"/>
      <point x="531" y="1058" type="curve"/>
      <point x="605" y="1522" type="line"/>
      <point x="283" y="1522" type="line"/>
      <point x="42" y="0" type="line"/>
      <point x="258" y="0" type="line"/>
      <point x="296" y="61" type="line"/>
      <point x="365" y="9"/>
      <point x="454" y="-24"/>
    </contour>
    <contour>
      <point x="545" y="193" type="curve" smooth="yes"/>
      <point x="481" y="193"/>
      <point x="429" y="202"/>
      <point x="401" y="233" type="curve"/>
      <point x="500" y="849" type="line"/>
      <point x="490" y="846"/>
      <point x="546" y="890"/>
      <point x="650" y="890" type="curve" smooth="yes"/>
      <point x="760" y="890"/>
      <point x="809" y="858"/>
      <point x="794" y="763" type="curve" smooth="yes"/>
      <point x="723" y="318" type="line" smooth="yes"/>
      <point x="708" y="223"/>
      <point x="643" y="193"/>
    </contour>
  </outline>
</glyph>
<glyph name="c" format="1">
  <advance width="1189"/>
  <unicode hex="0063"/>
  <outline>
    <contour>
      <point x="708" y="1082" type="move" name="top"/>
    </contour>
    <contour>
      <point x="525" y="0" type="move" name="bot"/>
    </contour>
    <contour>
      <point x="505" y="-24" type="curve" smooth="yes"/>
      <point x="884" y="-24"/>
      <point x="979" y="84"/>
      <point x="1030" y="422" type="curve"/>
      <point x="728" y="422" type="line"/>
      <point x="705" y="225"/>
      <point x="671" y="196"/>
      <point x="550" y="196" type="curve" smooth="yes"/>
      <point x="443" y="196"/>
      <point x="408" y="226"/>
      <point x="422" y="318" type="curve" smooth="yes"/>
      <point x="493" y="764" type="line" smooth="yes"/>
      <point x="507" y="857"/>
      <point x="572" y="890"/>
      <point x="661" y="890" type="curve" smooth="yes"/>
      <point x="784" y="890"/>
      <point x="796" y="858"/>
      <point x="766" y="662" type="curve"/>
      <point x="1073" y="684" type="line"/>
      <point x="1122" y="1006"/>
      <point x="997" y="1107"/>
      <point x="682" y="1107" type="curve" smooth="yes"/>
      <point x="390" y="1107"/>
      <point x="206" y="986"/>
      <point x="170" y="762" type="curve" smooth="yes"/>
      <point x="100" y="317" type="line" smooth="yes"/>
      <point x="70" y="135"/>
      <point x="107" y="-24"/>
    </contour>
  </outline>
</glyph>
<glyph name="d" format="1">
  <advance width="1245"/>
  <unicode hex="0064"/>
  <outline>
    <contour>
      <point x="580" y="1082" type="move" name="top"/>
    </contour>
    <contour>
      <point x="1092" y="1082" type="move" name="caron.alt"/>
    </contour>
    <contour>
      <point x="1025" y="1336" type="move" name="mid"/>
    </contour>
    <contour>
      <point x="444" y="-24" type="curve" smooth="yes"/>
      <point x="554" y="-24"/>
      <point x="647" y="9"/>
      <point x="730" y="59" type="curve"/>
      <point x="749" y="0" type="line"/>
      <point x="966" y="0" type="line"/>
      <point x="1207" y="1522" type="line"/>
      <point x="885" y="1522" type="line"/>
      <point x="812" y="1070" type="line"/>
      <point x="755" y="1093"/>
      <point x="698" y="1107"/>
      <point x="640" y="1107" type="curve" smooth="yes"/>
      <point x="324" y="1107"/>
      <point x="167" y="953"/>
      <point x="137" y="764" type="curve" smooth="yes"/>
      <point x="66" y="317" type="line" smooth="yes"/>
      <point x="32" y="94"/>
      <point x="161" y="-24"/>
    </contour>
    <contour>
      <point x="522" y="193" type="curve" smooth="yes"/>
      <point x="413" y="193"/>
      <point x="374" y="224"/>
      <point x="389" y="319" type="curve" smooth="yes"/>
      <point x="460" y="761" type="line" smooth="yes"/>
      <point x="474" y="857"/>
      <point x="530" y="890"/>
      <point x="640" y="890" type="curve" smooth="yes"/>
      <point x="709" y="890"/>
      <point x="756" y="868"/>
      <point x="780" y="857" type="curve"/>
      <point x="679" y="224" type="line"/>
      <point x="633" y="200"/>
      <point x="578" y="193"/>
    </contour>
  </outline>
</glyph>
<glyph name="e" format="1">
  <advance width="1207"/>
  <unicode hex="0065"/>
  <outline>
    <contour>
      <point x="724" y="1082" type="move" name="top"/>
    </contour>
    <contour>
      <point x="623" y="0" type="move" name="ogonek"/>
    </contour>
    <contour>
      <point x="524" y="0" type="move" name="bot"/>
    </contour>
    <contour>
      <point x="520" y="-24" type="curve" smooth="yes"/>
      <point x="791" y="-24"/>
      <point x="1006" y="32"/>
      <point x="1055" y="359" type="curve"/>
      <point x="751" y="359" type="line"/>
      <point x="728" y="196"/>
      <point x="656" y="192"/>
      <point x="562" y="192" type="curve" smooth="yes"/>
      <point x="474" y="192"/>
      <point x="400" y="182"/>
      <point x="416" y="282" type="curve" smooth="yes"/>
      <point x="447" y="472" type="line"/>
      <point x="1074" y="472" type="line"/>
      <point x="1116" y="737" type="line" smooth="yes"/>
      <point x="1151" y="962"/>
      <point x="1053" y="1107"/>
      <point x="698" y="1107" type="curve" smooth="yes"/>
      <point x="434" y="1107"/>
      <point x="206" y="993"/>
      <point x="171" y="762" type="curve" smooth="yes"/>
      <point x="99" y="313" type="line" smooth="yes"/>
      <point x="53" y="30"/>
      <point x="288" y="-24"/>
    </contour>
    <contour>
      <point x="477" y="662" type="line"/>
      <point x="495" y="779" type="line" smooth="yes"/>
      <point x="511" y="883"/>
      <point x="590" y="890"/>
      <point x="675" y="890" type="curve" smooth="yes"/>
      <point x="762" y="890"/>
      <point x="838" y="890"/>
      <point x="820" y="776" type="curve" smooth="yes"/>
      <point x="802" y="662" type="line"/>
    </contour>
  </outline>
</glyph>
<glyph name="f" format="1">
  <advance width="776"/>
  <unicode hex="0066"/>
  <outline>
    <contour>
      <point x="559" y="1494" type="move" name="top"/>
    </contour>
    <contour>
      <point x="78" y="0" type="line"/>
      <point x="401" y="0" type="line"/>
      <point x="543" y="891" type="line"/>
      <point x="731" y="891" type="line"/>
      <point x="760" y="1082" type="line"/>
      <point x="572" y="1082" type="line"/>
      <point x="584" y="1154" type="line" smooth="yes"/>
      <point x="594" y="1224"/>
      <point x="617" y="1300"/>
      <point x="737" y="1300" type="curve" smooth="yes"/>
      <point x="802" y="1300" type="line"/>
      <point x="833" y="1523" type="line"/>
      <point x="703" y="1523" type="line" smooth="yes"/>
      <point x="426" y="1523"/>
      <point x="294" y="1357"/>
      <point x="247" y="1067" type="curve" smooth="yes"/>
      <point x="250" y="1082" type="line"/>
      <point x="127" y="1082" type="line"/>
      <point x="98" y="891" type="line"/>
      <point x="220" y="891" type="line"/>
    </contour>
  </outline>
</glyph>
<glyph name="g" format="1">
  <advance width="1280"/>
  <unicode hex="0067"/>
  <outline>
    <contour>
      <point x="706" y="1082" type="move" name="top"/>
    </contour>
    <contour>
      <point x="458" y="-461" type="curve" smooth="yes"/>
      <point x="842" y="-461"/>
      <point x="1014" y="-309"/>
      <point x="1057" y="-34" type="curve" smooth="yes"/>
      <point x="1234" y="1084" type="line"/>
      <point x="1023" y="1084" type="line"/>
      <point x="976" y="1010" type="line"/>
      <point x="896" y="1068"/>
      <point x="797" y="1107"/>
      <point x="673" y="1107" type="curve" smooth="yes"/>
      <point x="354" y="1107"/>
      <point x="231" y="931"/>
      <point x="205" y="765" type="curve" smooth="yes"/>
      <point x="141" y="358" type="line" smooth="yes"/>
      <point x="109" y="153"/>
      <point x="266" y="27"/>
      <point x="517" y="27" type="curve" smooth="yes"/>
      <point x="605" y="27"/>
      <point x="681" y="44"/>
      <point x="752" y="71" type="curve"/>
      <point x="735" y="-29" type="line" smooth="yes"/>
      <point x="713" y="-172"/>
      <point x="641" y="-228"/>
      <point x="503" y="-228" type="curve" smooth="yes"/>
      <point x="430" y="-228"/>
      <point x="330" y="-216"/>
      <point x="208" y="-184" type="curve"/>
      <point x="111" y="-395" type="line"/>
      <point x="177" y="-435"/>
      <point x="331" y="-461"/>
    </contour>
    <contour>
      <point x="605" y="230" type="curve" smooth="yes"/>
      <point x="507" y="230"/>
      <point x="448" y="263"/>
      <point x="463" y="360" type="curve" smooth="yes"/>
      <point x="527" y="762" type="line" smooth="yes"/>
      <point x="542" y="857"/>
      <point x="600" y="890"/>
      <point x="710" y="890" type="curve" smooth="yes"/>
      <point x="806" y="890"/>
      <point x="874" y="847"/>
      <point x="876" y="857" type="curve" smooth="yes"/>
      <point x="781" y="259" type="line"/>
      <point x="735" y="230"/>
      <point x="668" y="230"/>
    </contour>
  </outline>
</glyph>
<glyph name="h" format="1">
  <advance width="1301"/>
  <unicode hex="0068"/>
  <outline>
    <contour>
      <point x="1008" y="1452" type="move" name="top"/>
    </contour>
    <contour>
      <point x="40" y="0" type="line"/>
      <point x="362" y="0" type="line"/>
      <point x="477" y="726" type="line" smooth="yes"/>
      <point x="493" y="831"/>
      <point x="634" y="869"/>
      <point x="681" y="869" type="curve" smooth="yes"/>
      <point x="738" y="869"/>
      <point x="840" y="858"/>
      <point x="821" y="740" type="curve" smooth="yes"/>
      <point x="703" y="0" type="line"/>
      <point x="1025" y="0" type="line"/>
      <point x="1154" y="808" type="line" smooth="yes"/>
      <point x="1184" y="997"/>
      <point x="1059" y="1107"/>
      <point x="886" y="1107" type="curve" smooth="yes"/>
      <point x="740" y="1107"/>
      <point x="566" y="1053"/>
      <point x="517" y="976" type="curve"/>
      <point x="603" y="1521" type="line"/>
      <point x="281" y="1521" type="line"/>
    </contour>
  </outline>
</glyph>
<glyph name="k" format="1">
  <advance width="1251"/>
  <unicode hex="006B"/>
  <outline>
    <contour>
      <point x="1004" y="1452" type="move" name="top"/>
    </contour>
    <contour>
      <point x="566" y="0" type="move" name="bot"/>
    </contour>
    <contour>
      <point x="40" y="0" type="line"/>
      <point x="362" y="0" type="line"/>
      <point x="425" y="398" type="line"/>
      <point x="538" y="500" type="line"/>
      <point x="768" y="0" type="line"/>
      <point x="1113" y="0" type="line"/>
      <point x="821" y="621" type="line"/>
      <point x="1282" y="1082" type="line"/>
      <point x="909" y="1082" type="line"/>
      <point x="464" y="649" type="line"/>
      <point x="603" y="1522" type="line"/>
      <point x="281" y="1522" type="line"/>
    </contour>
  </outline>
</glyph>
<glyph name="l" format="1">
  <advance width="759"/>
  <unicode hex="006C"/>
  <outline>
    <contour>
      <point x="477" y="1517" type="move" name="top"/>
    </contour>
    <contour>
      <point x="432" y="1082" type="move" name="caron.alt"/>
    </contour>
    <contour>
      <point x="408" y="0" type="move" name="bot"/>
    </contour>
    <contour>
      <point x="413" y="-14" type="curve" smooth="yes"/>
      <point x="563" y="-14" type="line"/>
      <point x="620" y="214" type="line"/>
      <point x="585" y="214" type="line" smooth="yes"/>
      <point x="446" y="214"/>
      <point x="405" y="273"/>
      <point x="418" y="358" type="curve" smooth="yes"/>
      <point x="602" y="1521" type="line"/>
      <point x="280" y="1521" type="line"/>
      <point x="94" y="350" type="line" smooth="yes"/>
      <point x="55" y="103"/>
      <point x="170" y="-14"/>
    </contour>
  </outline>
</glyph>
<glyph name="m" format="1">
  <advance width="1943"/>
  <unicode hex="006D"/>
  <outline>
    <contour>
      <point x="1186" y="1082" type="move" name="top"/>
    </contour>
    <contour>
      <point x="70" y="0" type="line"/>
      <point x="392" y="0" type="line"/>
      <point x="507" y="729" type="line" smooth="yes"/>
      <point x="525" y="836"/>
      <point x="690" y="874"/>
      <point x="736" y="874" type="curve" smooth="yes"/>
      <point x="794" y="874"/>
      <point x="864" y="868"/>
      <point x="845" y="751" type="curve" smooth="yes"/>
      <point x="726" y="0" type="line"/>
      <point x="1048" y="0" type="line"/>
      <point x="1167" y="747" type="line"/>
      <point x="1194" y="839"/>
      <point x="1353" y="874"/>
      <point x="1397" y="874" type="curve" smooth="yes"/>
      <point x="1453" y="874"/>
      <point x="1517" y="868"/>
      <point x="1499" y="751" type="curve" smooth="yes"/>
      <point x="1380" y="0" type="line"/>
      <point x="1702" y="0" type="line"/>
      <point x="1830" y="808" type="line" smooth="yes"/>
      <point x="1861" y="997"/>
      <point x="1713" y="1107"/>
      <point x="1540" y="1107" type="curve" smooth="yes"/>
      <point x="1361" y="1107"/>
      <point x="1237" y="1049"/>
      <point x="1157" y="978" type="curve"/>
      <point x="1114" y="1075"/>
      <point x="1014" y="1107"/>
      <point x="892" y="1107" type="curve" smooth="yes"/>
      <point x="698" y="1107"/>
      <point x="563" y="1000"/>
      <point x="549" y="991" type="curve"/>
      <point x="563" y="1082" type="line"/>
      <point x="241" y="1082" type="line"/>
    </contour>
  </outline>
</glyph>
<glyph name="n" format="1">
  <advance width="1301"/>
  <unicode hex="006E"/>
  <outline>
    <contour>
      <point x="760" y="1082" type="move" name="top"/>
    </contour>
    <contour>
      <point x="607" y="0" type="move" name="bot"/>
    </contour>
    <contour>
      <point x="70" y="0" type="line"/>
      <point x="392" y="0" type="line"/>
      <point x="506" y="723" type="line" smooth="yes"/>
      <point x="523" y="830"/>
      <point x="658" y="869"/>
      <point x="705" y="869" type="curve" smooth="yes"/>
      <point x="762" y="869"/>
      <point x="871" y="857"/>
      <point x="854" y="739" type="curve" smooth="yes"/>
      <point x="736" y="0" type="line"/>
      <point x="1058" y="0" type="line"/>
      <point x="1180" y="770" type="line" smooth="yes"/>
      <point x="1211" y="959"/>
      <point x="1125" y="1096"/>
      <point x="953" y="1109" type="curve" smooth="yes"/>
      <point x="697" y="1123"/>
      <point x="547" y="981"/>
      <point x="549" y="992" type="curve"/>
      <point x="563" y="1082" type="line"/>
      <point x="241" y="1082" type="line"/>
    </contour>
  </outline>
</glyph>
<glyph name="o" format="1">
  <advance width="1235"/>
  <unicode hex="006F"/>
  <outline>
    <contour>
      <point x="707" y="1082" type="move" name="top"/>
    </contour>
    <contour>
      <point x="610" y="0" type="move" name="ogonek"/>
    </contour>
    <contour>
      <point x="531" y="0" type="move" name="bot"/>
    </contour>
    <contour>
      <point x="561" y="192" type="curve" smooth="yes"/>
      <point x="451" y="192"/>
      <point x="407" y="226"/>
      <point x="423" y="321" type="curve" smooth="yes"/>
      <point x="492" y="761" type="line" smooth="yes"/>
      <point x="508" y="857"/>
      <point x="575" y="890"/>
      <point x="673" y="890" type="curve" smooth="yes"/>
      <point x="782" y="890"/>
      <point x="828" y="857"/>
      <point x="812" y="761" type="curve" smooth="yes"/>
      <point x="743" y="321" type="line" smooth="yes"/>
      <point x="727" y="226"/>
      <point x="659" y="192"/>
    </contour>
    <contour>
      <point x="527" y="-24" type="curve" smooth="yes"/>
      <point x="896" y="-24"/>
      <point x="1031" y="108"/>
      <point x="1066" y="331" type="curve" smooth="yes"/>
      <point x="1132" y="752" type="line" smooth="yes"/>
      <point x="1169" y="984"/>
      <point x="987" y="1107"/>
      <point x="708" y="1107" type="curve" smooth="yes"/>
      <point x="427" y="1107"/>
      <point x="205" y="984"/>
      <point x="168" y="752" type="curve" smooth="yes"/>
      <point x="101" y="331" type="line" smooth="yes"/>
      <point x="67" y="106"/>
      <point x="176" y="-24"/>
    </contour>
  </outline>
</glyph>
<glyph name="p" format="1">
  <advance width="1217"/>
  <unicode hex="0070"/>
  <outline>
    <contour>
      <point x="848" y="1082" type="move" name="top"/>
    </contour>
    <contour>
      <point x="38" y="-411" type="line"/>
      <point x="360" y="-411" type="line"/>
      <point x="425" y="7" type="line"/>
      <point x="475" y="-14"/>
      <point x="534" y="-24"/>
      <point x="599" y="-24" type="curve" smooth="yes"/>
      <point x="918" y="-24"/>
      <point x="1076" y="149"/>
      <point x="1102" y="315" type="curve" smooth="yes"/>
      <point x="1174" y="764" type="line" smooth="yes"/>
      <point x="1206" y="971"/>
      <point x="1067" y="1107"/>
      <point x="814" y="1107" type="curve" smooth="yes"/>
      <point x="699" y="1107"/>
      <point x="597" y="1072"/>
      <point x="509" y="1018" type="curve"/>
      <point x="489" y="1082" type="line"/>
      <point x="274" y="1082" type="line"/>
    </contour>
    <contour>
      <point x="604" y="192" type="curve" smooth="yes"/>
      <point x="501" y="192"/>
      <point x="457" y="237"/>
      <point x="461" y="233" type="curve"/>
      <point x="560" y="851" type="line"/>
      <point x="605" y="885"/>
      <point x="664" y="890"/>
      <point x="724" y="890" type="curve" smooth="yes"/>
      <point x="823" y="890"/>
      <point x="865" y="858"/>
      <point x="850" y="762" type="curve" smooth="yes"/>
      <point x="780" y="318" type="line" smooth="yes"/>
      <point x="765" y="221"/>
      <point x="713" y="192"/>
    </contour>
  </outline>
</glyph>
<glyph name="q" format="1">
  <advance width="1216"/>
  <unicode hex="0071"/>
  <outline>
    <contour>
      <point x="617" y="-411" type="line"/>
      <point x="939" y="-411" type="line"/>
      <point x="1175" y="1082" type="line"/>
      <point x="963" y="1082" type="line"/>
      <point x="924" y="1023" type="line"/>
      <point x="852" y="1075"/>
      <point x="767" y="1107"/>
      <point x="652" y="1107" type="curve" smooth="yes"/>
      <point x="400" y="1107"/>
      <point x="209" y="971"/>
      <point x="175" y="763" type="curve" smooth="yes"/>
      <point x="105" y="319" type="line" smooth="yes"/>
      <point x="78" y="152"/>
      <point x="136" y="-24"/>
      <point x="457" y="-24" type="curve" smooth="yes"/>
      <point x="544" y="-24"/>
      <point x="616" y="-5"/>
      <point x="686" y="25" type="curve"/>
    </contour>
    <contour>
      <point x="565" y="192" type="curve" smooth="yes"/>
      <point x="455" y="192"/>
      <point x="412" y="226"/>
      <point x="427" y="322" type="curve" smooth="yes"/>
      <point x="497" y="761" type="line" smooth="yes"/>
      <point x="513" y="857"/>
      <point x="577" y="890"/>
      <point x="673" y="890" type="curve" smooth="yes"/>
      <point x="728" y="890"/>
      <point x="782" y="883"/>
      <point x="816" y="856" type="curve"/>
      <point x="717" y="231" type="line"/>
      <point x="719" y="233"/>
      <point x="664" y="192"/>
    </contour>
  </outline>
</glyph>
<glyph name="r" format="1">
  <advance width="889"/>
  <unicode hex="0072"/>
  <outline>
    <contour>
      <point x="666" y="1082" type="move" name="top"/>
    </contour>
    <contour>
      <point x="223" y="0" type="move" name="bot"/>
    </contour>
    <contour>
      <point x="58" y="0" type="line"/>
      <point x="380" y="0" type="line"/>
      <point x="494" y="719" type="line"/>
      <point x="538" y="793"/>
      <point x="777" y="815"/>
      <point x="890" y="826" type="curve"/>
      <point x="939" y="1099" type="line"/>
      <point x="882" y="1115"/>
      <point x="597" y="1056"/>
      <point x="534" y="980" type="curve"/>
      <point x="551" y="1082" type="line"/>
      <point x="229" y="1082" type="line"/>
    </contour>
  </outline>
</glyph>
<glyph name="s" format="1">
  <advance width="1088"/>
  <unicode hex="0073"/>
  <outline>
    <contour>
      <point x="692" y="1082" type="move" name="top"/>
    </contour>
    <contour>
      <point x="460" y="0" type="move" name="bot"/>
    </contour>
    <contour>
      <point x="467" y="-19" type="curve" smooth="yes"/>
      <point x="671" y="-19"/>
      <point x="901" y="44"/>
      <point x="945" y="315" type="curve" smooth="yes"/>
      <point x="973" y="485"/>
      <point x="913" y="601"/>
      <point x="738" y="651" type="curve" smooth="yes"/>
      <point x="541" y="704" type="line" smooth="yes"/>
      <point x="506" y="712"/>
      <point x="485" y="751"/>
      <point x="489" y="788" type="curve" smooth="yes"/>
      <point x="498" y="841"/>
      <point x="531" y="890"/>
      <point x="626" y="890" type="curve" smooth="yes"/>
      <point x="736" y="890"/>
      <point x="867" y="850"/>
      <point x="925" y="812" type="curve"/>
      <point x="1030" y="996" type="line"/>
      <point x="915" y="1064"/>
      <point x="771" y="1102"/>
      <point x="648" y="1102" type="curve" smooth="yes"/>
      <point x="476" y="1102"/>
      <point x="221" y="1039"/>
      <point x="181" y="800" type="curve" smooth="yes"/>
      <point x="152" y="648"/>
      <point x="189" y="513"/>
      <point x="358" y="461" type="curve" smooth="yes"/>
      <point x="576" y="398" type="line" smooth="yes"/>
      <point x="623" y="385"/>
      <point x="648" y="349"/>
      <point x="644" y="323" type="curve" smooth="yes"/>
      <point x="638" y="288"/>
      <point x="621" y="192"/>
      <point x="517" y="192" type="curve" smooth="yes"/>
      <point x="433" y="192"/>
      <point x="298" y="210"/>
      <point x="153" y="272" type="curve"/>
      <point x="59" y="59" type="line"/>
      <point x="238" y="-5"/>
      <point x="381" y="-19"/>
    </contour>
  </outline>
</glyph>
<glyph name="t" format="1">
  <advance width="877"/>
  <unicode hex="0074"/>
  <outline>
    <contour>
      <point x="493" y="1485" type="move" name="top"/>
    </contour>
    <contour>
      <point x="553" y="1082" type="move" name="caron.alt"/>
    </contour>
    <contour>
      <point x="371" y="19" type="move" name="bot"/>
    </contour>
    <contour>
      <point x="366" y="634" type="move" name="mid"/>
    </contour>
    <contour>
      <point x="515" y="-14" type="curve" smooth="yes"/>
      <point x="654" y="-14" type="line"/>
      <point x="694" y="214" type="line"/>
      <point x="607" y="214" type="line" smooth="yes"/>
      <point x="427" y="214"/>
      <point x="449" y="258"/>
      <point x="469" y="387" type="curve" smooth="yes"/>
      <point x="548" y="891" type="line"/>
      <point x="797" y="891" type="line"/>
      <point x="828" y="1082" type="line"/>
      <point x="579" y="1082" type="line"/>
      <point x="634" y="1438" type="line"/>
      <point x="347" y="1438" type="line"/>
      <point x="265" y="1082" type="line"/>
      <point x="91" y="1082" type="line"/>
      <point x="60" y="891" type="line"/>
      <point x="226" y="891" type="line"/>
      <point x="143" y="364" type="line" smooth="yes"/>
      <point x="95" y="62"/>
      <point x="171" y="-14"/>
    </contour>
  </outline>
</glyph>
<glyph name="u" format="1">
  <advance width="1297"/>
  <unicode hex="0075"/>
  <outline>
    <contour>
      <point x="743" y="1082" type="move" name="top"/>
    </contour>
    <contour>
      <point x="894" y="0" type="move" name="ogonek"/>
    </contour>
    <contour>
      <point x="381" y="-24" type="curve" smooth="yes"/>
      <point x="525" y="-35"/>
      <point x="713" y="24"/>
      <point x="765" y="109" type="curve"/>
      <point x="748" y="0" type="line"/>
      <point x="1056" y="0" type="line"/>
      <point x="1228" y="1082" type="line"/>
      <point x="905" y="1082" type="line"/>
      <point x="793" y="375" type="line" smooth="yes"/>
      <point x="771" y="236"/>
      <point x="639" y="218"/>
      <point x="591" y="218" type="curve" smooth="yes"/>
      <point x="536" y="218"/>
      <point x="432" y="246"/>
      <point x="451" y="363" type="curve" smooth="yes"/>
      <point x="565" y="1082" type="line"/>
      <point x="242" y="1082" type="line"/>
      <point x="117" y="292" type="line" smooth="yes"/>
      <point x="87" y="103"/>
      <point x="211" y="-8"/>
    </contour>
  </outline>
</glyph>
<glyph name="v" format="1">
  <advance width="1211"/>
  <unicode hex="0076"/>
  <outline>
    <contour>
      <point x="349" y="0" type="line"/>
      <point x="698" y="0" type="line"/>
      <point x="1226" y="1082" type="line"/>
      <point x="926" y="1082" type="line"/>
      <point x="571" y="306" type="line"/>
      <point x="476" y="1082" type="line"/>
      <point x="156" y="1082" type="line"/>
    </contour>
  </outline>
</glyph>
<glyph name="w" format="1">
  <advance width="1739"/>
  <unicode hex="0077"/>
  <outline>
    <contour>
      <point x="968" y="1082" type="move" name="top"/>
    </contour>
    <contour>
      <point x="284" y="0" type="line"/>
      <point x="590" y="0" type="line"/>
      <point x="901" y="679" type="line"/>
      <point x="983" y="0" type="line"/>
      <point x="1304" y="0" type="line"/>
      <point x="1747" y="1082" type="line"/>
      <point x="1446" y="1082" type="line"/>
      <point x="1179" y="335" type="line"/>
      <point x="1085" y="1082" type="line"/>
      <point x="840" y="1082" type="line"/>
      <point x="517" y="350" type="line"/>
      <point x="466" y="1082" type="line"/>
      <point x="163" y="1082" type="line"/>
    </contour>
  </outline>
</glyph>
<glyph name="x" format="1">
  <advance width="1155"/>
  <unicode hex="0078"/>
  <outline>
    <contour>
      <point x="-38" y="0" type="line"/>
      <point x="313" y="0" type="line"/>
      <point x="548" y="299" type="line"/>
      <point x="693" y="0" type="line"/>
      <point x="1017" y="0" type="line"/>
      <point x="747" y="537" type="line"/>
      <point x="1188" y="1082" type="line"/>
      <point x="853" y="1082" type="line"/>
      <point x="616" y="781" type="line"/>
      <point x="473" y="1082" type="line"/>
      <point x="132" y="1082" type="line"/>
      <point x="414" y="544" type="line"/>
    </contour>
  </outline>
</glyph>
<glyph name="y" format="1">
  <advance width="1121"/>
  <unicode hex="0079"/>
  <outline>
    <contour>
      <point x="701" y="1082" type="move" name="top"/>
    </contour>
    <contour>
      <point x="26" y="-500" type="line"/>
      <point x="391" y="-452"/>
      <point x="467" y="-400"/>
      <point x="771" y="197" type="curve" smooth="yes"/>
      <point x="1224" y="1082" type="line"/>
      <point x="906" y="1082" type="line"/>
      <point x="610" y="435" type="line"/>
      <point x="460" y="1082" type="line"/>
      <point x="160" y="1082" type="line"/>
      <point x="380" y="55" type="line"/>
      <point x="272" y="-203"/>
      <point x="255" y="-227"/>
      <point x="33" y="-261" type="curve"/>
    </contour>
  </outline>
</glyph>
<glyph name="z" format="1">
  <advance width="1021"/>
  <unicode hex="007A"/>
  <outline>
    <contour>
      <point x="626" y="1082" type="move" name="top"/>
    </contour>
    <contour>
      <point x="392" y="0" type="move" name="bot"/>
    </contour>
    <contour>
      <point x="26" y="0" type="line"/>
      <point x="812" y="0" type="line"/>
      <point x="848" y="225" type="line"/>
      <point x="415" y="225" type="line"/>
      <point x="943" y="895" type="line"/>
      <point x="973" y="1082" type="line"/>
      <point x="192" y="1082" type="line"/>
      <point x="158" y="866" type="line"/>
      <point x="584" y="866" type="line"/>
      <point x="56" y="192" type="line"/>
    </contour>
  </outline>
</glyph>
<glyph name="braceleft" format="1">
  <advance width="1016"/>
  <unicode hex="007B"/>
  <outline>
    <contour>
      <point x="702" y="-81" type="curve"/>
      <point x="702" y="-81"/>
      <point x="733" y="107"/>
      <point x="731" y="107" type="curve" smooth="yes"/>
      <point x="623" y="107"/>
      <point x="614" y="160"/>
      <point x="630" y="262" type="curve" smooth="yes"/>
      <point x="653" y="412" type="line" smooth="yes"/>
      <point x="688" y="629"/>
      <point x="652" y="720"/>
      <point x="513" y="766" type="curve"/>
      <point x="656" y="801"/>
      <point x="734" y="936"/>
      <point x="765" y="1127" type="curve" smooth="yes"/>
      <point x="792" y="1298" type="line" smooth="yes"/>
      <point x="805" y="1380"/>
      <point x="825" y="1398"/>
      <point x="936" y="1398" type="curve" smooth="yes"/>
      <point x="937" y="1398"/>
      <point x="965" y="1586"/>
      <point x="965" y="1586" type="curve"/>
      <point x="678" y="1586"/>
      <point x="511" y="1619"/>
      <point x="444" y="1195" type="curve" smooth="yes"/>
      <point x="422" y="1055" type="line" smooth="yes"/>
      <point x="410" y="982"/>
      <point x="370" y="898"/>
      <point x="229" y="898" type="curve"/>
      <point x="182" y="608" type="line"/>
      <point x="322" y="608"/>
      <point x="343" y="550"/>
      <point x="331" y="478" type="curve" smooth="yes"/>
      <point x="313" y="363" type="line" smooth="yes"/>
      <point x="256" y="8"/>
      <point x="387" y="-81"/>
    </contour>
  </outline>
</glyph>
<glyph name="bar" format="1">
  <advance width="815"/>
  <unicode hex="007C"/>
  <outline>
    <contour>
      <point x="128" y="-101" type="line"/>
      <point x="412" y="-101" type="line"/>
      <point x="687" y="1640" type="line"/>
      <point x="403" y="1640" type="line"/>
    </contour>
  </outline>
</glyph>
<glyph name="braceright" format="1">
  <advance width="1014"/>
  <unicode hex="007D"/>
  <outline>
    <contour>
      <point x="75" y="-81" type="curve"/>
      <point x="390" y="-81"/>
      <point x="548" y="8"/>
      <point x="604" y="363" type="curve" smooth="yes"/>
      <point x="622" y="478" type="line" smooth="yes"/>
      <point x="635" y="550"/>
      <point x="671" y="608"/>
      <point x="811" y="608" type="curve"/>
      <point x="858" y="898" type="line"/>
      <point x="716" y="898"/>
      <point x="701" y="982"/>
      <point x="714" y="1055" type="curve" smooth="yes"/>
      <point x="735" y="1195" type="line" smooth="yes"/>
      <point x="803" y="1619"/>
      <point x="624" y="1586"/>
      <point x="338" y="1586" type="curve"/>
      <point x="338" y="1586"/>
      <point x="307" y="1398"/>
      <point x="309" y="1398" type="curve" smooth="yes"/>
      <point x="420" y="1398"/>
      <point x="434" y="1380"/>
      <point x="421" y="1298" type="curve" smooth="yes"/>
      <point x="394" y="1127" type="line" smooth="yes"/>
      <point x="363" y="936"/>
      <point x="399" y="801"/>
      <point x="530" y="766" type="curve"/>
      <point x="379" y="720"/>
      <point x="313" y="629"/>
      <point x="278" y="412" type="curve" smooth="yes"/>
      <point x="256" y="262" type="line" smooth="yes"/>
      <point x="239" y="160"/>
      <point x="211" y="107"/>
      <point x="104" y="107" type="curve" smooth="yes"/>
      <point x="102" y="107"/>
      <point x="75" y="-81"/>
    </contour>
  </outline>
</glyph>
<glyph name="asciitilde" format="1">
  <advance width="1110"/>
  <unicode hex="007E"/>
  <outline>
    <contour>
      <point x="716" y="1106" type="curve" smooth="yes"/>
      <point x="860" y="1106"/>
      <point x="998" y="1247"/>
      <point x="1030" y="1449" type="curve"/>
      <point x="914" y="1449" type="line"/>
      <point x="902" y="1372"/>
      <point x="853" y="1285"/>
      <point x="757" y="1285" type="curve" smooth="yes"/>
      <point x="672" y="1285"/>
      <point x="555" y="1466"/>
      <point x="393" y="1466" type="curve" smooth="yes"/>
      <point x="249" y="1466"/>
      <point x="112" y="1326"/>
      <point x="80" y="1123" type="curve"/>
      <point x="194" y="1123" type="line"/>
      <point x="206" y="1199"/>
      <point x="256" y="1288"/>
      <point x="353" y="1288" type="curve" smooth="yes"/>
      <point x="436" y="1288"/>
      <point x="551" y="1106"/>
    </contour>
  </outline>
</glyph>
<glyph name="cent" format="1">
  <advance width="1105"/>
  <unicode hex="00A2"/>
  <outline>
    <contour>
      <point x="610" y="1002" type="line"/>
      <point x="697" y="1002" type="line"/>
      <point x="744" y="1299" type="line"/>
      <point x="657" y="1299" type="line"/>
    </contour>
    <contour>
      <point x="417" y="-219" type="line"/>
      <point x="504" y="-219" type="line"/>
      <point x="551" y="78" type="line"/>
      <point x="464" y="78" type="line"/>
    </contour>
    <component base="c"/>
  </outline>
</glyph>
<glyph name="sterling" format="1">
  <advance width="1292"/>
  <unicode hex="00A3"/>
  <outline>
    <contour>
      <point x="52" y="0" type="line"/>
      <point x="1056" y="0" type="line"/>
      <point x="1098" y="264" type="line"/>
      <point x="469" y="264" type="line"/>
      <point x="544" y="593" type="line"/>
      <point x="1034" y="593" type="line"/>
      <point x="1069" y="814" type="line"/>
      <point x="598" y="814" type="line"/>
      <point x="640" y="1008" type="line" smooth="yes"/>
      <point x="664" y="1123"/>
      <point x="700" y="1253"/>
      <point x="887" y="1253" type="curve" smooth="yes"/>
      <point x="940" y="1253"/>
      <point x="1011" y="1251"/>
      <point x="1147" y="1187" type="curve"/>
      <point x="1266" y="1425" type="line"/>
      <point x="1223" y="1472"/>
      <point x="1079" y="1534"/>
      <point x="906" y="1534" type="curve" smooth="yes"/>
      <point x="517" y="1534"/>
      <point x="354" y="1359"/>
      <point x="286" y="1023" type="curve" smooth="yes"/>
      <point x="240" y="814" type="line"/>
      <point x="123" y="814" type="line"/>
      <point x="87" y="593" type="line"/>
      <point x="188" y="593" type="line"/>
    </contour>
  </outline>
</glyph>
<glyph name="currency" format="1">
  <advance width="1112"/>
  <unicode hex="00A4"/>
  <outline>
    <contour>
      <point x="505" y="394" type="curve" smooth="yes"/>
      <point x="619" y="394"/>
      <point x="704" y="433"/>
      <point x="769" y="484" type="curve"/>
      <point x="877" y="389" type="line"/>
      <point x="942" y="470" type="line"/>
      <point x="839" y="558" type="line"/>
      <point x="877" y="613"/>
      <point x="901" y="678"/>
      <point x="912" y="743" type="curve" smooth="yes"/>
      <point x="920" y="796"/>
      <point x="920" y="852"/>
      <point x="904" y="902" type="curve"/>
      <point x="1024" y="982" type="line"/>
      <point x="992" y="1062" type="line"/>
      <point x="867" y="981" type="line"/>
      <point x="820" y="1046"/>
      <point x="740" y="1092"/>
      <point x="615" y="1092" type="curve" smooth="yes"/>
      <point x="492" y="1092"/>
      <point x="396" y="1047"/>
      <point x="329" y="987" type="curve"/>
      <point x="235" y="1071" type="line"/>
      <point x="171" y="992" type="line"/>
      <point x="264" y="910" type="line"/>
      <point x="231" y="857"/>
      <point x="210" y="800"/>
      <point x="202" y="743" type="curve" smooth="yes"/>
      <point x="191" y="680"/>
      <point x="197" y="618"/>
      <point x="217" y="565" type="curve"/>
      <point x="86" y="481" type="line"/>
      <point x="120" y="397" type="line"/>
      <point x="262" y="487" type="line"/>
      <point x="309" y="433"/>
      <point x="388" y="394"/>
    </contour>
    <contour>
      <point x="533" y="578" type="curve" smooth="yes"/>
      <point x="401" y="578"/>
      <point x="375" y="662"/>
      <point x="387" y="743" type="curve" smooth="yes"/>
      <point x="400" y="823"/>
      <point x="453" y="907"/>
      <point x="586" y="907" type="curve" smooth="yes"/>
      <point x="715" y="907"/>
      <point x="738" y="823"/>
      <point x="725" y="743" type="curve" smooth="yes"/>
      <point x="713" y="662"/>
      <point x="662" y="578"/>
    </contour>
  </outline>
</glyph>
<glyph name="yen" format="1">
  <advance width="1296"/>
  <unicode hex="00A5"/>
  <outline>
    <contour>
      <point x="959" y="517" type="line"/>
      <point x="978" y="642" type="line"/>
      <point x="272" y="642" type="line"/>
      <point x="253" y="517" type="line"/>
    </contour>
    <contour>
      <point x="911" y="218" type="line"/>
      <point x="930" y="344" type="line"/>
      <point x="225" y="344" type="line"/>
      <point x="206" y="218" type="line"/>
    </contour>
    <component base="Y"/>
  </outline>
</glyph>
<glyph name="brokenbar" format="1">
  <advance width="826"/>
  <unicode hex="00A6"/>
  <outline>
    <contour>
      <point x="176" y="-92" type="line"/>
      <point x="403" y="-92" type="line"/>
      <point x="518" y="636" type="line"/>
      <point x="291" y="636" type="line"/>
    </contour>
    <contour>
      <point x="312" y="771" type="line"/>
      <point x="539" y="771" type="line"/>
      <point x="643" y="1429" type="line"/>
      <point x="416" y="1429" type="line"/>
    </contour>
  </outline>
</glyph>
<glyph name="section" format="1">
  <advance width="1135"/>
  <unicode hex="00A7"/>
  <outline>
    <contour>
      <point x="16" y="141" type="line"/>
      <point x="125" y="29"/>
      <point x="274" y="-22"/>
      <point x="443" y="-22" type="curve" smooth="yes"/>
      <point x="699" y="-22"/>
      <point x="868" y="127"/>
      <point x="897" y="317" type="curve" smooth="yes"/>
      <point x="914" y="419"/>
      <point x="882" y="468"/>
      <point x="827" y="516" type="curve"/>
      <point x="924" y="585"/>
      <point x="988" y="666"/>
      <point x="1001" y="743" type="curve" smooth="yes"/>
      <point x="1009" y="801"/>
      <point x="940" y="916"/>
      <point x="826" y="986" type="curve" smooth="yes"/>
      <point x="584" y="1124" type="line" smooth="yes"/>
      <point x="548" y="1147"/>
      <point x="513" y="1169"/>
      <point x="522" y="1219" type="curve" smooth="yes"/>
      <point x="530" y="1267"/>
      <point x="612" y="1298"/>
      <point x="643" y="1298" type="curve" smooth="yes"/>
      <point x="718" y="1298"/>
      <point x="802" y="1272"/>
      <point x="917" y="1189" type="curve"/>
      <point x="1050" y="1357" type="line"/>
      <point x="998" y="1425"/>
      <point x="867" y="1514"/>
      <point x="664" y="1514" type="curve" smooth="yes"/>
      <point x="460" y="1514"/>
      <point x="257" y="1430"/>
      <point x="221" y="1200" type="curve" smooth="yes"/>
      <point x="207" y="1108"/>
      <point x="235" y="1052"/>
      <point x="293" y="1000" type="curve"/>
      <point x="210" y="951"/>
      <point x="141" y="867"/>
      <point x="130" y="792" type="curve" smooth="yes"/>
      <point x="119" y="725"/>
      <point x="157" y="611"/>
      <point x="269" y="538" type="curve" smooth="yes"/>
      <point x="508" y="392" type="line" smooth="yes"/>
      <point x="565" y="353"/>
      <point x="594" y="325"/>
      <point x="588" y="289" type="curve" smooth="yes"/>
      <point x="580" y="237"/>
      <point x="500" y="208"/>
      <point x="443" y="208" type="curve" smooth="yes"/>
      <point x="398" y="208"/>
      <point x="305" y="226"/>
      <point x="169" y="328" type="curve"/>
    </contour>
    <contour>
      <point x="726" y="584" type="curve"/>
      <point x="392" y="763" type="line" smooth="yes"/>
      <point x="337" y="793"/>
      <point x="321" y="830"/>
      <point x="331" y="880" type="curve" smooth="yes"/>
      <point x="336" y="908"/>
      <point x="367" y="934"/>
      <point x="389" y="951" type="curve"/>
      <point x="687" y="777" type="line"/>
      <point x="764" y="736"/>
      <point x="764" y="677"/>
      <point x="757" y="642" type="curve" smooth="yes"/>
      <point x="756" y="623"/>
      <point x="743" y="600"/>
    </contour>
  </outline>
</glyph>
<glyph name="dieresis" format="1">
  <advance width="932"/>
  <unicode hex="00A8"/>
  <outline>
    <contour>
      <point x="448" y="1082" type="move" name="_top"/>
    </contour>
    <contour>
      <point x="69" y="1185" type="line"/>
      <point x="368" y="1185" type="line"/>
      <point x="408" y="1449" type="line"/>
      <point x="110" y="1449" type="line"/>
    </contour>
    <contour>
      <point x="581" y="1185" type="line"/>
      <point x="882" y="1185" type="line"/>
      <point x="923" y="1449" type="line"/>
      <point x="622" y="1449" type="line"/>
    </contour>
  </outline>
</glyph>
<glyph name="copyright" format="1">
  <advance width="1771"/>
  <unicode hex="00A9"/>
  <outline>
    <contour>
      <point x="828" y="287" type="curve" smooth="yes"/>
      <point x="1104" y="287"/>
      <point x="1175" y="422"/>
      <point x="1203" y="598" type="curve" smooth="yes"/>
      <point x="1208" y="632" type="line"/>
      <point x="1092" y="632" type="line"/>
      <point x="1082" y="571" type="line" smooth="yes"/>
      <point x="1058" y="419"/>
      <point x="995" y="376"/>
      <point x="842" y="376" type="curve" smooth="yes"/>
      <point x="690" y="376"/>
      <point x="617" y="419"/>
      <point x="641" y="571" type="curve" smooth="yes"/>
      <point x="692" y="890" type="line" smooth="yes"/>
      <point x="716" y="1042"/>
      <point x="804" y="1091"/>
      <point x="955" y="1091" type="curve" smooth="yes"/>
      <point x="1107" y="1091"/>
      <point x="1157" y="1042"/>
      <point x="1133" y="890" type="curve" smooth="yes"/>
      <point x="1123" y="826" type="line"/>
      <point x="1240" y="836" type="line"/>
      <point x="1244" y="861" type="line" smooth="yes"/>
      <point x="1273" y="1043"/>
      <point x="1246" y="1182"/>
      <point x="969" y="1182" type="curve" smooth="yes"/>
      <point x="681" y="1182"/>
      <point x="597" y="1050"/>
      <point x="568" y="868" type="curve" smooth="yes"/>
      <point x="524" y="590" type="line" smooth="yes"/>
      <point x="496" y="411"/>
      <point x="541" y="287"/>
    </contour>
    <contour>
      <point x="787" y="82" type="curve" smooth="yes"/>
      <point x="423" y="82"/>
      <point x="201" y="357"/>
      <point x="259" y="722" type="curve" smooth="yes"/>
      <point x="317" y="1086"/>
      <point x="625" y="1361"/>
      <point x="989" y="1361" type="curve" smooth="yes"/>
      <point x="1355" y="1361"/>
      <point x="1574" y="1086"/>
      <point x="1516" y="722" type="curve" smooth="yes"/>
      <point x="1458" y="357"/>
      <point x="1153" y="82"/>
    </contour>
    <contour>
      <point x="770" y="-14" type="curve" smooth="yes"/>
      <point x="1186" y="-14"/>
      <point x="1556" y="303"/>
      <point x="1622" y="722" type="curve" smooth="yes"/>
      <point x="1688" y="1139"/>
      <point x="1418" y="1456"/>
      <point x="1002" y="1456" type="curve" smooth="yes"/>
      <point x="589" y="1456"/>
      <point x="216" y="1139"/>
      <point x="150" y="722" type="curve" smooth="yes"/>
      <point x="84" y="303"/>
      <point x="357" y="-14"/>
    </contour>
  </outline>
</glyph>
<glyph name="logicalnot" format="1">
  <advance width="1120"/>
  <unicode hex="00AC"/>
  <outline>
    <contour>
      <point x="724" y="162" type="line"/>
      <point x="882" y="162" type="line"/>
      <point x="983" y="796" type="line"/>
      <point x="198" y="796" type="line"/>
      <point x="167" y="606" type="line"/>
      <point x="794" y="606" type="line"/>
    </contour>
  </outline>
</glyph>
<glyph name="registered" format="1">
  <advance width="1771"/>
  <unicode hex="00AE"/>
  <outline>
    <contour>
      <point x="526" y="319" type="line"/>
      <point x="657" y="319" type="line"/>
      <point x="710" y="652" type="line"/>
      <point x="969" y="652" type="line"/>
      <point x="1096" y="319" type="line"/>
      <point x="1224" y="319" type="line"/>
      <point x="1095" y="666" type="line"/>
      <point x="1191" y="691"/>
      <point x="1262" y="760"/>
      <point x="1283" y="894" type="curve" smooth="yes"/>
      <point x="1286" y="908" type="line" smooth="yes"/>
      <point x="1309" y="1082"/>
      <point x="1218" y="1153"/>
      <point x="1061" y="1153" type="curve" smooth="yes"/>
      <point x="658" y="1153" type="line"/>
    </contour>
    <contour>
      <point x="724" y="742" type="line"/>
      <point x="775" y="1062" type="line"/>
      <point x="1051" y="1062" type="line" smooth="yes"/>
      <point x="1169" y="1062"/>
      <point x="1162" y="960"/>
      <point x="1153" y="901" type="curve" smooth="yes"/>
      <point x="1149" y="877" type="line"/>
      <point x="1138" y="814"/>
      <point x="1105" y="742"/>
      <point x="991" y="742" type="curve" smooth="yes"/>
    </contour>
    <contour>
      <point x="787" y="82" type="curve" smooth="yes"/>
      <point x="423" y="82"/>
      <point x="201" y="357"/>
      <point x="259" y="722" type="curve" smooth="yes"/>
      <point x="317" y="1086"/>
      <point x="625" y="1361"/>
      <point x="989" y="1361" type="curve" smooth="yes"/>
      <point x="1355" y="1361"/>
      <point x="1574" y="1086"/>
      <point x="1516" y="722" type="curve" smooth="yes"/>
      <point x="1458" y="357"/>
      <point x="1153" y="82"/>
    </contour>
    <contour>
      <point x="770" y="-14" type="curve" smooth="yes"/>
      <point x="1186" y="-14"/>
      <point x="1556" y="303"/>
      <point x="1622" y="722" type="curve" smooth="yes"/>
      <point x="1688" y="1139"/>
      <point x="1418" y="1456"/>
      <point x="1002" y="1456" type="curve" smooth="yes"/>
      <point x="589" y="1456"/>
      <point x="216" y="1139"/>
      <point x="150" y="722" type="curve" smooth="yes"/>
      <point x="84" y="303"/>
      <point x="357" y="-14"/>
    </contour>
  </outline>
</glyph>
<glyph name="macron" format="1">
  <advance width="510"/>
  <unicode hex="00AF"/>
  <outline>
    <contour>
      <point x="225" y="1082" type="move" name="_top"/>
    </contour>
    <contour>
      <point x="259" y="1290" type="move" name="_mid"/>
    </contour>
    <contour>
      <point x="-82" y="1209" type="line"/>
      <point x="567" y="1209" type="line"/>
      <point x="591" y="1372" type="line"/>
      <point x="-58" y="1372" type="line"/>
    </contour>
  </outline>
</glyph>
<glyph name="degree" format="1">
  <advance width="937"/>
  <unicode hex="00B0"/>
  <outline>
    <contour>
      <point x="446" y="1056" type="curve" smooth="yes"/>
      <point x="304" y="1056"/>
      <point x="273" y="1136"/>
      <point x="286" y="1216" type="curve" smooth="yes"/>
      <point x="298" y="1292"/>
      <point x="354" y="1375"/>
      <point x="496" y="1375" type="curve" smooth="yes"/>
      <point x="635" y="1375"/>
      <point x="664" y="1292"/>
      <point x="653" y="1216" type="curve" smooth="yes"/>
      <point x="640" y="1136"/>
      <point x="583" y="1056"/>
    </contour>
    <contour>
      <point x="419" y="881" type="curve" smooth="yes"/>
      <point x="690" y="881"/>
      <point x="822" y="1050"/>
      <point x="848" y="1215" type="curve" smooth="yes"/>
      <point x="875" y="1382"/>
      <point x="795" y="1550"/>
      <point x="524" y="1550" type="curve" smooth="yes"/>
      <point x="249" y="1550"/>
      <point x="115" y="1382"/>
      <point x="88" y="1215" type="curve" smooth="yes"/>
      <point x="62" y="1050"/>
      <point x="142" y="881"/>
    </contour>
  </outline>
</glyph>
<glyph name="plusminus" format="1">
  <advance width="1014"/>
  <unicode hex="00B1"/>
  <outline>
    <contour>
      <point x="380" y="321" type="line"/>
      <point x="573" y="321" type="line"/>
      <point x="613" y="579" type="line"/>
      <point x="874" y="579" type="line"/>
      <point x="905" y="772" type="line"/>
      <point x="644" y="772" type="line"/>
      <point x="686" y="1034" type="line"/>
      <point x="493" y="1034" type="line"/>
      <point x="451" y="772" type="line"/>
      <point x="190" y="772" type="line"/>
      <point x="159" y="579" type="line"/>
      <point x="420" y="579" type="line"/>
    </contour>
    <contour>
      <point x="67" y="0" type="line"/>
      <point x="782" y="0" type="line"/>
      <point x="814" y="192" type="line"/>
      <point x="99" y="192" type="line"/>
    </contour>
  </outline>
</glyph>
<glyph name="twosuperior" format="1">
  <advance width="978"/>
  <unicode hex="00B2"/>
  <outline>
    <contour>
      <point x="77" y="582" type="line"/>
      <point x="751" y="582" type="line"/>
      <point x="780" y="754" type="line"/>
      <point x="346" y="754" type="line"/>
      <point x="640" y="969" type="line" smooth="yes"/>
      <point x="798" y="1077"/>
      <point x="871" y="1162"/>
      <point x="889" y="1281" type="curve" smooth="yes"/>
      <point x="915" y="1438"/>
      <point x="846" y="1581"/>
      <point x="559" y="1581" type="curve" smooth="yes"/>
      <point x="253" y="1581"/>
      <point x="158" y="1480"/>
      <point x="119" y="1248" type="curve"/>
      <point x="355" y="1248" type="line"/>
      <point x="377" y="1372"/>
      <point x="415" y="1409"/>
      <point x="541" y="1409" type="curve" smooth="yes"/>
      <point x="655" y="1409"/>
      <point x="678" y="1356"/>
      <point x="664" y="1279" type="curve" smooth="yes"/>
      <point x="657" y="1226"/>
      <point x="632" y="1184"/>
      <point x="518" y="1100" type="curve" smooth="yes"/>
      <point x="73" y="750" type="line"/>
    </contour>
  </outline>
</glyph>
<glyph name="threesuperior" format="1">
  <advance width="853"/>
  <unicode hex="00B3"/>
  <outline>
    <contour>
      <point x="335" y="573" type="curve" smooth="yes"/>
      <point x="552" y="572"/>
      <point x="701" y="652"/>
      <point x="730" y="843" type="curve" smooth="yes"/>
      <point x="749" y="965"/>
      <point x="717" y="1046"/>
      <point x="604" y="1080" type="curve"/>
      <point x="721" y="1098"/>
      <point x="785" y="1207"/>
      <point x="797" y="1327" type="curve" smooth="yes"/>
      <point x="814" y="1519"/>
      <point x="690" y="1581"/>
      <point x="490" y="1581" type="curve" smooth="yes"/>
      <point x="264" y="1581"/>
      <point x="159" y="1457"/>
      <point x="127" y="1268" type="curve"/>
      <point x="352" y="1268" type="line"/>
      <point x="367" y="1352"/>
      <point x="377" y="1406"/>
      <point x="464" y="1406" type="curve" smooth="yes"/>
      <point x="560" y="1406"/>
      <point x="567" y="1359"/>
      <point x="556" y="1290" type="curve" smooth="yes"/>
      <point x="540" y="1185"/>
      <point x="484" y="1163"/>
      <point x="352" y="1162" type="curve"/>
      <point x="325" y="1001" type="line"/>
      <point x="474" y="1000"/>
      <point x="506" y="965"/>
      <point x="489" y="856" type="curve" smooth="yes"/>
      <point x="476" y="781"/>
      <point x="450" y="752"/>
      <point x="357" y="752" type="curve" smooth="yes"/>
      <point x="271" y="752"/>
      <point x="282" y="813"/>
      <point x="291" y="886" type="curve"/>
      <point x="65" y="886" type="line"/>
      <point x="36" y="695"/>
      <point x="134" y="575"/>
    </contour>
  </outline>
</glyph>
<glyph name="acute" format="1">
  <advance width="517"/>
  <unicode hex="00B4"/>
  <outline>
    <contour>
      <point x="64" y="1082" type="move" name="_top"/>
    </contour>
    <contour>
      <point x="19" y="1226" type="line"/>
      <point x="180" y="1226" type="line"/>
      <point x="469" y="1582" type="line"/>
      <point x="175" y="1582" type="line"/>
    </contour>
  </outline>
</glyph>
<glyph name="paragraph" format="1">
  <advance width="1205"/>
  <unicode hex="00B6"/>
  <outline>
    <contour>
      <point x="285" y="126" type="line"/>
      <point x="470" y="126" type="line"/>
      <point x="661" y="1332" type="line"/>
      <point x="947" y="1332" type="line"/>
      <point x="756" y="126" type="line"/>
      <point x="950" y="126" type="line"/>
      <point x="1167" y="1494" type="line"/>
      <point x="505" y="1494" type="line" smooth="yes"/>
      <point x="311" y="1494"/>
      <point x="145" y="1399"/>
      <point x="111" y="1183" type="curve" smooth="yes"/>
      <point x="75" y="955"/>
      <point x="192" y="850"/>
      <point x="400" y="851" type="curve"/>
    </contour>
  </outline>
</glyph>
<glyph name="periodcentered" format="1">
  <advance width="379"/>
  <unicode hex="00B7"/>
  <outline>
    <contour>
      <point x="-60" y="1015" type="move" name="_mid"/>
    </contour>
    <contour>
      <point x="144" y="875" type="line"/>
      <point x="418" y="875" type="line"/>
      <point x="460" y="1143" type="line"/>
      <point x="186" y="1143" type="line"/>
    </contour>
  </outline>
</glyph>
<glyph name="cedilla" format="1">
  <advance width="512"/>
  <unicode hex="00B8"/>
  <outline>
    <contour>
      <point x="227" y="0" type="move" name="_bot"/>
    </contour>
    <contour>
      <point x="177" y="-483" type="curve" smooth="yes"/>
      <point x="340" y="-483"/>
      <point x="434" y="-394"/>
      <point x="450" y="-300" type="curve" smooth="yes"/>
      <point x="463" y="-209"/>
      <point x="453" y="-115"/>
      <point x="309" y="-89" type="curve"/>
      <point x="321" y="16" type="line"/>
      <point x="188" y="16" type="line"/>
      <point x="160" y="-164" type="line"/>
      <point x="255" y="-167"/>
      <point x="287" y="-223"/>
      <point x="278" y="-272" type="curve" smooth="yes"/>
      <point x="270" y="-323"/>
      <point x="229" y="-351"/>
      <point x="163" y="-351" type="curve" smooth="yes"/>
      <point x="145" y="-351"/>
      <point x="125" y="-349"/>
      <point x="103" y="-344" type="curve"/>
      <point x="81" y="-473" type="line"/>
      <point x="116" y="-481"/>
      <point x="147" y="-483"/>
    </contour>
  </outline>
</glyph>
<glyph name="onesuperior" format="1">
  <advance width="1173"/>
  <unicode hex="00B9"/>
  <outline>
    <contour>
      <point x="138" y="582" type="line"/>
      <point x="922" y="582" type="line"/>
      <point x="947" y="741" type="line"/>
      <point x="687" y="741" type="line"/>
      <point x="818" y="1563" type="line"/>
      <point x="666" y="1563" type="line"/>
      <point x="277" y="1507" type="line"/>
      <point x="271" y="1341" type="line"/>
      <point x="555" y="1381" type="line"/>
      <point x="454" y="741" type="line"/>
      <point x="164" y="741" type="line"/>
    </contour>
  </outline>
</glyph>
<glyph name="guillemotright" format="1">
  <advance width="1006"/>
  <unicode hex="00BB"/>
  <outline>
    <contour>
      <point x="245" y="80" type="line"/>
      <point x="589" y="530" type="line"/>
      <point x="380" y="980" type="line"/>
      <point x="231" y="910" type="line"/>
      <point x="376" y="530" type="line"/>
      <point x="111" y="150" type="line"/>
    </contour>
    <contour>
      <point x="659" y="80" type="line"/>
      <point x="1003" y="530" type="line"/>
      <point x="794" y="980" type="line"/>
      <point x="643" y="910" type="line"/>
      <point x="790" y="530" type="line"/>
      <point x="523" y="150" type="line"/>
    </contour>
  </outline>
</glyph>
<glyph name="onequarter" format="1">
  <advance width="2665"/>
  <unicode hex="00BC"/>
  <outline>
    <contour>
      <point x="2053" y="0" type="line"/>
      <point x="2239" y="0" type="line"/>
      <point x="2272" y="212" type="line"/>
      <point x="2455" y="212" type="line"/>
      <point x="2488" y="418" type="line"/>
      <point x="2306" y="418" type="line"/>
      <point x="2344" y="664" type="line"/>
      <point x="2158" y="664" type="line"/>
      <point x="2119" y="418" type="line"/>
      <point x="1810" y="418" type="line"/>
      <point x="2153" y="1183" type="line"/>
      <point x="1932" y="1183" type="line"/>
      <point x="1576" y="411" type="line"/>
      <point x="1545" y="212" type="line"/>
      <point x="2086" y="212" type="line"/>
    </contour>
    <contour>
      <point x="38" y="283" type="line"/>
      <point x="816" y="283" type="line"/>
      <point x="843" y="457" type="line"/>
      <point x="588" y="457" type="line"/>
      <point x="747" y="1460" type="line"/>
      <point x="578" y="1460" type="line"/>
      <point x="204" y="1395" type="line"/>
      <point x="199" y="1226" type="line"/>
      <point x="457" y="1272" type="line"/>
      <point x="328" y="457" type="line"/>
      <point x="63" y="457" type="line"/>
    </contour>
    <contour>
      <point x="827" y="0" type="line"/>
      <point x="1026" y="0" type="line"/>
      <point x="1889" y="1540" type="line"/>
      <point x="1686" y="1540" type="line"/>
    </contour>
  </outline>
</glyph>
<glyph name="onehalf" format="1">
  <advance width="2898"/>
  <unicode hex="00BD"/>
  <outline>
    <contour>
      <point x="1815" y="-4" type="line"/>
      <point x="2543" y="-4" type="line"/>
      <point x="2574" y="195" type="line"/>
      <point x="2097" y="195" type="line"/>
      <point x="2377" y="414" type="line" smooth="yes"/>
      <point x="2537" y="543"/>
      <point x="2672" y="682"/>
      <point x="2697" y="852" type="curve" smooth="yes"/>
      <point x="2730" y="1049"/>
      <point x="2666" y="1193"/>
      <point x="2342" y="1193" type="curve" smooth="yes"/>
      <point x="1988" y="1193"/>
      <point x="1893" y="1059"/>
      <point x="1847" y="767" type="curve"/>
      <point x="2125" y="767" type="line"/>
      <point x="2151" y="931"/>
      <point x="2170" y="999"/>
      <point x="2312" y="999" type="curve" smooth="yes"/>
      <point x="2417" y="999"/>
      <point x="2443" y="949"/>
      <point x="2425" y="850" type="curve"/>
      <point x="2411" y="755"/>
      <point x="2343" y="668"/>
      <point x="2240" y="581" type="curve" smooth="yes"/>
      <point x="1781" y="198" type="line"/>
    </contour>
    <contour>
      <point x="38" y="283" type="line"/>
      <point x="816" y="283" type="line"/>
      <point x="843" y="457" type="line"/>
      <point x="588" y="457" type="line"/>
      <point x="747" y="1460" type="line"/>
      <point x="578" y="1460" type="line"/>
      <point x="206" y="1395" type="line"/>
      <point x="201" y="1226" type="line"/>
      <point x="457" y="1272" type="line"/>
      <point x="328" y="457" type="line"/>
      <point x="63" y="457" type="line"/>
    </contour>
    <contour>
      <point x="875" y="0" type="line"/>
      <point x="1074" y="0" type="line"/>
      <point x="1937" y="1540" type="line"/>
      <point x="1734" y="1540" type="line"/>
    </contour>
  </outline>
</glyph>
<glyph name="threequarters" format="1">
  <advance width="3383"/>
  <unicode hex="00BE"/>
  <outline>
    <contour>
      <point x="587" y="307" type="curve" smooth="yes"/>
      <point x="909" y="307"/>
      <point x="998" y="490"/>
      <point x="1024" y="653" type="curve" smooth="yes"/>
      <point x="1041" y="759"/>
      <point x="1041" y="876"/>
      <point x="914" y="918" type="curve"/>
      <point x="1064" y="953"/>
      <point x="1089" y="1080"/>
      <point x="1104" y="1172" type="curve" smooth="yes"/>
      <point x="1132" y="1358"/>
      <point x="1044" y="1485"/>
      <point x="788" y="1485" type="curve" smooth="yes"/>
      <point x="530" y="1485"/>
      <point x="371" y="1391"/>
      <point x="327" y="1098" type="curve"/>
      <point x="542" y="1098" type="line"/>
      <point x="564" y="1251"/>
      <point x="591" y="1298"/>
      <point x="745" y="1298" type="curve" smooth="yes"/>
      <point x="871" y="1298"/>
      <point x="899" y="1251"/>
      <point x="884" y="1157" type="curve" smooth="yes"/>
      <point x="867" y="1050"/>
      <point x="857" y="1004"/>
      <point x="659" y="1004" type="curve"/>
      <point x="630" y="828" type="line"/>
      <point x="798" y="828"/>
      <point x="824" y="782"/>
      <point x="805" y="667" type="curve" smooth="yes"/>
      <point x="789" y="562"/>
      <point x="765" y="498"/>
      <point x="633" y="498" type="curve" smooth="yes"/>
      <point x="497" y="498"/>
      <point x="449" y="515"/>
      <point x="476" y="678" type="curve"/>
      <point x="261" y="678" type="line"/>
      <point x="219" y="428"/>
      <point x="292" y="307"/>
    </contour>
    <contour>
      <point x="2117" y="0" type="line"/>
      <point x="2304" y="0" type="line"/>
      <point x="2337" y="212" type="line"/>
      <point x="2519" y="212" type="line"/>
      <point x="2553" y="418" type="line"/>
      <point x="2370" y="418" type="line"/>
      <point x="2409" y="664" type="line"/>
      <point x="2222" y="664" type="line"/>
      <point x="2184" y="418" type="line"/>
      <point x="1874" y="418" type="line"/>
      <point x="2217" y="1183" type="line"/>
      <point x="1996" y="1183" type="line"/>
      <point x="1641" y="411" type="line"/>
      <point x="1609" y="212" type="line"/>
      <point x="2150" y="212" type="line"/>
    </contour>
    <contour>
      <point x="892" y="0" type="line"/>
      <point x="1091" y="0" type="line"/>
      <point x="1953" y="1540" type="line"/>
      <point x="1750" y="1540" type="line"/>
    </contour>
  </outline>
</glyph>
<glyph name="AE" format="1">
  <advance width="1923"/>
  <unicode hex="00C6"/>
  <outline>
    <contour>
      <point x="1262" y="1494" type="move" name="top"/>
    </contour>
    <contour>
      <point x="-45" y="-2" type="line"/>
      <point x="329" y="0" type="line"/>
      <point x="457" y="280" type="line"/>
      <point x="831" y="280" type="line"/>
      <point x="786" y="0" type="line"/>
      <point x="1682" y="0" type="line"/>
      <point x="1726" y="273" type="line"/>
      <point x="1163" y="273" type="line"/>
      <point x="1219" y="634" type="line"/>
      <point x="1696" y="634" type="line"/>
      <point x="1737" y="884" type="line"/>
      <point x="1260" y="884" type="line"/>
      <point x="1313" y="1221" type="line"/>
      <point x="1865" y="1221" type="line"/>
      <point x="1908" y="1496" type="line"/>
      <point x="685" y="1496" type="line"/>
    </contour>
    <contour>
      <point x="560" y="513" type="line"/>
      <point x="907" y="1221" type="line"/>
      <point x="979" y="1221" type="line"/>
      <point x="868" y="513" type="line"/>
    </contour>
  </outline>
</glyph>
<glyph name="multiply" format="1">
  <advance width="1056"/>
  <unicode hex="00D7"/>
  <outline>
    <contour>
      <point x="224" y="216" type="line"/>
      <point x="510" y="458" type="line"/>
      <point x="720" y="216" type="line"/>
      <point x="850" y="344" type="line"/>
      <point x="650" y="576" type="line"/>
      <point x="923" y="806" type="line"/>
      <point x="834" y="937" type="line"/>
      <point x="548" y="694" type="line"/>
      <point x="338" y="937" type="line"/>
      <point x="205" y="806" type="line"/>
      <point x="408" y="576" type="line"/>
      <point x="132" y="344" type="line"/>
    </contour>
  </outline>
</glyph>
<glyph name="Oslash" format="1">
  <advance width="1642"/>
  <unicode hex="00D8"/>
  <outline>
    <contour>
      <point x="365" y="-230" type="line"/>
      <point x="1420" y="1697" type="line"/>
      <point x="1346" y="1711" type="line"/>
      <point x="290" y="-216" type="line"/>
    </contour>
    <component base="O"/>
  </outline>
</glyph>
<glyph name="Thorn" format="1">
  <advance width="1387"/>
  <unicode hex="00DE"/>
  <outline>
    <contour>
      <point x="100" y="0" type="line"/>
      <point x="454" y="0" type="line"/>
      <point x="512" y="371" type="line"/>
      <point x="712" y="371" type="line" smooth="yes"/>
      <point x="1182" y="371"/>
      <point x="1279" y="494"/>
      <point x="1334" y="834" type="curve" smooth="yes"/>
      <point x="1386" y="1168"/>
      <point x="1276" y="1259"/>
      <point x="899" y="1259" type="curve" smooth="yes"/>
      <point x="654" y="1259" type="line"/>
      <point x="691" y="1494" type="line"/>
      <point x="337" y="1494" type="line"/>
    </contour>
    <contour>
      <point x="552" y="617" type="line"/>
      <point x="616" y="1020" type="line"/>
      <point x="901" y="1020" type="line" smooth="yes"/>
      <point x="1017" y="1020"/>
      <point x="1050" y="982"/>
      <point x="1023" y="820" type="curve" smooth="yes"/>
      <point x="993" y="624"/>
      <point x="960" y="617"/>
      <point x="825" y="617" type="curve" smooth="yes"/>
    </contour>
  </outline>
</glyph>
<glyph name="germandbls" format="1">
  <advance width="1289"/>
  <unicode hex="00DF"/>
  <outline>
    <contour>
      <point x="-9" y="0" type="line"/>
      <point x="375" y="0" type="line"/>
      <point x="554" y="1128" type="line" smooth="yes"/>
      <point x="566" y="1207"/>
      <point x="572" y="1310"/>
      <point x="716" y="1310" type="curve" smooth="yes"/>
      <point x="921" y="1310"/>
      <point x="880" y="1154"/>
      <point x="873" y="1105" type="curve" smooth="yes"/>
      <point x="858" y="1008"/>
      <point x="811" y="882"/>
      <point x="651" y="882" type="curve"/>
      <point x="616" y="663" type="line"/>
      <point x="793" y="631"/>
      <point x="858" y="593"/>
      <point x="825" y="384" type="curve" smooth="yes"/>
      <point x="814" y="313"/>
      <point x="804" y="170"/>
      <point x="566" y="182" type="curve"/>
      <point x="550" y="-32" type="line"/>
      <point x="993" y="-32"/>
      <point x="1150" y="178"/>
      <point x="1177" y="347" type="curve" smooth="yes"/>
      <point x="1186" y="404"/>
      <point x="1249" y="717"/>
      <point x="871" y="784" type="curve"/>
      <point x="1078" y="838"/>
      <point x="1189" y="997"/>
      <point x="1209" y="1114" type="curve" smooth="yes"/>
      <point x="1243" y="1329"/>
      <point x="1141" y="1521"/>
      <point x="713" y="1521" type="curve" smooth="yes"/>
      <point x="356" y="1521"/>
      <point x="201" y="1319"/>
      <point x="170" y="1127" type="curve" smooth="yes"/>
    </contour>
  </outline>
</glyph>
<glyph name="ae" format="1">
  <advance width="1730"/>
  <unicode hex="00E6"/>
  <outline>
    <contour>
      <point x="972" y="1082" type="move" name="top"/>
    </contour>
    <contour>
      <point x="300" y="-24" type="curve" smooth="yes"/>
      <point x="480" y="-24"/>
      <point x="606" y="9"/>
      <point x="772" y="101" type="curve"/>
      <point x="817" y="1"/>
      <point x="939" y="-24"/>
      <point x="1094" y="-24" type="curve" smooth="yes"/>
      <point x="1384" y="-24"/>
      <point x="1554" y="30"/>
      <point x="1607" y="374" type="curve"/>
      <point x="1306" y="374" type="line"/>
      <point x="1281" y="213"/>
      <point x="1232" y="193"/>
      <point x="1135" y="193" type="curve" smooth="yes"/>
      <point x="1043" y="193"/>
      <point x="985" y="213"/>
      <point x="1003" y="317" type="curve" smooth="yes"/>
      <point x="1033" y="516" type="line"/>
      <point x="1628" y="516" type="line"/>
      <point x="1664" y="737" type="line" smooth="yes"/>
      <point x="1699" y="962"/>
      <point x="1627" y="1107"/>
      <point x="1271" y="1107" type="curve" smooth="yes"/>
      <point x="1149" y="1107"/>
      <point x="1034" y="1066"/>
      <point x="942" y="984" type="curve"/>
      <point x="903" y="1069"/>
      <point x="785" y="1107"/>
      <point x="653" y="1107" type="curve" smooth="yes"/>
      <point x="348" y="1107"/>
      <point x="189" y="931"/>
      <point x="158" y="737" type="curve" smooth="yes"/>
      <point x="154" y="712" type="line"/>
      <point x="455" y="712" type="line"/>
      <point x="463" y="753" type="line" smooth="yes"/>
      <point x="474" y="827"/>
      <point x="524" y="891"/>
      <point x="616" y="891" type="curve" smooth="yes"/>
      <point x="705" y="891"/>
      <point x="763" y="853"/>
      <point x="749" y="768" type="curve" smooth="yes"/>
      <point x="724" y="609"/>
      <point x="615" y="648"/>
      <point x="408" y="593" type="curve" smooth="yes"/>
      <point x="96" y="512"/>
      <point x="72" y="418"/>
      <point x="55" y="259" type="curve" smooth="yes"/>
      <point x="34" y="72"/>
      <point x="141" y="-24"/>
    </contour>
    <contour>
      <point x="466" y="179" type="curve" smooth="yes"/>
      <point x="388" y="179"/>
      <point x="364" y="231"/>
      <point x="371" y="294" type="curve" smooth="yes"/>
      <point x="376" y="335"/>
      <point x="369" y="425"/>
      <point x="491" y="446" type="curve" smooth="yes"/>
      <point x="557" y="457"/>
      <point x="663" y="472"/>
      <point x="705" y="494" type="curve"/>
      <point x="667" y="247" type="line"/>
      <point x="595" y="184"/>
      <point x="504" y="179"/>
    </contour>
    <contour>
      <point x="1059" y="668" type="line"/>
      <point x="1072" y="760" type="line" smooth="yes"/>
      <point x="1088" y="864"/>
      <point x="1162" y="888"/>
      <point x="1247" y="888" type="curve" smooth="yes"/>
      <point x="1334" y="888"/>
      <point x="1383" y="871"/>
      <point x="1366" y="757" type="curve" smooth="yes"/>
      <point x="1352" y="668" type="line"/>
    </contour>
  </outline>
</glyph>
<glyph name="eth" format="1">
  <advance width="1404"/>
  <unicode hex="00F0"/>
  <outline>
    <contour>
      <point x="596" y="-25" type="curve" smooth="yes"/>
      <point x="979" y="-25"/>
      <point x="1185" y="210"/>
      <point x="1234" y="517" type="curve" smooth="yes"/>
      <point x="1218" y="416" type="line" smooth="yes"/>
      <point x="1339" y="1184"/>
      <point x="1032" y="1414"/>
      <point x="779" y="1461" type="curve"/>
      <point x="863" y="1618" type="line"/>
      <point x="737" y="1678" type="line"/>
      <point x="633" y="1494" type="line"/>
      <point x="548" y="1510"/>
      <point x="459" y="1518"/>
      <point x="379" y="1517" type="curve"/>
      <point x="326" y="1327" type="line"/>
      <point x="395" y="1321"/>
      <point x="463" y="1315"/>
      <point x="526" y="1304" type="curve"/>
      <point x="461" y="1176" type="line"/>
      <point x="585" y="1116" type="line"/>
      <point x="666" y="1272" type="line"/>
      <point x="780" y="1257"/>
      <point x="904" y="1154"/>
      <point x="906" y="927" type="curve"/>
      <point x="882" y="950"/>
      <point x="707" y="975"/>
      <point x="671" y="975" type="curve" smooth="yes"/>
      <point x="408" y="975"/>
      <point x="179" y="846"/>
      <point x="140" y="601" type="curve" smooth="yes"/>
      <point x="102" y="359" type="line" smooth="yes"/>
      <point x="63" y="118"/>
      <point x="224" y="-25"/>
    </contour>
    <contour>
      <point x="634" y="212" type="curve" smooth="yes"/>
      <point x="455" y="212"/>
      <point x="418" y="254"/>
      <point x="433" y="348" type="curve" smooth="yes"/>
      <point x="471" y="588" type="line" smooth="yes"/>
      <point x="490" y="719"/>
      <point x="576" y="769"/>
      <point x="722" y="769" type="curve" smooth="yes"/>
      <point x="782" y="769"/>
      <point x="870" y="738"/>
      <point x="905" y="708" type="curve"/>
      <point x="908" y="577"/>
      <point x="921" y="580"/>
      <point x="905" y="469" type="curve" smooth="yes"/>
      <point x="872" y="275"/>
      <point x="835" y="212"/>
    </contour>
  </outline>
</glyph>
<glyph name="divide" format="1">
  <advance width="991"/>
  <unicode hex="00F7"/>
  <outline>
    <contour>
      <point x="301" y="96" type="line"/>
      <point x="543" y="96" type="line"/>
      <point x="581" y="337" type="line"/>
      <point x="339" y="337" type="line"/>
    </contour>
    <contour>
      <point x="107" y="483" type="line"/>
      <point x="860" y="483" type="line"/>
      <point x="887" y="662" type="line"/>
      <point x="134" y="662" type="line"/>
    </contour>
    <contour>
      <point x="410" y="795" type="line"/>
      <point x="652" y="795" type="line"/>
      <point x="690" y="1036" type="line"/>
      <point x="448" y="1036" type="line"/>
    </contour>
  </outline>
</glyph>
<glyph name="oslash" format="1">
  <advance width="1184"/>
  <unicode hex="00F8"/>
  <outline>
    <contour>
      <point x="693" y="1082" type="move" name="top"/>
    </contour>
    <contour>
      <point x="251" y="-207" type="line"/>
      <point x="1010" y="1284" type="line"/>
      <point x="950" y="1299" type="line"/>
      <point x="193" y="-193" type="line"/>
    </contour>
    <component base="o"/>
  </outline>
</glyph>
<glyph name="thorn" format="1">
  <advance width="1223"/>
  <unicode hex="00FE"/>
  <outline>
    <contour>
      <point x="-7" y="-411" type="line"/>
      <point x="317" y="-411" type="line"/>
      <point x="384" y="7" type="line"/>
      <point x="434" y="-14"/>
      <point x="493" y="-24"/>
      <point x="558" y="-24" type="curve" smooth="yes"/>
      <point x="877" y="-24"/>
      <point x="1037" y="149"/>
      <point x="1063" y="315" type="curve" smooth="yes"/>
      <point x="1134" y="764" type="line" smooth="yes"/>
      <point x="1167" y="971"/>
      <point x="1027" y="1106"/>
      <point x="773" y="1106" type="curve" smooth="yes"/>
      <point x="693" y="1106"/>
      <point x="620" y="1090"/>
      <point x="550" y="1061" type="curve"/>
      <point x="624" y="1522" type="line"/>
      <point x="299" y="1522" type="line"/>
    </contour>
    <contour>
      <point x="564" y="194" type="curve" smooth="yes"/>
      <point x="461" y="194"/>
      <point x="416" y="237"/>
      <point x="420" y="233" type="curve"/>
      <point x="518" y="851" type="line"/>
      <point x="564" y="885"/>
      <point x="623" y="889"/>
      <point x="684" y="889" type="curve" smooth="yes"/>
      <point x="782" y="889"/>
      <point x="825" y="858"/>
      <point x="810" y="763" type="curve" smooth="yes"/>
      <point x="740" y="318" type="line" smooth="yes"/>
      <point x="725" y="221"/>
      <point x="672" y="194"/>
    </contour>
  </outline>
</glyph>
<glyph name="Hbar" format="1">
  <advance width="1677"/>
  <unicode hex="0126"/>
  <outline>
    <contour>
      <point x="115" y="1175" type="line"/>
      <point x="1696" y="1175" type="line"/>
      <point x="1711" y="1267" type="line"/>
      <point x="131" y="1267" type="line"/>
    </contour>
    <component base="H"/>
  </outline>
</glyph>
<glyph name="hbar" format="1">
  <advance width="1272"/>
  <unicode hex="0127"/>
  <outline>
    <contour>
      <point x="60" y="1204" type="line"/>
      <point x="739" y="1204" type="line"/>
      <point x="764" y="1359" type="line"/>
      <point x="85" y="1359" type="line"/>
    </contour>
    <component base="h"/>
  </outline>
</glyph>
<glyph name="dotlessi" format="1">
  <advance width="578"/>
  <unicode hex="0131"/>
  <outline>
    <contour>
      <point x="393" y="1082" type="move" name="top"/>
    </contour>
    <contour>
      <point x="226" y="0" type="move" name="ogonek"/>
    </contour>
    <contour>
      <point x="71" y="0" type="line"/>
      <point x="360" y="0" type="line"/>
      <point x="531" y="1082" type="line"/>
      <point x="242" y="1082" type="line"/>
    </contour>
  </outline>
</glyph>
<glyph name="kgreenlandic" format="1">
  <advance width="1252"/>
  <unicode hex="0138"/>
  <outline>
    <contour>
      <point x="76" y="0" type="line"/>
      <point x="400" y="0" type="line"/>
      <point x="464" y="404" type="line"/>
      <point x="540" y="474" type="line"/>
      <point x="754" y="0" type="line"/>
      <point x="1145" y="0" type="line"/>
      <point x="847" y="618" type="line"/>
      <point x="1309" y="1082" type="line"/>
      <point x="915" y="1082" type="line"/>
      <point x="936" y="1103"/>
      <point x="482" y="636"/>
      <point x="504" y="657" type="curve"/>
      <point x="572" y="1082" type="line"/>
      <point x="248" y="1082" type="line"/>
    </contour>
  </outline>
</glyph>
<glyph name="lslash" format="1">
  <advance width="708"/>
  <unicode hex="0142"/>
  <outline>
    <contour>
      <point x="4" y="718" type="line"/>
      <point x="624" y="932" type="line"/>
      <point x="649" y="1088" type="line"/>
      <point x="27" y="873" type="line"/>
    </contour>
    <component base="l"/>
  </outline>
</glyph>
<glyph name="Eng" format="1">
  <advance width="1675"/>
  <unicode hex="014A"/>
  <outline>
    <contour>
      <point x="800" y="-387" type="line"/>
      <point x="1309" y="-387"/>
      <point x="1380" y="-195"/>
      <point x="1440" y="186" type="curve" smooth="yes"/>
      <point x="1647" y="1496" type="line"/>
      <point x="1326" y="1496" type="line"/>
      <point x="1187" y="614" type="line"/>
      <point x="594" y="1496" type="line"/>
      <point x="326" y="1496" type="line"/>
      <point x="89" y="0" type="line"/>
      <point x="411" y="0" type="line"/>
      <point x="559" y="931" type="line"/>
      <point x="1108" y="131" type="line"/>
      <point x="1105" y="118" type="line" smooth="yes"/>
      <point x="1064" y="-136"/>
      <point x="1036" y="-148"/>
      <point x="807" y="-168" type="curve"/>
    </contour>
  </outline>
</glyph>
<glyph name="eng" format="1">
  <advance width="1271"/>
  <unicode hex="014B"/>
  <outline>
    <contour>
      <point x="381" y="-394" type="line"/>
      <point x="881" y="-394"/>
      <point x="1041" y="-226"/>
      <point x="1101" y="155" type="curve" smooth="yes"/>
      <point x="1205" y="808" type="line" smooth="yes"/>
      <point x="1234" y="997"/>
      <point x="1089" y="1107"/>
      <point x="916" y="1107" type="curve" smooth="yes"/>
      <point x="770" y="1107"/>
      <point x="612" y="1031"/>
      <point x="561" y="943" type="curve"/>
      <point x="583" y="1082" type="line"/>
      <point x="259" y="1082" type="line"/>
      <point x="88" y="0" type="line"/>
      <point x="412" y="0" type="line"/>
      <point x="532" y="760" type="line" smooth="yes"/>
      <point x="550" y="867"/>
      <point x="680" y="890"/>
      <point x="728" y="890" type="curve" smooth="yes"/>
      <point x="784" y="890"/>
      <point x="892" y="878"/>
      <point x="874" y="760" type="curve" smooth="yes"/>
      <point x="776" y="148" type="line" smooth="yes"/>
      <point x="727" y="-164"/>
      <point x="635" y="-140"/>
      <point x="387" y="-175" type="curve"/>
    </contour>
  </outline>
</glyph>
<glyph name="OE" format="1">
  <advance width="1679"/>
  <unicode hex="0152"/>
  <outline>
    <contour>
      <point x="564" y="0" type="curve" smooth="yes"/>
      <point x="1454" y="0" type="line"/>
      <point x="1487" y="214" type="line"/>
      <point x="1179" y="214" type="line"/>
      <point x="1250" y="666" type="line"/>
      <point x="1464" y="666" type="line"/>
      <point x="1500" y="884" type="line"/>
      <point x="1286" y="884" type="line"/>
      <point x="1349" y="1282" type="line"/>
      <point x="1659" y="1282" type="line"/>
      <point x="1692" y="1494" type="line"/>
      <point x="800" y="1494" type="line" smooth="yes"/>
      <point x="367" y="1492"/>
      <point x="228" y="1261"/>
      <point x="184" y="982" type="curve" smooth="yes"/>
      <point x="107" y="504" type="line" smooth="yes"/>
      <point x="62" y="212"/>
      <point x="132" y="0"/>
    </contour>
    <contour>
      <point x="599" y="216" type="line"/>
      <point x="396" y="216"/>
      <point x="394" y="348"/>
      <point x="405" y="423" type="curve" smooth="yes"/>
      <point x="507" y="1062" type="line" smooth="yes"/>
      <point x="520" y="1139"/>
      <point x="565" y="1269"/>
      <point x="765" y="1269" type="curve" smooth="yes"/>
      <point x="1036" y="1269" type="line"/>
      <point x="868" y="216" type="line"/>
    </contour>
  </outline>
</glyph>
<glyph name="oe" format="1">
  <advance width="1808"/>
  <unicode hex="0153"/>
  <outline>
    <contour>
      <point x="503" y="-25" type="curve" smooth="yes"/>
      <point x="646" y="-25"/>
      <point x="759" y="15"/>
      <point x="844" y="71" type="curve"/>
      <point x="923" y="8"/>
      <point x="1033" y="-25"/>
      <point x="1146" y="-25" type="curve" smooth="yes"/>
      <point x="1436" y="-25"/>
      <point x="1630" y="28"/>
      <point x="1683" y="373" type="curve"/>
      <point x="1379" y="373" type="line"/>
      <point x="1356" y="212"/>
      <point x="1285" y="193"/>
      <point x="1189" y="193" type="curve" smooth="yes"/>
      <point x="1095" y="193"/>
      <point x="1027" y="213"/>
      <point x="1045" y="317" type="curve" smooth="yes"/>
      <point x="1076" y="516" type="line"/>
      <point x="1706" y="516" type="line"/>
      <point x="1741" y="737" type="line" smooth="yes"/>
      <point x="1776" y="962"/>
      <point x="1679" y="1107"/>
      <point x="1323" y="1107" type="curve" smooth="yes"/>
      <point x="1201" y="1107"/>
      <point x="1084" y="1072"/>
      <point x="987" y="993" type="curve"/>
      <point x="916" y="1070"/>
      <point x="812" y="1107"/>
      <point x="683" y="1107" type="curve" smooth="yes"/>
      <point x="398" y="1107"/>
      <point x="179" y="984"/>
      <point x="142" y="750" type="curve" smooth="yes"/>
      <point x="76" y="331" type="line" smooth="yes"/>
      <point x="40" y="107"/>
      <point x="152" y="-25"/>
    </contour>
    <contour>
      <point x="538" y="193" type="curve" smooth="yes"/>
      <point x="429" y="193"/>
      <point x="382" y="226"/>
      <point x="398" y="322" type="curve" smooth="yes"/>
      <point x="468" y="761" type="line" smooth="yes"/>
      <point x="482" y="856"/>
      <point x="549" y="888"/>
      <point x="648" y="888" type="curve" smooth="yes"/>
      <point x="758" y="888"/>
      <point x="806" y="858"/>
      <point x="791" y="761" type="curve" smooth="yes"/>
      <point x="721" y="322" type="line" smooth="yes"/>
      <point x="705" y="225"/>
      <point x="637" y="193"/>
    </contour>
    <contour>
      <point x="1101" y="668" type="line"/>
      <point x="1114" y="760" type="line" smooth="yes"/>
      <point x="1130" y="864"/>
      <point x="1215" y="888"/>
      <point x="1300" y="888" type="curve" smooth="yes"/>
      <point x="1387" y="888"/>
      <point x="1460" y="871"/>
      <point x="1442" y="757" type="curve" smooth="yes"/>
      <point x="1428" y="668" type="line"/>
    </contour>
  </outline>
</glyph>
<glyph name="florin" format="1">
  <advance width="1104"/>
  <unicode hex="0192"/>
  <outline>
    <contour>
      <point x="298" y="-214" type="curve" smooth="yes"/>
      <point x="542" y="-214"/>
      <point x="560" y="-48"/>
      <point x="585" y="107" type="curve" smooth="yes"/>
      <point x="713" y="913" type="line"/>
      <point x="910" y="913" type="line"/>
      <point x="928" y="1024" type="line"/>
      <point x="730" y="1024" type="line"/>
      <point x="762" y="1225" type="line" smooth="yes"/>
      <point x="774" y="1292"/>
      <point x="789" y="1354"/>
      <point x="863" y="1354" type="curve" smooth="yes"/>
      <point x="879" y="1354"/>
      <point x="909" y="1346"/>
      <point x="937" y="1345" type="curve"/>
      <point x="962" y="1506" type="line"/>
      <point x="901" y="1513"/>
      <point x="872" y="1515"/>
      <point x="831" y="1515" type="curve" smooth="yes"/>
      <point x="587" y="1515"/>
      <point x="567" y="1350"/>
      <point x="543" y="1197" type="curve" smooth="yes"/>
      <point x="515" y="1024" type="line"/>
      <point x="350" y="1024" type="line"/>
      <point x="332" y="913" type="line"/>
      <point x="497" y="913" type="line"/>
      <point x="365" y="81" type="line" smooth="yes"/>
      <point x="355" y="12"/>
      <point x="343" y="-53"/>
      <point x="265" y="-53" type="curve" smooth="yes"/>
      <point x="250" y="-53"/>
      <point x="218" y="-48"/>
      <point x="191" y="-43" type="curve"/>
      <point x="166" y="-204" type="line"/>
      <point x="228" y="-212"/>
      <point x="257" y="-214"/>
    </contour>
  </outline>
</glyph>
<glyph name="dotlessj" format="1">
  <advance width="720"/>
  <unicode hex="0237"/>
  <outline>
    <contour>
      <point x="502" y="1082" type="move" name="top"/>
    </contour>
    <contour>
      <point x="-101" y="-315" type="line"/>
      <point x="34" y="-315" type="line" smooth="yes"/>
      <point x="337" y="-315"/>
      <point x="471" y="-110"/>
      <point x="496" y="44" type="curve" smooth="yes"/>
      <point x="660" y="1082" type="line"/>
      <point x="336" y="1082" type="line"/>
      <point x="176" y="71" type="line" smooth="yes"/>
      <point x="172" y="42"/>
      <point x="134" y="-98"/>
      <point x="-10" y="-98" type="curve" smooth="yes"/>
      <point x="-65" y="-98" type="line"/>
    </contour>
  </outline>
</glyph>
<glyph name="circumflex" format="1">
  <advance width="512"/>
  <unicode hex="02C6"/>
  <outline>
    <contour>
      <point x="234" y="1082" type="move" name="_top"/>
    </contour>
    <contour>
      <point x="-118" y="1173" type="line"/>
      <point x="142" y="1173" type="line"/>
      <point x="267" y="1316" type="line"/>
      <point x="339" y="1173" type="line"/>
      <point x="593" y="1173" type="line"/>
      <point x="432" y="1491" type="line"/>
      <point x="162" y="1491" type="line"/>
    </contour>
  </outline>
</glyph>
<glyph name="caron" format="1">
  <advance width="512"/>
  <unicode hex="02C7"/>
  <outline>
    <contour>
      <point x="234" y="1082" type="move" name="_top"/>
    </contour>
    <contour>
      <point x="381" y="1173" type="line"/>
      <point x="645" y="1491" type="line"/>
      <point x="390" y="1491" type="line"/>
      <point x="273" y="1348" type="line"/>
      <point x="193" y="1491" type="line"/>
      <point x="-67" y="1491" type="line"/>
      <point x="111" y="1173" type="line"/>
    </contour>
  </outline>
</glyph>
<glyph name="breve" format="1">
  <advance width="512"/>
  <unicode hex="02D8"/>
  <outline>
    <contour>
      <point x="231" y="1082" type="move" name="_top"/>
    </contour>
    <contour>
      <point x="233" y="1171" type="curve" smooth="yes"/>
      <point x="354" y="1171"/>
      <point x="513" y="1207"/>
      <point x="553" y="1458" type="curve"/>
      <point x="399" y="1458" type="line"/>
      <point x="384" y="1372"/>
      <point x="322" y="1352"/>
      <point x="262" y="1352" type="curve" smooth="yes"/>
      <point x="203" y="1352"/>
      <point x="145" y="1372"/>
      <point x="160" y="1458" type="curve"/>
      <point x="5" y="1458" type="line"/>
      <point x="-35" y="1207"/>
      <point x="111" y="1171"/>
    </contour>
  </outline>
</glyph>
<glyph name="dotaccent" format="1">
  <advance width="475"/>
  <unicode hex="02D9"/>
  <outline>
    <contour>
      <point x="216" y="1082" type="move" name="_top"/>
    </contour>
    <contour>
      <point x="75" y="1205" type="line"/>
      <point x="388" y="1205" type="line"/>
      <point x="433" y="1487" type="line"/>
      <point x="120" y="1487" type="line"/>
    </contour>
  </outline>
</glyph>
<glyph name="ring" format="1">
  <advance width="640"/>
  <unicode hex="02DA"/>
  <outline>
    <contour>
      <point x="267" y="1082" type="move" name="_top"/>
    </contour>
    <contour>
      <point x="300" y="1294" type="curve" smooth="yes"/>
      <point x="226" y="1294"/>
      <point x="181" y="1321"/>
      <point x="197" y="1424" type="curve" smooth="yes"/>
      <point x="212" y="1525"/>
      <point x="266" y="1553"/>
      <point x="340" y="1553" type="curve" smooth="yes"/>
      <point x="414" y="1553"/>
      <point x="459" y="1525"/>
      <point x="443" y="1422" type="curve" smooth="yes"/>
      <point x="428" y="1320"/>
      <point x="373" y="1294"/>
    </contour>
    <contour>
      <point x="282" y="1189" type="curve" smooth="yes"/>
      <point x="451" y="1189"/>
      <point x="549" y="1279"/>
      <point x="572" y="1423" type="curve" smooth="yes"/>
      <point x="595" y="1567"/>
      <point x="525" y="1655"/>
      <point x="358" y="1655" type="curve" smooth="yes"/>
      <point x="189" y="1655"/>
      <point x="92" y="1567"/>
      <point x="68" y="1423" type="curve" smooth="yes"/>
      <point x="46" y="1279"/>
      <point x="114" y="1189"/>
    </contour>
  </outline>
</glyph>
<glyph name="ogonek" format="1">
  <advance width="471"/>
  <unicode hex="02DB"/>
  <outline>
    <contour>
      <point x="273" y="0" type="move" name="_ogonek"/>
    </contour>
    <contour>
      <point x="367" y="-527" type="curve"/>
      <point x="414" y="-360" type="line"/>
      <point x="348" y="-360"/>
      <point x="234" y="-368"/>
      <point x="254" y="-245" type="curve" smooth="yes"/>
      <point x="268" y="-154"/>
      <point x="314" y="-80"/>
      <point x="354" y="8" type="curve"/>
      <point x="208" y="8" type="line"/>
      <point x="129" y="-62"/>
      <point x="41" y="-190"/>
      <point x="23" y="-302" type="curve" smooth="yes"/>
      <point x="-14" y="-528"/>
      <point x="217" y="-530"/>
    </contour>
  </outline>
</glyph>
<glyph name="tilde" format="1">
  <advance width="907"/>
  <unicode hex="02DC"/>
  <outline>
    <contour>
      <point x="414" y="1082" type="move" name="_top"/>
    </contour>
    <contour>
      <point x="320" y="1248" type="curve" smooth="yes"/>
      <point x="482" y="1248"/>
      <point x="542" y="1348"/>
      <point x="586" y="1348" type="curve" smooth="yes"/>
      <point x="614" y="1348"/>
      <point x="630" y="1325"/>
      <point x="622" y="1265" type="curve"/>
      <point x="753" y="1265" type="line"/>
      <point x="783" y="1465"/>
      <point x="708" y="1544"/>
      <point x="588" y="1544" type="curve" smooth="yes"/>
      <point x="424" y="1544"/>
      <point x="370" y="1445"/>
      <point x="333" y="1445" type="curve" smooth="yes"/>
      <point x="301" y="1445"/>
      <point x="276" y="1463"/>
      <point x="286" y="1526" type="curve"/>
      <point x="155" y="1526" type="line"/>
      <point x="124" y="1326"/>
      <point x="200" y="1248"/>
    </contour>
  </outline>
</glyph>
<glyph name="hungarumlaut" format="1">
  <advance width="1024"/>
  <unicode hex="02DD"/>
  <outline>
    <contour>
      <point x="305" y="1082" type="move" name="_top"/>
    </contour>
    <contour>
      <point x="43" y="1075" type="line"/>
      <point x="204" y="1075" type="line"/>
      <point x="493" y="1431" type="line"/>
      <point x="199" y="1431" type="line"/>
    </contour>
    <contour>
      <point x="453" y="1075" type="line"/>
      <point x="614" y="1075" type="line"/>
      <point x="903" y="1431" type="line"/>
      <point x="609" y="1431" type="line"/>
    </contour>
  </outline>
</glyph>
<glyph name="uni030F" format="1">
  <advance width="1024"/>
  <unicode hex="030F"/>
  <outline>
    <contour>
      <point x="623" y="1082" type="move" name="_top"/>
    </contour>
    <contour>
      <point x="721" y="1075" type="line"/>
      <point x="883" y="1075" type="line"/>
      <point x="840" y="1431" type="line"/>
      <point x="546" y="1431" type="line"/>
    </contour>
    <contour>
      <point x="311" y="1075" type="line"/>
      <point x="473" y="1075" type="line"/>
      <point x="430" y="1431" type="line"/>
      <point x="136" y="1431" type="line"/>
    </contour>
  </outline>
</glyph>
<glyph name="uni0311" format="1">
  <advance width="613"/>
  <unicode hex="0311"/>
  <outline>
    <contour>
      <point x="281" y="1082" type="move" name="_top"/>
    </contour>
    <contour>
      <point x="13" y="1194" type="curve"/>
      <point x="168" y="1194" type="line"/>
      <point x="183" y="1279"/>
      <point x="245" y="1300"/>
      <point x="304" y="1300" type="curve" smooth="yes"/>
      <point x="364" y="1300"/>
      <point x="421" y="1279"/>
      <point x="406" y="1194" type="curve"/>
      <point x="561" y="1194" type="line"/>
      <point x="601" y="1445"/>
      <point x="455" y="1481"/>
      <point x="334" y="1481" type="curve" smooth="yes"/>
      <point x="212" y="1481"/>
      <point x="53" y="1445"/>
    </contour>
  </outline>
</glyph>
<glyph name="uni0358" format="1">
  <advance width="600"/>
  <unicode hex="0358"/>
  <outline>
    <contour>
      <point x="258" y="1060" type="move" name="_top"/>
    </contour>
    <contour>
      <point x="194" y="1327" type="line"/>
      <point x="387" y="1327" type="line"/>
      <point x="419" y="1535" type="line"/>
      <point x="226" y="1535" type="line"/>
    </contour>
  </outline>
</glyph>
<glyph name="Delta" format="1">
  <advance width="1414"/>
  <unicode hex="0394"/>
  <outline>
    <contour>
      <point x="-42" y="0" type="line"/>
      <point x="1220" y="0" type="line"/>
      <point x="967" y="1494" type="line"/>
      <point x="726" y="1494" type="line"/>
    </contour>
    <contour>
      <point x="289" y="231" type="line"/>
      <point x="727" y="1108" type="line"/>
      <point x="840" y="231" type="line"/>
    </contour>
  </outline>
</glyph>
<glyph name="Sigma" format="1">
  <advance width="1220"/>
  <unicode hex="03A3"/>
  <outline>
    <contour>
      <point x="980" y="0" type="line"/>
      <point x="1022" y="264" type="line"/>
      <point x="445" y="264" type="line"/>
      <point x="928" y="732" type="line"/>
      <point x="942" y="815" type="line"/>
      <point x="604" y="1232" type="line"/>
      <point x="1175" y="1232" type="line"/>
      <point x="1217" y="1494" type="line"/>
      <point x="198" y="1494" type="line"/>
      <point x="166" y="1287" type="line"/>
      <point x="561" y="760" type="line"/>
      <point x="-5" y="213" type="line"/>
      <point x="-38" y="0" type="line"/>
    </contour>
  </outline>
</glyph>
<glyph name="mu" format="1">
  <advance width="1259"/>
  <unicode hex="03BC"/>
  <outline>
    <contour>
      <point x="893" y="1082" type="line"/>
      <point x="773" y="322" type="line" smooth="yes"/>
      <point x="755" y="215"/>
      <point x="622" y="192"/>
      <point x="574" y="192" type="curve" smooth="yes"/>
      <point x="518" y="192"/>
      <point x="413" y="203"/>
      <point x="431" y="319" type="curve" smooth="yes"/>
      <point x="553" y="1082" type="line"/>
      <point x="230" y="1082" type="line"/>
      <point x="34" y="-148" type="line"/>
      <point x="325" y="-148" type="line"/>
      <point x="349" y="-1" type="line"/>
      <point x="408" y="-12"/>
      <point x="454" y="-17"/>
      <point x="484" y="-17" type="curve" smooth="yes"/>
      <point x="609" y="-17"/>
      <point x="700" y="43"/>
      <point x="743" y="136" type="curve"/>
      <point x="720" y="0" type="line"/>
      <point x="1046" y="0" type="line"/>
      <point x="1217" y="1082" type="line"/>
    </contour>
  </outline>
</glyph>
<glyph name="pi" format="1">
  <advance width="1303"/>
  <unicode hex="03C0"/>
  <outline>
    <contour>
      <point x="74" y="757" type="line"/>
      <point x="180" y="827"/>
      <point x="177" y="849"/>
      <point x="283" y="865" type="curve"/>
      <point x="147" y="0" type="line"/>
      <point x="437" y="0" type="line"/>
      <point x="574" y="868" type="line"/>
      <point x="814" y="868" type="line"/>
      <point x="727" y="315" type="line"/>
      <point x="682" y="33"/>
      <point x="811" y="-24"/>
      <point x="1062" y="-19" type="curve"/>
      <point x="1136" y="175" type="line"/>
      <point x="1016" y="197"/>
      <point x="999" y="194"/>
      <point x="1022" y="349" type="curve"/>
      <point x="1105" y="868" type="line"/>
      <point x="1287" y="868" type="line"/>
      <point x="1321" y="1082" type="line"/>
      <point x="336" y="1082" type="line"/>
      <point x="244" y="1082"/>
      <point x="184" y="1051"/>
      <point x="110" y="978" type="curve"/>
    </contour>
  </outline>
</glyph>
<glyph name="endash" format="1">
  <advance width="822"/>
  <unicode hex="2013"/>
  <outline>
    <contour>
      <point x="189" y="350" type="line"/>
      <point x="605" y="350" type="line"/>
      <point x="635" y="540" type="line"/>
      <point x="218" y="540" type="line"/>
    </contour>
  </outline>
</glyph>
<glyph name="emdash" format="1">
  <advance width="877"/>
  <unicode hex="2014"/>
  <outline>
    <contour>
      <point x="-12" y="372" type="line"/>
      <point x="857" y="372" type="line"/>
      <point x="888" y="561" type="line"/>
      <point x="19" y="561" type="line"/>
    </contour>
  </outline>
</glyph>
<glyph name="quoteleft" format="1">
  <advance width="937"/>
  <unicode hex="2018"/>
  <outline>
    <contour>
      <point x="550" y="1524" type="line"/>
      <point x="476" y="1467"/>
      <point x="296" y="1257"/>
      <point x="264" y="1050" type="curve" smooth="yes"/>
      <point x="224" y="803" type="line"/>
      <point x="585" y="803" type="line"/>
      <point x="633" y="1104" type="line"/>
      <point x="454" y="1104" type="line"/>
      <point x="476" y="1246"/>
      <point x="601" y="1417"/>
      <point x="664" y="1477" type="curve"/>
    </contour>
  </outline>
</glyph>
<glyph name="quoteright" format="1">
  <advance width="873"/>
  <unicode hex="2019"/>
  <outline>
    <contour>
      <point x="387" y="804" type="line"/>
      <point x="461" y="861"/>
      <point x="641" y="1072"/>
      <point x="673" y="1279" type="curve" smooth="yes"/>
      <point x="713" y="1526" type="line"/>
      <point x="352" y="1526" type="line"/>
      <point x="304" y="1224" type="line"/>
      <point x="483" y="1224" type="line"/>
      <point x="461" y="1082"/>
      <point x="336" y="911"/>
      <point x="273" y="851" type="curve"/>
    </contour>
  </outline>
</glyph>
<glyph name="quotesinglbase" format="1">
  <advance width="937"/>
  <unicode hex="201A"/>
  <outline>
    <contour>
      <point x="451" y="-420" type="line"/>
      <point x="525" y="-362"/>
      <point x="705" y="-152"/>
      <point x="737" y="55" type="curve" smooth="yes"/>
      <point x="777" y="302" type="line"/>
      <point x="416" y="302" type="line"/>
      <point x="368" y="0" type="line"/>
      <point x="547" y="0" type="line"/>
      <point x="525" y="-142"/>
      <point x="400" y="-313"/>
      <point x="337" y="-372" type="curve"/>
    </contour>
  </outline>
</glyph>
<glyph name="quotedblleft" format="1">
  <advance width="1387"/>
  <unicode hex="201C"/>
  <outline>
    <contour>
      <point x="486" y="1543" type="line"/>
      <point x="412" y="1486"/>
      <point x="232" y="1276"/>
      <point x="200" y="1069" type="curve" smooth="yes"/>
      <point x="160" y="822" type="line"/>
      <point x="521" y="822" type="line"/>
      <point x="569" y="1124" type="line"/>
      <point x="390" y="1124" type="line"/>
      <point x="412" y="1265"/>
      <point x="537" y="1436"/>
      <point x="600" y="1496" type="curve"/>
    </contour>
    <contour>
      <point x="1000" y="1543" type="line"/>
      <point x="926" y="1486"/>
      <point x="746" y="1276"/>
      <point x="714" y="1069" type="curve" smooth="yes"/>
      <point x="674" y="822" type="line"/>
      <point x="1035" y="822" type="line"/>
      <point x="1083" y="1124" type="line"/>
      <point x="904" y="1124" type="line"/>
      <point x="927" y="1265"/>
      <point x="1051" y="1436"/>
      <point x="1114" y="1496" type="curve"/>
    </contour>
  </outline>
</glyph>
<glyph name="quotedblright" format="1">
  <advance width="1451"/>
  <unicode hex="201D"/>
  <outline>
    <contour>
      <point x="451" y="823" type="line"/>
      <point x="525" y="881"/>
      <point x="705" y="1091"/>
      <point x="737" y="1298" type="curve" smooth="yes"/>
      <point x="777" y="1545" type="line"/>
      <point x="416" y="1545" type="line"/>
      <point x="368" y="1243" type="line"/>
      <point x="547" y="1243" type="line"/>
      <point x="525" y="1101"/>
      <point x="400" y="930"/>
      <point x="337" y="871" type="curve"/>
    </contour>
    <contour>
      <point x="966" y="823" type="line"/>
      <point x="1040" y="881"/>
      <point x="1220" y="1091"/>
      <point x="1251" y="1298" type="curve" smooth="yes"/>
      <point x="1292" y="1545" type="line"/>
      <point x="931" y="1545" type="line"/>
      <point x="882" y="1243" type="line"/>
      <point x="1062" y="1243" type="line"/>
      <point x="1039" y="1101"/>
      <point x="915" y="930"/>
      <point x="852" y="871" type="curve"/>
    </contour>
  </outline>
</glyph>
<glyph name="quotedblbase" format="1">
  <advance width="1488"/>
  <unicode hex="201E"/>
  <outline>
    <contour>
      <point x="1002" y="-420" type="line"/>
      <point x="1076" y="-362"/>
      <point x="1257" y="-152"/>
      <point x="1288" y="55" type="curve" smooth="yes"/>
      <point x="1328" y="302" type="line"/>
      <point x="967" y="302" type="line"/>
      <point x="919" y="0" type="line"/>
      <point x="1099" y="0" type="line"/>
      <point x="1076" y="-142"/>
      <point x="951" y="-313"/>
      <point x="888" y="-372" type="curve"/>
    </contour>
    <contour>
      <point x="451" y="-420" type="line"/>
      <point x="525" y="-362"/>
      <point x="705" y="-152"/>
      <point x="737" y="55" type="curve" smooth="yes"/>
      <point x="777" y="302" type="line"/>
      <point x="416" y="302" type="line"/>
      <point x="368" y="0" type="line"/>
      <point x="547" y="0" type="line"/>
      <point x="525" y="-142"/>
      <point x="400" y="-313"/>
      <point x="337" y="-372" type="curve"/>
    </contour>
  </outline>
</glyph>
<glyph name="dagger" format="1">
  <advance width="1104"/>
  <unicode hex="2020"/>
  <outline>
    <contour>
      <point x="347" y="0" type="line"/>
      <point x="562" y="0" type="line"/>
      <point x="691" y="813" type="line"/>
      <point x="933" y="813" type="line"/>
      <point x="961" y="985" type="line"/>
      <point x="719" y="985" type="line"/>
      <point x="760" y="1251" type="line"/>
      <point x="545" y="1251" type="line"/>
      <point x="503" y="985" type="line"/>
      <point x="259" y="985" type="line"/>
      <point x="231" y="813" type="line"/>
      <point x="475" y="813" type="line"/>
    </contour>
  </outline>
</glyph>
<glyph name="daggerdbl" format="1">
  <advance width="1077"/>
  <unicode hex="2021"/>
  <outline>
    <contour>
      <point x="332" y="0" type="line"/>
      <point x="547" y="0" type="line"/>
      <point x="606" y="367" type="line"/>
      <point x="754" y="367" type="line"/>
      <point x="787" y="588" type="line"/>
      <point x="640" y="588" type="line"/>
      <point x="679" y="838" type="line"/>
      <point x="827" y="838" type="line"/>
      <point x="863" y="1058" type="line"/>
      <point x="715" y="1058" type="line"/>
      <point x="745" y="1251" type="line"/>
      <point x="530" y="1251" type="line"/>
      <point x="500" y="1058" type="line"/>
      <point x="352" y="1058" type="line"/>
      <point x="316" y="838" type="line"/>
      <point x="464" y="838" type="line"/>
      <point x="425" y="588" type="line"/>
      <point x="277" y="588" type="line"/>
      <point x="243" y="367" type="line"/>
      <point x="391" y="367" type="line"/>
    </contour>
  </outline>
</glyph>
<glyph name="bullet" format="1">
  <advance width="1053"/>
  <unicode hex="2022"/>
  <outline>
    <contour>
      <point x="475" y="445" type="curve" smooth="yes"/>
      <point x="647" y="445"/>
      <point x="826" y="595"/>
      <point x="854" y="772" type="curve" smooth="yes"/>
      <point x="882" y="949"/>
      <point x="749" y="1099"/>
      <point x="578" y="1099" type="curve" smooth="yes"/>
      <point x="404" y="1099"/>
      <point x="227" y="949"/>
      <point x="199" y="772" type="curve" smooth="yes"/>
      <point x="171" y="594"/>
      <point x="303" y="445"/>
    </contour>
  </outline>
</glyph>
<glyph name="perthousand" format="1">
  <advance width="2699"/>
  <unicode hex="2030"/>
  <outline>
    <contour>
      <point x="395" y="796" type="curve" smooth="yes"/>
      <point x="273" y="796"/>
      <point x="276" y="893"/>
      <point x="298" y="1025" type="curve" smooth="yes"/>
      <point x="312" y="1110" type="line" smooth="yes"/>
      <point x="332" y="1237"/>
      <point x="353" y="1323"/>
      <point x="478" y="1323" type="curve" smooth="yes"/>
      <point x="603" y="1323"/>
      <point x="596" y="1237"/>
      <point x="576" y="1108" type="curve" smooth="yes"/>
      <point x="562" y="1025" type="line" smooth="yes"/>
      <point x="540" y="893"/>
      <point x="515" y="796"/>
    </contour>
    <contour>
      <point x="372" y="658" type="curve" smooth="yes"/>
      <point x="602" y="658"/>
      <point x="701" y="808"/>
      <point x="737" y="1037" type="curve" smooth="yes"/>
      <point x="746" y="1091" type="line" smooth="yes"/>
      <point x="781" y="1324"/>
      <point x="729" y="1461"/>
      <point x="499" y="1461" type="curve" smooth="yes"/>
      <point x="268" y="1461"/>
      <point x="174" y="1323"/>
      <point x="137" y="1090" type="curve" smooth="yes"/>
      <point x="129" y="1037" type="line" smooth="yes"/>
      <point x="93" y="809"/>
      <point x="142" y="658"/>
    </contour>
    <contour>
      <point x="1411" y="119" type="curve" smooth="yes"/>
      <point x="1289" y="119"/>
      <point x="1294" y="216"/>
      <point x="1316" y="348" type="curve" smooth="yes"/>
      <point x="1329" y="433" type="line" smooth="yes"/>
      <point x="1348" y="560"/>
      <point x="1369" y="646"/>
      <point x="1494" y="646" type="curve" smooth="yes"/>
      <point x="1619" y="646"/>
      <point x="1614" y="560"/>
      <point x="1593" y="431" type="curve" smooth="yes"/>
      <point x="1582" y="348" type="line" smooth="yes"/>
      <point x="1560" y="216"/>
      <point x="1532" y="119"/>
    </contour>
    <contour>
      <point x="1390" y="-19" type="curve" smooth="yes"/>
      <point x="1620" y="-19"/>
      <point x="1721" y="131"/>
      <point x="1757" y="360" type="curve" smooth="yes"/>
      <point x="1765" y="414" type="line" smooth="yes"/>
      <point x="1800" y="647"/>
      <point x="1747" y="784"/>
      <point x="1517" y="784" type="curve" smooth="yes"/>
      <point x="1286" y="784"/>
      <point x="1192" y="646"/>
      <point x="1155" y="413" type="curve" smooth="yes"/>
      <point x="1147" y="360" type="line" smooth="yes"/>
      <point x="1111" y="132"/>
      <point x="1160" y="-19"/>
    </contour>
    <contour>
      <point x="2150" y="119" type="curve" smooth="yes"/>
      <point x="2028" y="119"/>
      <point x="2033" y="216"/>
      <point x="2055" y="348" type="curve" smooth="yes"/>
      <point x="2068" y="433" type="line" smooth="yes"/>
      <point x="2087" y="560"/>
      <point x="2108" y="646"/>
      <point x="2233" y="646" type="curve" smooth="yes"/>
      <point x="2358" y="646"/>
      <point x="2353" y="560"/>
      <point x="2332" y="431" type="curve" smooth="yes"/>
      <point x="2321" y="348" type="line" smooth="yes"/>
      <point x="2299" y="216"/>
      <point x="2271" y="119"/>
    </contour>
    <contour>
      <point x="2129" y="-19" type="curve" smooth="yes"/>
      <point x="2359" y="-19"/>
      <point x="2460" y="131"/>
      <point x="2496" y="360" type="curve" smooth="yes"/>
      <point x="2504" y="414" type="line" smooth="yes"/>
      <point x="2539" y="647"/>
      <point x="2486" y="784"/>
      <point x="2256" y="784" type="curve" smooth="yes"/>
      <point x="2025" y="784"/>
      <point x="1931" y="646"/>
      <point x="1894" y="413" type="curve" smooth="yes"/>
      <point x="1886" y="360" type="line" smooth="yes"/>
      <point x="1850" y="132"/>
      <point x="1899" y="-19"/>
    </contour>
    <contour>
      <point x="465" y="0" type="line"/>
      <point x="657" y="0" type="line"/>
      <point x="1424" y="1446" type="line"/>
      <point x="1237" y="1446" type="line"/>
    </contour>
  </outline>
</glyph>
<glyph name="fraction" format="1">
  <advance width="1010"/>
  <unicode hex="2044"/>
  <outline>
    <contour>
      <point x="-42" y="0" type="line"/>
      <point x="234" y="0" type="line"/>
      <point x="1053" y="1522" type="line"/>
      <point x="774" y="1522" type="line"/>
    </contour>
  </outline>
</glyph>
<glyph name="foursuperior" format="1">
  <advance width="1156"/>
  <unicode hex="2074"/>
  <outline>
    <contour>
      <point x="556" y="569" type="line"/>
      <point x="733" y="569" type="line"/>
      <point x="765" y="775" type="line"/>
      <point x="920" y="775" type="line"/>
      <point x="951" y="969" type="line"/>
      <point x="796" y="969" type="line"/>
      <point x="830" y="1181" type="line"/>
      <point x="654" y="1181" type="line"/>
      <point x="619" y="969" type="line"/>
      <point x="433" y="969" type="line"/>
      <point x="700" y="1579" type="line"/>
      <point x="447" y="1579" type="line"/>
      <point x="160" y="977" type="line"/>
      <point x="127" y="775" type="line"/>
      <point x="589" y="775" type="line"/>
    </contour>
  </outline>
</glyph>
<glyph name="Euro" format="1">
  <advance width="1508"/>
  <unicode hex="20AC"/>
  <outline>
    <contour>
      <point x="832" y="849" type="line"/>
      <point x="853" y="983" type="line"/>
      <point x="111" y="983" type="line"/>
      <point x="90" y="849" type="line"/>
    </contour>
    <contour>
      <point x="785" y="555" type="line"/>
      <point x="805" y="689" type="line"/>
      <point x="63" y="689" type="line"/>
      <point x="43" y="555" type="line"/>
    </contour>
    <component base="C"/>
  </outline>
</glyph>
<glyph name="trademark" format="1">
  <advance width="1843"/>
  <unicode hex="2122"/>
  <outline>
    <contour>
      <point x="759" y="766" type="line"/>
      <point x="948" y="766" type="line"/>
      <point x="1015" y="1185" type="line"/>
      <point x="1121" y="931" type="line"/>
      <point x="1282" y="931" type="line"/>
      <point x="1463" y="1185" type="line"/>
      <point x="1396" y="766" type="line"/>
      <point x="1587" y="766" type="line"/>
      <point x="1695" y="1446" type="line"/>
      <point x="1467" y="1446" type="line"/>
      <point x="1234" y="1145" type="line"/>
      <point x="1097" y="1446" type="line"/>
      <point x="867" y="1446" type="line"/>
    </contour>
    <contour>
      <point x="243" y="766" type="line"/>
      <point x="474" y="766" type="line"/>
      <point x="556" y="1284" type="line"/>
      <point x="720" y="1284" type="line"/>
      <point x="746" y="1446" type="line"/>
      <point x="187" y="1446" type="line"/>
      <point x="161" y="1284" type="line"/>
      <point x="325" y="1284" type="line"/>
    </contour>
  </outline>
</glyph>
<glyph name="Ohm" format="1">
  <advance width="1663"/>
  <unicode hex="2126"/>
  <outline>
    <contour>
      <point x="951" y="1502" type="curve"/>
      <point x="551" y="1502"/>
      <point x="233" y="1446"/>
      <point x="124" y="764" type="curve"/>
      <point x="85" y="514"/>
      <point x="205" y="342"/>
      <point x="323" y="245" type="curve"/>
      <point x="63" y="245" type="line"/>
      <point x="24" y="0" type="line"/>
      <point x="639" y="0" type="line"/>
      <point x="673" y="223" type="line"/>
      <point x="475" y="353"/>
      <point x="455" y="499"/>
      <point x="503" y="805" type="curve"/>
      <point x="569" y="1221"/>
      <point x="693" y="1251"/>
      <point x="910" y="1251" type="curve"/>
      <point x="1143" y="1251"/>
      <point x="1243" y="1221"/>
      <point x="1176" y="805" type="curve"/>
      <point x="1128" y="499"/>
      <point x="1061" y="353"/>
      <point x="821" y="223" type="curve"/>
      <point x="786" y="0" type="line"/>
      <point x="1401" y="0" type="line"/>
      <point x="1440" y="245" type="line"/>
      <point x="1181" y="245" type="line"/>
      <point x="1329" y="342"/>
      <point x="1504" y="514"/>
      <point x="1543" y="764" type="curve"/>
      <point x="1651" y="1446"/>
      <point x="1366" y="1502"/>
    </contour>
  </outline>
</glyph>
<glyph name="estimated" format="1">
  <advance width="1209"/>
  <unicode hex="212E"/>
  <outline>
    <contour>
      <point x="703" y="1151" type="curve" smooth="yes"/>
      <point x="796" y="1151"/>
      <point x="884" y="1117"/>
      <point x="925" y="1047" type="curve"/>
      <point x="890" y="819" type="line"/>
      <point x="404" y="819" type="line"/>
      <point x="440" y="1048" type="line"/>
      <point x="507" y="1116"/>
      <point x="608" y="1151"/>
    </contour>
    <contour>
      <point x="95" y="730" type="curve" smooth="yes"/>
      <point x="45" y="413"/>
      <point x="195" y="178"/>
      <point x="575" y="178" type="curve" smooth="yes"/>
      <point x="781" y="178"/>
      <point x="929" y="267"/>
      <point x="1047" y="385" type="curve"/>
      <point x="958" y="481" type="line"/>
      <point x="859" y="388"/>
      <point x="760" y="328"/>
      <point x="601" y="328" type="curve" smooth="yes"/>
      <point x="468" y="328"/>
      <point x="407" y="363"/>
      <point x="354" y="436" type="curve"/>
      <point x="396" y="696" type="line"/>
      <point x="1104" y="696" type="line"/>
      <point x="1162" y="1063"/>
      <point x="1042" y="1280"/>
      <point x="724" y="1280" type="curve" smooth="yes"/>
      <point x="404" y="1280"/>
      <point x="144" y="1041"/>
    </contour>
  </outline>
</glyph>
<glyph name="partialdiff" format="1">
  <advance width="1224"/>
  <unicode hex="2202"/>
  <outline>
    <contour>
      <point x="358" y="-20" type="curve"/>
      <point x="775" y="-20"/>
      <point x="1082" y="388"/>
      <point x="1163" y="895" type="curve"/>
      <point x="1225" y="1290"/>
      <point x="1015" y="1489"/>
      <point x="707" y="1489" type="curve"/>
      <point x="568" y="1489"/>
      <point x="400" y="1441"/>
      <point x="283" y="1373" type="curve"/>
      <point x="314" y="1248" type="line"/>
      <point x="445" y="1315"/>
      <point x="519" y="1338"/>
      <point x="599" y="1338" type="curve"/>
      <point x="749" y="1338"/>
      <point x="875" y="1222"/>
      <point x="832" y="951" type="curve"/>
      <point x="831" y="946"/>
      <point x="829" y="941"/>
      <point x="830" y="936" type="curve"/>
      <point x="361" y="895"/>
      <point x="62" y="576"/>
      <point x="20" y="320" type="curve"/>
      <point x="-6" y="145"/>
      <point x="85" y="-20"/>
    </contour>
    <contour>
      <point x="399" y="149" type="curve"/>
      <point x="389" y="149"/>
      <point x="369" y="196"/>
      <point x="384" y="292" type="curve"/>
      <point x="414" y="478"/>
      <point x="579" y="706"/>
      <point x="794" y="774" type="curve"/>
      <point x="727" y="521"/>
      <point x="553" y="149"/>
    </contour>
  </outline>
</glyph>
<glyph name="emptyset" format="1">
  <advance width="1552"/>
  <unicode hex="2205"/>
  <outline>
    <contour>
      <point x="707" y="229" type="curve" smooth="yes"/>
      <point x="449" y="229"/>
      <point x="293" y="423"/>
      <point x="334" y="682" type="curve" smooth="yes"/>
      <point x="374" y="939"/>
      <point x="593" y="1134"/>
      <point x="851" y="1134" type="curve" smooth="yes"/>
      <point x="1110" y="1134"/>
      <point x="1262" y="939"/>
      <point x="1221" y="682" type="curve" smooth="yes"/>
      <point x="1180" y="423"/>
      <point x="966" y="229"/>
    </contour>
    <contour>
      <point x="679" y="66" type="curve" smooth="yes"/>
      <point x="1027" y="66"/>
      <point x="1337" y="331"/>
      <point x="1392" y="682" type="curve" smooth="yes"/>
      <point x="1448" y="1031"/>
      <point x="1222" y="1296"/>
      <point x="874" y="1296" type="curve" smooth="yes"/>
      <point x="528" y="1296"/>
      <point x="216" y="1031"/>
      <point x="160" y="682" type="curve" smooth="yes"/>
      <point x="105" y="331"/>
      <point x="333" y="66"/>
    </contour>
    <contour>
      <point x="99" y="80" type="line"/>
      <point x="184" y="-8" type="line"/>
      <point x="1466" y="1275" type="line"/>
      <point x="1380" y="1363" type="line"/>
    </contour>
  </outline>
</glyph>
<glyph name="product" format="1">
  <advance width="1766"/>
  <unicode hex="220F"/>
  <outline>
    <contour>
      <point x="583" y="319" type="line"/>
      <point x="714" y="319" type="line"/>
      <point x="767" y="652" type="line"/>
      <point x="945" y="652" type="line" smooth="yes"/>
      <point x="1165" y="652"/>
      <point x="1238" y="760"/>
      <point x="1259" y="894" type="curve" smooth="yes"/>
      <point x="1262" y="908" type="line" smooth="yes"/>
      <point x="1285" y="1082"/>
      <point x="1194" y="1153"/>
      <point x="1037" y="1153" type="curve" smooth="yes"/>
      <point x="715" y="1153" type="line"/>
    </contour>
    <contour>
      <point x="781" y="742" type="line"/>
      <point x="832" y="1062" type="line"/>
      <point x="1027" y="1062" type="line" smooth="yes"/>
      <point x="1145" y="1062"/>
      <point x="1138" y="960"/>
      <point x="1129" y="901" type="curve" smooth="yes"/>
      <point x="1125" y="877" type="line"/>
      <point x="1114" y="814"/>
      <point x="1081" y="742"/>
      <point x="967" y="742" type="curve" smooth="yes"/>
    </contour>
    <contour>
      <point x="784" y="82" type="curve" smooth="yes"/>
      <point x="420" y="82"/>
      <point x="198" y="357"/>
      <point x="256" y="722" type="curve" smooth="yes"/>
      <point x="314" y="1086"/>
      <point x="622" y="1361"/>
      <point x="986" y="1361" type="curve" smooth="yes"/>
      <point x="1352" y="1361"/>
      <point x="1571" y="1086"/>
      <point x="1513" y="722" type="curve" smooth="yes"/>
      <point x="1455" y="357"/>
      <point x="1150" y="82"/>
    </contour>
    <contour>
      <point x="767" y="-14" type="curve" smooth="yes"/>
      <point x="1183" y="-14"/>
      <point x="1553" y="303"/>
      <point x="1619" y="722" type="curve" smooth="yes"/>
      <point x="1685" y="1139"/>
      <point x="1415" y="1456"/>
      <point x="999" y="1456" type="curve" smooth="yes"/>
      <point x="586" y="1456"/>
      <point x="213" y="1139"/>
      <point x="147" y="722" type="curve" smooth="yes"/>
      <point x="81" y="303"/>
      <point x="354" y="-14"/>
    </contour>
  </outline>
</glyph>
<glyph name="summation" format="1">
  <advance width="1240"/>
  <unicode hex="2211"/>
  <outline>
    <contour>
      <point x="969" y="0" type="line"/>
      <point x="1013" y="274" type="line"/>
      <point x="462" y="274" type="line"/>
      <point x="973" y="706" type="line"/>
      <point x="992" y="823" type="line"/>
      <point x="633" y="1222" type="line"/>
      <point x="1162" y="1222" type="line"/>
      <point x="1205" y="1494" type="line"/>
      <point x="257" y="1494" type="line"/>
      <point x="213" y="1210" type="line"/>
      <point x="597" y="762" type="line"/>
      <point x="65" y="283" type="line"/>
      <point x="21" y="0" type="line"/>
    </contour>
  </outline>
</glyph>
<glyph name="minus" format="1">
  <advance width="721"/>
  <unicode hex="2212"/>
  <outline>
    <contour>
      <point x="95" y="439" type="line"/>
      <point x="586" y="439" type="line"/>
      <point x="616" y="625" type="line"/>
      <point x="125" y="625" type="line"/>
    </contour>
  </outline>
</glyph>
<glyph name="bulletoperator" format="1">
  <advance width="259"/>
  <unicode hex="2219"/>
  <outline>
    <contour>
      <point x="-60" y="1807" type="curve"/>
      <point x="19" y="1807"/>
      <point x="464" y="1742"/>
      <point x="451" y="1664" type="curve"/>
      <point x="439" y="1585"/>
      <point x="434" y="1916"/>
      <point x="356" y="1916" type="curve"/>
      <point x="277" y="1916"/>
      <point x="-168" y="1980"/>
      <point x="-155" y="2059" type="curve"/>
      <point x="-143" y="2138"/>
      <point x="-138" y="1807"/>
    </contour>
  </outline>
</glyph>
<glyph name="radical" format="1">
  <advance width="1327"/>
  <unicode hex="221A"/>
  <outline>
    <contour>
      <point x="-93" y="554" type="line"/>
      <point x="26" y="554" type="line"/>
      <point x="296" y="0" type="line"/>
      <point x="585" y="0" type="line"/>
      <point x="1403" y="1506" type="line"/>
      <point x="1173" y="1506" type="line"/>
      <point x="484" y="271" type="line"/>
      <point x="313" y="665" type="line"/>
      <point x="-76" y="665" type="line"/>
    </contour>
  </outline>
</glyph>
<glyph name="infinity" format="1">
  <advance width="2287"/>
  <unicode hex="221E"/>
  <outline>
    <contour>
      <point x="521" y="285" type="curve" smooth="yes"/>
      <point x="707" y="285"/>
      <point x="1119" y="550"/>
      <point x="1119" y="550" type="curve"/>
      <point x="1119" y="550"/>
      <point x="1439" y="285"/>
      <point x="1625" y="285" type="curve" smooth="yes"/>
      <point x="1762" y="285"/>
      <point x="1925" y="409"/>
      <point x="1976" y="732" type="curve" smooth="yes"/>
      <point x="2027" y="1055"/>
      <point x="1904" y="1177"/>
      <point x="1766" y="1177" type="curve" smooth="yes"/>
      <point x="1580" y="1177"/>
      <point x="1174" y="896"/>
      <point x="1174" y="896" type="curve"/>
      <point x="1174" y="896"/>
      <point x="848" y="1177"/>
      <point x="662" y="1177" type="curve" smooth="yes"/>
      <point x="525" y="1177"/>
      <point x="361" y="1054"/>
      <point x="310" y="731" type="curve" smooth="yes"/>
      <point x="259" y="408"/>
      <point x="383" y="285"/>
    </contour>
    <contour>
      <point x="593" y="579" type="curve" smooth="yes"/>
      <point x="481" y="579"/>
      <point x="457" y="635"/>
      <point x="473" y="731" type="curve" smooth="yes"/>
      <point x="489" y="828"/>
      <point x="527" y="883"/>
      <point x="639" y="883" type="curve" smooth="yes"/>
      <point x="713" y="883"/>
      <point x="835" y="810"/>
      <point x="992" y="727" type="curve"/>
      <point x="809" y="643"/>
      <point x="667" y="579"/>
    </contour>
    <contour>
      <point x="1655" y="579" type="curve" smooth="yes"/>
      <point x="1581" y="579"/>
      <point x="1459" y="645"/>
      <point x="1302" y="728" type="curve"/>
      <point x="1485" y="812"/>
      <point x="1628" y="883"/>
      <point x="1702" y="883" type="curve" smooth="yes"/>
      <point x="1814" y="883"/>
      <point x="1838" y="828"/>
      <point x="1822" y="731" type="curve" smooth="yes"/>
      <point x="1806" y="635"/>
      <point x="1767" y="579"/>
    </contour>
  </outline>
</glyph>
<glyph name="integral" format="1">
  <advance width="575"/>
  <unicode hex="222B"/>
  <outline>
    <contour>
      <point x="3" y="-193" type="curve" smooth="yes"/>
      <point x="247" y="-193"/>
      <point x="266" y="-27"/>
      <point x="289" y="128" type="curve" smooth="yes"/>
      <point x="449" y="1135" type="line" smooth="yes"/>
      <point x="460" y="1203"/>
      <point x="476" y="1264"/>
      <point x="550" y="1264" type="curve" smooth="yes"/>
      <point x="566" y="1264"/>
      <point x="598" y="1257"/>
      <point x="623" y="1255" type="curve"/>
      <point x="650" y="1416" type="line"/>
      <point x="589" y="1423"/>
      <point x="559" y="1426"/>
      <point x="518" y="1426" type="curve" smooth="yes"/>
      <point x="274" y="1426"/>
      <point x="254" y="1259"/>
      <point x="230" y="1106" type="curve" smooth="yes"/>
      <point x="70" y="102" type="line" smooth="yes"/>
      <point x="60" y="34"/>
      <point x="48" y="-32"/>
      <point x="-30" y="-32" type="curve" smooth="yes"/>
      <point x="-45" y="-32"/>
      <point x="-77" y="-27"/>
      <point x="-103" y="-22" type="curve"/>
      <point x="-130" y="-183" type="line"/>
      <point x="-69" y="-191"/>
      <point x="-38" y="-193"/>
    </contour>
  </outline>
</glyph>
<glyph name="approxequal" format="1">
  <advance width="1110"/>
  <unicode hex="2248"/>
  <outline>
    <contour>
      <point x="732" y="800" type="curve" smooth="yes"/>
      <point x="876" y="800"/>
      <point x="1009" y="911"/>
      <point x="1041" y="1113" type="curve"/>
      <point x="925" y="1113" type="line"/>
      <point x="911" y="1036"/>
      <point x="867" y="979"/>
      <point x="772" y="979" type="curve" smooth="yes"/>
      <point x="687" y="979"/>
      <point x="468" y="1130"/>
      <point x="306" y="1130" type="curve" smooth="yes"/>
      <point x="162" y="1130"/>
      <point x="31" y="1020"/>
      <point x="-1" y="817" type="curve"/>
      <point x="113" y="817" type="line"/>
      <point x="126" y="893"/>
      <point x="171" y="952"/>
      <point x="268" y="952" type="curve" smooth="yes"/>
      <point x="352" y="952"/>
      <point x="568" y="800"/>
    </contour>
    <contour>
      <point x="802" y="1245" type="curve" smooth="yes"/>
      <point x="946" y="1245"/>
      <point x="1079" y="1356"/>
      <point x="1111" y="1558" type="curve"/>
      <point x="995" y="1558" type="line"/>
      <point x="982" y="1482"/>
      <point x="937" y="1425"/>
      <point x="842" y="1425" type="curve" smooth="yes"/>
      <point x="756" y="1425"/>
      <point x="539" y="1575"/>
      <point x="376" y="1575" type="curve" smooth="yes"/>
      <point x="232" y="1575"/>
      <point x="101" y="1466"/>
      <point x="68" y="1262" type="curve"/>
      <point x="183" y="1262" type="line"/>
      <point x="197" y="1339"/>
      <point x="241" y="1397"/>
      <point x="338" y="1397" type="curve" smooth="yes"/>
      <point x="422" y="1397"/>
      <point x="638" y="1245"/>
    </contour>
  </outline>
</glyph>
<glyph name="notequal" format="1">
  <advance width="1010"/>
  <unicode hex="2260"/>
  <outline>
    <contour>
      <point x="52" y="117" type="line"/>
      <point x="240" y="117" type="line"/>
      <point x="863" y="1039" type="line"/>
      <point x="672" y="1039" type="line"/>
    </contour>
    <component base="equal" xOffset="145"/>
  </outline>
</glyph>
<glyph name="lozenge" format="1">
  <advance width="1104"/>
  <unicode hex="25CA"/>
  <outline>
    <contour>
      <point x="336" y="0" type="line"/>
      <point x="551" y="0" type="line"/>
      <point x="1010" y="771" type="line"/>
      <point x="794" y="1540" type="line"/>
      <point x="579" y="1540" type="line"/>
      <point x="94" y="771" type="line"/>
    </contour>
    <contour>
      <point x="478" y="205" type="line"/>
      <point x="329" y="771" type="line"/>
      <point x="655" y="1326" type="line"/>
      <point x="780" y="771" type="line"/>
    </contour>
  </outline>
</glyph>
<glyph name="caron.alt" format="1">
  <advance width="600"/>
  <outline>
    <contour>
      <point x="351" y="1082" type="move" name="_caron.alt"/>
    </contour>
    <contour>
      <point x="653" y="1176" type="line"/>
      <point x="727" y="1234"/>
      <point x="906" y="1443"/>
      <point x="937" y="1650" type="curve" smooth="yes"/>
      <point x="978" y="1897" type="line"/>
      <point x="618" y="1897" type="line"/>
      <point x="570" y="1595" type="line"/>
      <point x="749" y="1595" type="line"/>
      <point x="727" y="1454"/>
      <point x="602" y="1284"/>
      <point x="539" y="1224" type="curve"/>
    </contour>
  </outline>
</glyph>
